<svg width="40" height="40" viewBox="0 0 40 40" fill="none" xmlns="http://www.w3.org/2000/svg">
<path d="M0 8C0 3.58172 3.58172 0 8 0H32C36.4183 0 40 3.58172 40 8V32C40 36.4183 36.4183 40 32 40H8C3.58172 40 0 36.4183 0 32V8Z" fill="#F2F4F6"/>
<g clip-path="url(#clip0_681_199)">
<path d="M30.9102 23.9576L26.3854 19.4328L30.682 15.1362C32.4565 13.3617 32.4565 10.4546 30.682 8.68007C28.9075 6.90557 26.0004 6.90557 24.2259 8.68007L16.8864 16.1246L16.8717 16.1519V11.7748C16.8717 9.26317 14.8179 7.20935 12.3063 7.20935C9.79471 7.20935 7.74091 9.26317 7.74091 11.7748V27.0501C7.74091 28.3052 8.25331 29.4463 9.08141 30.2737L9.07231 30.2898C10.8468 32.0643 13.7539 32.0643 15.5284 30.2898L19.958 25.8601L24.4541 30.4129C26.2286 32.1874 29.1357 32.1874 30.9102 30.4129C32.6847 28.6384 32.6847 25.7313 30.9102 23.9569V23.9576ZM12.3063 7.89817C14.4231 7.89817 16.1402 9.61528 16.1402 11.7321C16.1402 13.8489 14.4231 15.566 12.3063 15.566C10.1895 15.566 8.47241 13.8489 8.47241 11.7321C8.47241 9.61528 10.1895 7.89817 12.3063 7.89817ZM12.3336 30.8848C10.2308 30.8848 8.52491 29.181 8.52491 27.0761C8.52491 24.9712 10.2287 23.2674 12.3336 23.2674C14.4385 23.2674 16.1423 24.9712 16.1423 27.0761C16.1423 29.181 14.4385 30.8848 12.3336 30.8848ZM23.6106 11.564C23.7611 9.45215 25.5951 7.86245 27.707 8.01295C29.8189 8.16345 31.4086 9.99745 31.2581 12.1094C31.1076 14.2206 29.2736 15.8109 27.1617 15.6604C25.0498 15.5099 23.4601 13.6759 23.6106 11.564ZM27.9128 31.1221C25.747 31.2432 23.8906 29.5863 23.7695 27.4184C23.6484 25.2526 25.3053 23.3962 27.4732 23.2751C29.6411 23.154 31.4954 24.8109 31.6165 26.9788C31.7376 29.1467 30.0807 31.001 27.9128 31.1221Z" fill="#607890"/>
</g>
<defs>
<clipPath id="clip0_681_199">
<rect width="28" height="28" fill="white" transform="translate(6 6)"/>
</clipPath>
</defs>
</svg>

