<svg width="40" height="40" viewBox="0 0 40 40" fill="none" xmlns="http://www.w3.org/2000/svg">
<path d="M0 8C0 3.58172 3.58172 0 8 0H32C36.4183 0 40 3.58172 40 8V32C40 36.4183 36.4183 40 32 40H8C3.58172 40 0 36.4183 0 32V8Z" fill="#ECF3FF"/>
<g clip-path="url(#clip0_681_8218)">
<path d="M30.9103 23.9576L26.3855 19.4328L30.6821 15.1362C32.4566 13.3617 32.4566 10.4546 30.6821 8.68007C28.9076 6.90557 26.0005 6.90557 24.226 8.68007L16.8865 16.1246L16.8718 16.1519V11.7748C16.8718 9.26317 14.818 7.20935 12.3064 7.20935C9.79477 7.20935 7.74097 9.26317 7.74097 11.7748V27.0501C7.74097 28.3052 8.25337 29.4463 9.08147 30.2737L9.07237 30.2898C10.8469 32.0643 13.754 32.0643 15.5285 30.2898L19.9581 25.8601L24.4542 30.4129C26.2287 32.1874 29.1358 32.1874 30.9103 30.4129C32.6848 28.6384 32.6848 25.7313 30.9103 23.9569V23.9576ZM12.3064 7.89817C14.4232 7.89817 16.1403 9.61528 16.1403 11.7321C16.1403 13.8489 14.4232 15.566 12.3064 15.566C10.1896 15.566 8.47247 13.8489 8.47247 11.7321C8.47247 9.61528 10.1896 7.89817 12.3064 7.89817ZM12.3337 30.8848C10.2309 30.8848 8.52497 29.181 8.52497 27.0761C8.52497 24.9712 10.2288 23.2674 12.3337 23.2674C14.4386 23.2674 16.1424 24.9712 16.1424 27.0761C16.1424 29.181 14.4386 30.8848 12.3337 30.8848ZM23.6107 11.564C23.7612 9.45215 25.5952 7.86245 27.7071 8.01295C29.819 8.16345 31.4087 9.99745 31.2582 12.1094C31.1077 14.2206 29.2737 15.8109 27.1618 15.6604C25.0499 15.5099 23.4602 13.6759 23.6107 11.564ZM27.9129 31.1221C25.7471 31.2432 23.8907 29.5863 23.7696 27.4184C23.6485 25.2526 25.3054 23.3962 27.4733 23.2751C29.6412 23.154 31.4955 24.8109 31.6166 26.9788C31.7377 29.1467 30.0808 31.001 27.9129 31.1221Z" fill="#4E56EA"/>
</g>
<defs>
<clipPath id="clip0_681_8218">
<rect width="28" height="28" fill="white" transform="translate(6 6)"/>
</clipPath>
</defs>
</svg>
