<svg width="40" height="40" viewBox="0 0 40 40" fill="none" xmlns="http://www.w3.org/2000/svg">
<path d="M0 8C0 3.58172 3.58172 0 8 0H32C36.4183 0 40 3.58172 40 8V32C40 36.4183 36.4183 40 32 40H8C3.58172 40 0 36.4183 0 32V8Z" fill="url(#paint0_linear_681_188)"/>
<path d="M32.2415 6.15323C12.4847 6.15323 9.05886 25.5243 7.74146 33.4273H9.37526C9.81276 30.5279 12.7773 19.0619 19.9915 13.6663C19.9915 13.6663 14.5042 20.4619 13.59 28.3271C16.9276 27.6915 27.0762 25.042 29.2301 15.7348L25.4886 15.1419C26.806 13.8245 30.271 10.1054 32.2408 6.15393L32.2415 6.15323Z" fill="white"/>
<defs>
<linearGradient id="paint0_linear_681_188" x1="20.7019" y1="0.350877" x2="20.7019" y2="31.2281" gradientUnits="userSpaceOnUse">
<stop offset="0.075" stop-color="#798DA1"/>
<stop offset="0.575" stop-color="#607890"/>
</linearGradient>
</defs>
</svg>
