<svg width="64" height="48" viewBox="0 0 64 48" fill="none" xmlns="http://www.w3.org/2000/svg">
<rect width="64" height="48" fill="#E5E9ED"/>
<path d="M39.2819 22.1101L32.2819 17.4434C32.0594 17.2969 31.771 17.2969 31.5485 17.4434L24.5819 22.1101C24.3138 22.326 24.2542 22.7105 24.4443 22.9975C24.6345 23.2844 25.0119 23.3794 25.3152 23.2167L25.9152 22.7967V30.3301C25.9152 30.6982 26.2137 30.9967 26.5819 30.9967H37.2485C37.6167 30.9967 37.9152 30.6982 37.9152 30.3301V22.7967L38.5485 23.2167C38.6559 23.2919 38.7841 23.3316 38.9152 23.3301C39.2076 23.3278 39.4644 23.1353 39.5485 22.8553C39.6327 22.5753 39.5246 22.2731 39.2819 22.1101ZM36.5819 29.6634H27.2485V21.9101L31.9152 18.7967L36.5819 21.9101V29.6634Z" fill="#9FAEBC"/>
</svg>
