<svg width="16" height="16" viewBox="0 0 16 16" fill="none" xmlns="http://www.w3.org/2000/svg">
<g id="Icon">
<path id="Vector" d="M15.2818 6.1099L8.28175 1.44323C8.05926 1.29671 7.77091 1.29671 7.54842 1.44323L0.581751 6.1099C0.313668 6.32584 0.254076 6.71038 0.444226 6.99734C0.634375 7.28429 1.01173 7.37929 1.31508 7.21657L1.91508 6.79657V14.3299C1.91508 14.6981 2.21356 14.9966 2.58175 14.9966H13.2484C13.6166 14.9966 13.9151 14.6981 13.9151 14.3299V6.79657L14.5484 7.21657C14.6558 7.29176 14.784 7.3314 14.9151 7.3299C15.2075 7.32764 15.4642 7.13515 15.5484 6.85514C15.6325 6.57513 15.5244 6.27297 15.2818 6.1099ZM12.5818 13.6632H3.24842V5.9099L7.91508 2.79657L12.5818 5.9099V13.6632Z" fill="#9FAEBC"/>
</g>
</svg>
