<svg xmlns="http://www.w3.org/2000/svg" width="24" height="24" viewBox="0 0 24 24" fill="currentColor"><path fill-rule="evenodd" d="M14.75 13A2.75 2.75 0 0 0 12 10.25H5A2.75 2.75 0 0 0 2.25 13v7A2.75 2.75 0 0 0 5 22.75h7A2.75 2.75 0 0 0 14.75 20zm-1.5 7c0 .69-.56 1.25-1.25 1.25H5c-.69 0-1.25-.56-1.25-1.25v-7c0-.69.56-1.25 1.25-1.25h7c.69 0 1.25.56 1.25 1.25z" clip-rule="evenodd"/><path d="M21.75 9A4.75 4.75 0 0 0 17 4.25h-4.19l1.72-1.72a.75.75 0 1 0-1.06-1.06l-3 3a.7.7 0 0 0-.118.16q-.025.041-.044.084-.02.048-.03.098-.007.02-.012.04-.002.007-.003.016a.8.8 0 0 0 0 .265l.003.016q.005.02.011.04.012.05.03.098.02.044.045.083.047.087.118.16l3 3a.75.75 0 1 0 1.06-1.06l-1.72-1.72H17A3.25 3.25 0 0 1 20.25 9v4a.75.75 0 1 0 1.5 0z"/></svg>