<svg xmlns="http://www.w3.org/2000/svg" width="24" height="24" fill="currentColor" viewBox="0 0 24 24">
  <path fill-rule="evenodd" d="M20.45 2h-17C2.1 2 1 3.1 1 4.45v2c0 .81.4 1.52 1 1.97v10.53c0 .78.31 1.53.86 2.09.55.55 1.3.86 2.09.86h14c.78 0 1.53-.31 2.09-.86.56-.55.86-1.3.86-2.09V8.42c.6-.45 1-1.16 1-1.97v-2C22.9 3.1 21.8 2 20.45 2ZM2.9 4.45c0-.3.25-.55.55-.55h17c.3 0 .55.25.55.55v2c0 .3-.25.55-.55.55h-17c-.3 0-.55-.25-.55-.55v-2Zm6 4.45H15v2.05s0 .03-.01.04c-.01.01-.02.01-.04.01h-6s-.03 0-.04-.01c0 0-.01-.02-.01-.04V8.9Zm10.79 10.79c-.2.2-.46.31-.74.31h-14c-.28 0-.55-.11-.74-.31-.2-.2-.31-.46-.31-.74V8.9H7v2.05c0 .52.21 1.01.57 1.38.37.37.86.57 1.38.57h6c.52 0 1.01-.21 1.38-.57.37-.36.57-.86.57-1.38V8.9H20v10.05c0 .28-.11.55-.31.74Z" clip-rule="evenodd"/>
</svg>
