<svg xmlns="http://www.w3.org/2000/svg" width="24" height="24" fill="currentColor" viewBox="0 0 24 24">
  <path d="M14.315 9.796a2 2 0 1 1 2.827-2.829 2 2 0 0 1-2.827 2.83Z"/>
  <path fill-rule="evenodd" d="M20.933 2.469a1 1 0 0 1 .71.71 11.25 11.25 0 0 1-2.81 11.15 18.713 18.713 0 0 1-2.6 2.11 20.31 20.31 0 0 1-2.51 5.25 1 1 0 0 1-.74.42h-.08a1 1 0 0 1-.71-.29l-9.9-9.9a1 1 0 0 1-.29-.79 1 1 0 0 1 .42-.74 20.31 20.31 0 0 1 5.25-2.51 18.71 18.71 0 0 1 2.11-2.6 11.25 11.25 0 0 1 11.15-2.81Zm-10.51 14.78a21.999 21.999 0 0 0 7-4.34 9.09 9.09 0 0 0 2.43-8.67 9.09 9.09 0 0 0-8.65 2.43 22 22 0 0 0-4.34 7l3.56 3.58Z" clip-rule="evenodd"/>
  <path d="M7.243 19.729a4 4 0 0 1-3.86 1 4 4 0 0 1 1.03-3.86l2.83 2.86Z"/>
</svg>
