<svg xmlns="http://www.w3.org/2000/svg" width="24" height="24" fill="currentColor" viewBox="0 0 24 24">
  <path fill-rule="evenodd" d="M20.22 3.778a9.5 9.5 0 0 0-13.436.01 9.374 9.374 0 0 0-1.316 1.68 9.05 9.05 0 0 0-1.68 1.314 9.492 9.492 0 0 0 0 13.44c3.707 3.704 9.728 3.704 13.445 0a9.245 9.245 0 0 0 1.335-1.71 9.17 9.17 0 0 0 1.652-1.296c3.707-3.705 3.707-9.714 0-13.429v-.01Zm-3.054 13.688-.125.202c-.298.47-.644.921-1.047 1.324-3.044 3.034-7.971 3.034-11.006 0a7.767 7.767 0 0 1 0-11c.461-.461.97-.855 1.517-1.171 2.978-1.767 6.906-1.383 9.47 1.18 2.564 2.563 2.948 6.48 1.171 9.465h.02Zm2.718-2.553a9.502 9.502 0 0 0-.337-4.31v-.01a8.24 8.24 0 0 0-.393-1.017v-.01a10.422 10.422 0 0 0-.51-.97.2.2 0 0 0-.038-.057 10.651 10.651 0 0 0-.547-.797c-.048-.057-.087-.115-.135-.173a9.004 9.004 0 0 0-.7-.787s-.02-.01-.03-.019c-.23-.23-.48-.441-.73-.653a2.891 2.891 0 0 0-.278-.21 6.089 6.089 0 0 0-.576-.394c-.096-.058-.192-.125-.288-.183-.26-.153-.519-.288-.778-.413-.135-.067-.279-.124-.423-.182l-.451-.173c-.163-.057-.317-.115-.48-.163-.135-.038-.27-.067-.413-.106a10.42 10.42 0 0 0-.922-.182c-.116-.02-.221-.029-.336-.048a11.66 11.66 0 0 0-.586-.048h-.288c-.413 0-.826.01-1.24.058-.038 0-.076 0-.114.01-.077.009-.164.009-.24.019a7.778 7.778 0 0 1 9.93.883 7.782 7.782 0 0 1 .893 9.925l.01.01Z" clip-rule="evenodd"/>
  <path fill-rule="evenodd" d="M9.646 10.046h1.575c.71 0 1.296.586 1.296 1.296 0 .48.385.864.865.864a.86.86 0 0 0 .864-.864c0-1.622-1.287-2.937-2.89-3.014v-.586a.86.86 0 0 0-.865-.864.86.86 0 0 0-.864.864v.576a2.889 2.889 0 0 0-2.872 2.89c0 1.305.884 2.476 2.18 2.793l2.699.672c.509.124.874.585.874 1.123a1.16 1.16 0 0 1-1.162 1.161H9.77c-.71 0-1.297-.585-1.297-1.296a.86.86 0 0 0-.864-.864.86.86 0 0 0-.864.864 3.011 3.011 0 0 0 2.88 3.005v.595c0 .48.385.864.865.864a.86.86 0 0 0 .864-.864v-.576a2.885 2.885 0 0 0 2.881-2.89 2.877 2.877 0 0 0-2.18-2.793l-2.698-.671a1.145 1.145 0 0 1-.865-1.123 1.16 1.16 0 0 1 1.162-1.162h-.01Z" clip-rule="evenodd"/>
</svg>
