<svg xmlns="http://www.w3.org/2000/svg" width="24" height="24" fill="currentColor" viewBox="0 0 24 24">
  <path d="M16.44 2H7.56C5.04 2 3 4.01 3 6.47v12.68c0 1.12.45 2.04 1.24 2.51.81.48 1.85.44 2.88-.11l4.5-2.44c.18-.1.59-.1.77 0l4.49 2.44c.55.3 1.11.45 1.63.45.45 0 .87-.11 1.24-.33.79-.47 1.25-1.39 1.25-2.52V6.47C20.99 4.01 18.94 2 16.44 2ZM19 19.15c0 .39-.1.7-.27.8-.18.11-.52.05-.9-.16l-4.49-2.43c-.39-.22-.87-.32-1.34-.32-.47 0-.95.11-1.34.32L6.17 19.8c-.37.2-.72.26-.9.15-.17-.1-.27-.4-.27-.79V6.47C5 5.11 6.15 4 7.56 4h8.88C17.85 4 19 5.11 19 6.47v12.68Z"/>
</svg>
