<svg xmlns="http://www.w3.org/2000/svg" width="24" height="24" fill="currentColor" viewBox="0 0 24 24">
  <path d="M6.5 15.5a2 2 0 1 0 0-4 2 2 0 0 0 0 4Zm13-2a2 2 0 1 1-4 0 2 2 0 0 1 4 0Z"/>
  <path fill-rule="evenodd" d="M21 8h-.28l-1.09-3.27A4 4 0 0 0 15.84 2H8.16a4 4 0 0 0-3.79 2.74L3.28 8H3a2 2 0 0 0-2 2v7a2 2 0 0 0 2 2v1a2 2 0 0 0 2 2h1a2 2 0 0 0 2-2v-1h8v1a2 2 0 0 0 2 2h1a2 2 0 0 0 2-2v-1a2 2 0 0 0 2-2v-7a2 2 0 0 0-2-2ZM6.26 5.37A2 2 0 0 1 8.16 4h7.68a2 2 0 0 1 1.9 1.37L18.61 8H5.39l.87-2.63ZM6 20H5v-1h1v1Zm13 0h-1v-1h1v1ZM3 17v-7h18v7H3Z" clip-rule="evenodd"/>
</svg>
