<svg xmlns="http://www.w3.org/2000/svg" width="24" height="24" fill="currentColor" viewBox="0 0 24 24">
  <path fill-rule="evenodd" d="M1 12C1 5.925 5.925 1 12 1a11 11 0 0 1 11 11c0 6.075-4.925 11-11 11S1 18.075 1 12Zm20 0a9 9 0 1 0-18 0 9 9 0 0 0 18 0Z" clip-rule="evenodd"/>
  <path d="m8.45 11.65 2.15 2.15 4.95-4.95a.948.948 0 0 1 .7-.275.95.95 0 0 1 .7.275.948.948 0 0 1 .275.7.948.948 0 0 1-.275.7L11.3 15.9c-.2.2-.433.3-.7.3a.96.96 0 0 1-.7-.3l-2.85-2.85a.948.948 0 0 1-.275-.7c0-.283.092-.516.275-.7a.948.948 0 0 1 .7-.275.95.95 0 0 1 .7.275Z"/>
</svg>
