<svg xmlns="http://www.w3.org/2000/svg" width="24" height="24" fill="currentColor" viewBox="0 0 24 24">
  <path d="M4.393 14.508a.9.9 0 0 1 0 1.791l-.092.005H3.5a1.6 1.6 0 0 0-1.6 1.6V19l-.004.093a.9.9 0 0 1-1.792 0L.1 19v-1.096a3.4 3.4 0 0 1 3.4-3.4h.8l.093.005Zm9.446-1.509a4.4 4.4 0 0 1 4.4 4.4V19a.9.9 0 0 1-1.8 0v-1.6a2.6 2.6 0 0 0-2.6-2.6H10.16a2.6 2.6 0 0 0-2.6 2.6V19a.9.9 0 0 1-1.8 0v-1.6a4.4 4.4 0 0 1 4.4-4.4h3.679Zm6.661 1.505a3.4 3.4 0 0 1 3.4 3.4V19a.9.9 0 0 1-1.8 0v-1.096a1.6 1.6 0 0 0-1.6-1.6h-.8a.9.9 0 0 1 0-1.8h.8Z"/>
  <path fill-rule="evenodd" d="M2.68 8.784a2.923 2.923 0 0 1 4.025.103l.104.11a2.923 2.923 0 0 1 0 3.915l-.104.11a2.923 2.923 0 0 1-4.024.103l-.11-.104a2.923 2.923 0 0 1 0-4.134l.11-.103Zm2.753 1.376a1.124 1.124 0 0 0-1.503-.077l-.086.077a1.124 1.124 0 0 0 0 1.589l.086.077c.44.36 1.092.334 1.503-.077l.077-.086a1.124 1.124 0 0 0 0-1.417l-.077-.086Zm11.971-1.376a2.923 2.923 0 0 1 4.025.103l.103.11a2.923 2.923 0 0 1 0 3.915l-.103.11a2.923 2.923 0 0 1-4.025.103l-.11-.104a2.924 2.924 0 0 1 0-4.134l.11-.103Zm2.752 1.376a1.124 1.124 0 0 0-1.503-.077l-.086.077a1.124 1.124 0 0 0 0 1.589l.086.077c.441.36 1.092.333 1.503-.077l.077-.086a1.124 1.124 0 0 0 0-1.417l-.077-.086ZM9.31 5.133a4.015 4.015 0 0 1 5.529.143l.142.15a4.016 4.016 0 0 1 0 5.378l-.142.15a4.015 4.015 0 0 1-5.528.142l-.15-.142a4.015 4.015 0 0 1 0-5.678l.15-.143Zm4.256 1.416a2.216 2.216 0 0 0-2.964-.153l-.168.153a2.216 2.216 0 0 0 0 3.132l.168.152c.87.71 2.153.66 2.964-.152l.152-.169a2.216 2.216 0 0 0 0-2.795l-.152-.168Z" clip-rule="evenodd"/>
</svg>
