<svg xmlns="http://www.w3.org/2000/svg" width="24" height="24" fill="currentColor" viewBox="0 0 24 24">
  <path d="M14.922 21.203c-1.978 0-3.741-.55-5.289-1.648-1.547-1.1-2.643-2.55-3.288-4.352H3.97c-.32 0-.59-.11-.808-.33-.22-.22-.33-.488-.33-.807 0-.32.11-.59.33-.809a1.1 1.1 0 0 1 .808-.329h1.9a6.6 6.6 0 0 1-.056-1.02c.008-.323.027-.602.057-.836h-1.9c-.32 0-.59-.11-.81-.33a1.102 1.102 0 0 1-.328-.808c0-.319.11-.588.329-.808.22-.22.489-.33.808-.33h2.375a9.19 9.19 0 0 1 3.297-4.324c1.542-1.117 3.302-1.675 5.28-1.675.999 0 1.945.148 2.84.443a9.499 9.499 0 0 1 2.504 1.26.94.94 0 0 1 .414.744.95.95 0 0 1-.314.786 1.18 1.18 0 0 1-.824.357 1.53 1.53 0 0 1-.886-.24 6.95 6.95 0 0 0-3.734-1.075c-1.34 0-2.55.348-3.63 1.043-1.077.697-1.888 1.59-2.432 2.682h5.11c.32 0 .59.11.808.33.22.22.33.488.33.807 0 .32-.11.59-.33.808a1.1 1.1 0 0 1-.808.33H8.165a6 6 0 0 0 0 1.856h5.805c.32 0 .59.11.808.33.22.22.33.49.33.808 0 .319-.11.588-.33.808a1.1 1.1 0 0 1-.808.33H8.83a6.64 6.64 0 0 0 2.46 2.704c1.08.68 2.29 1.02 3.632 1.02.684 0 1.34-.097 1.97-.29a7.3 7.3 0 0 0 1.765-.81c.27-.17.564-.247.885-.228.321.019.596.142.824.37a.94.94 0 0 1 .314.783.94.94 0 0 1-.414.74 9.397 9.397 0 0 1-2.503 1.267 9 9 0 0 1-2.84.443"/>
</svg>
