<svg xmlns="http://www.w3.org/2000/svg" width="24" height="24" fill="currentColor" viewBox="0 0 24 24">
  <path d="m12 18.1 2.325-2.325c.2-.2.442-.3.725-.3s.525.1.725.3c.2.2.3.442.3.725s-.1.525-.3.725L12.7 20.3c-.1.1-.208.17-.325.212a1.105 1.105 0 0 1-.375.063c-.133 0-.258-.02-.375-.063a.878.878 0 0 1-.325-.212l-3.075-3.075c-.2-.2-.3-.442-.3-.725s.1-.525.3-.725c.2-.2.442-.3.725-.3s.525.1.725.3L12 18.1ZM12 6 9.675 8.325c-.2.2-.442.3-.725.3a.988.988 0 0 1-.725-.3c-.2-.2-.3-.442-.3-.725s.1-.525.3-.725L11.3 3.8c.1-.1.208-.17.325-.213.117-.041.242-.062.375-.062s.258.02.375.062a.877.877 0 0 1 .325.213l3.075 3.075c.2.2.3.442.3.725s-.1.525-.3.725c-.2.2-.442.3-.725.3a.988.988 0 0 1-.725-.3L12 6Z"/>
</svg>
