<svg xmlns="http://www.w3.org/2000/svg" width="24" height="24" fill="currentColor" viewBox="0 0 24 24">
  <path d="M11.994 20.504c-.27 0-.54-.049-.81-.146a2 2 0 0 1-.725-.457l-1.737-1.586a65.01 65.01 0 0 1-4.782-4.816C2.511 11.893 1.797 10.11 1.797 8.15c0-1.625.543-2.983 1.63-4.073C4.51 2.986 5.866 2.44 7.493 2.44a5.89 5.89 0 0 1 2.482.535 6.04 6.04 0 0 1 2.018 1.487 6.1 6.1 0 0 1 2.018-1.487 5.9 5.9 0 0 1 2.482-.535c1.628 0 2.988.545 4.08 1.635 1.09 1.09 1.636 2.448 1.635 4.074 0 1.96-.713 3.747-2.14 5.362a58.994 58.994 0 0 1-4.828 4.834l-1.706 1.561a1.9 1.9 0 0 1-.727.454 2.501 2.501 0 0 1-.814.144ZM11.002 6.78c-.46-.66-.968-1.169-1.523-1.527-.556-.358-1.217-.537-1.983-.537-.979 0-1.794.326-2.446.979-.652.652-.978 1.47-.978 2.455 0 .86.305 1.772.916 2.738.61.967 1.34 1.904 2.19 2.812.85.91 1.726 1.76 2.625 2.553.9.793 1.63 1.446 2.191 1.957.725-.662 1.457-1.317 2.196-1.964a37.974 37.974 0 0 0 2.63-2.55 18.994 18.994 0 0 0 2.195-2.807c.613-.963.92-1.877.92-2.74 0-.983-.327-1.801-.983-2.454-.655-.653-1.473-.98-2.455-.98-.77 0-1.431.18-1.985.538-.553.359-1.06.868-1.52 1.527a1.2 1.2 0 0 1-.444.402 1.197 1.197 0 0 1-1.546-.402Z"/>
</svg>
