<svg xmlns="http://www.w3.org/2000/svg" width="24" height="24" fill="currentColor" viewBox="0 0 24 24">
  <path fill-rule="evenodd" d="M5 3h14a2 2 0 0 1 2 2v14a2 2 0 0 1-2 2H5a2 2 0 0 1-2-2V5a2 2 0 0 1 2-2Zm4.945 8.942h1.675a2.175 2.175 0 0 0 1.481-.442 1.64 1.64 0 0 0 .5-1.293c0-1.1-.639-1.651-1.919-1.651H9.945v3.386Zm2.023-4.933a4.13 4.13 0 0 1 2.735.802 2.868 2.868 0 0 1 .953 2.322 3.231 3.231 0 0 1-.47 1.735 3.139 3.139 0 0 1-1.333 1.178 4.528 4.528 0 0 1-2.006.422h-1.9V17H8V7.01h3.968Z" clip-rule="evenodd"/>
</svg>
