<svg xmlns="http://www.w3.org/2000/svg" width="24" height="24" fill="currentColor" viewBox="0 0 24 24">
  <path d="M3.09 19.6c.31 0 .57-.104.777-.312.208-.207.312-.467.312-.778v-3.96c0-.928.322-1.712.967-2.351.645-.64 1.426-.96 2.344-.96h10.803l-3.234 3.234a.974.974 0 0 0-.29.737c.005.293.11.547.317.764.217.217.474.325.772.325.298 0 .555-.108.772-.325l5.06-5.06a1 1 0 0 0 .24-.36c.047-.129.07-.263.07-.404 0-.141-.023-.276-.07-.404a1 1 0 0 0-.24-.36l-5.088-5.088A1.01 1.01 0 0 0 15.858 4c-.298 0-.555.108-.772.325a1.046 1.046 0 0 0-.325.764c0 .293.108.548.325.764l3.207 3.207H7.49c-1.513 0-2.807.532-3.88 1.597C2.537 11.72 2 13.019 2 14.55v3.96c0 .311.104.57.311.778.208.208.467.312.778.312Z"/>
</svg>
