<svg xmlns="http://www.w3.org/2000/svg" width="24" height="24" fill="currentColor" viewBox="0 0 24 24">
  <path fill-rule="evenodd" d="M15.808 12.143a1.791 1.791 0 0 1 2.366-.008l4.35 3.76a.8.8 0 0 1-.665 1.391v3.204c0 .992-.808 1.8-1.8 1.8h-6.05a1.796 1.796 0 0 1-1.799-1.8v-3.232a.798.798 0 0 1-.742-1.374l4.34-3.741Zm1.318 1.2a.191.191 0 0 0-.253-.006l-.01.009-3.053 2.631v4.513c0 .113.087.2.2.2h6.05c.108 0 .2-.092.2-.2v-4.438l-3.133-2.707-.001-.001Z" clip-rule="evenodd"/>
  <path d="M16 1.2c3.2 0 5.8 2.587 5.8 5.8v4a.8.8 0 1 1-1.6 0V7c0-2.327-1.88-4.2-4.2-4.2H8A4.19 4.19 0 0 0 3.8 7v8c0 2.32 1.873 4.2 4.2 4.2h2l.082.004a.8.8 0 0 1 0 1.592L10 20.8H8A5.795 5.795 0 0 1 2.2 15V7c0-3.212 2.588-5.8 5.8-5.8h8Z"/>
  <path d="M9.268 11.024a.8.8 0 0 1 1.007 1.24l-1.83 1.65a.8.8 0 0 1-.95.09l-.121-.09-.91-.82-.058-.058a.8.8 0 0 1 1.13-1.13l.373.336 1.295-1.166.064-.052Zm0-4.994a.8.8 0 0 1 1.007 1.239l-1.83 1.65a.8.8 0 0 1-.95.09l-.121-.09-.91-.82-.058-.058a.8.8 0 0 1 1.13-1.13l.373.336 1.295-1.166.064-.052Zm7.814 1.174a.8.8 0 0 1 0 1.592L17 8.8h-4a.8.8 0 1 1 0-1.6h4l.082.004Z"/>
</svg>
