<svg xmlns="http://www.w3.org/2000/svg" width="24" height="24" fill="currentColor" viewBox="0 0 24 24">
  <path d="M8.11 14.29a1 1 0 0 1 1.41 0l1.42 1.42 3.54-3.54a1 1 0 1 1 1.41 1.42l-4.24 4.24a1 1 0 0 1-1.42 0l-2.12-2.12a1 1 0 0 1 0-1.42Z"/>
  <path fill-rule="evenodd" d="M18 4h1a3 3 0 0 1 3 3v12a3 3 0 0 1-3 3H5a3 3 0 0 1-3-3V7a3 3 0 0 1 3-3h1V3a1 1 0 0 1 2 0v1h8V3a1 1 0 1 1 2 0v1Zm1 16a1 1 0 0 0 1-1v-9H4v9a1 1 0 0 0 1 1h14ZM4 8h16V7a1 1 0 0 0-1-1H5a1 1 0 0 0-1 1v1Z" clip-rule="evenodd"/>
</svg>
