<svg xmlns="http://www.w3.org/2000/svg" width="24" height="24" fill="currentColor" viewBox="0 0 24 24">
  <path d="M5.862 8.999a.901.901 0 0 1 1.292 0 .944.944 0 0 1 0 1.316.902.902 0 0 1-.61.306.905.905 0 0 1-.345-.074.828.828 0 0 1-.491-.5.953.953 0 0 1-.073-.353.938.938 0 0 1 .227-.695Zm.255 4.326a.949.949 0 0 1 1.026.196.92.92 0 0 1 .005 1.314l-.005.006a.944.944 0 0 1-.631.306.96.96 0 0 1-.358-.074.886.886 0 0 1-.31-.195.922.922 0 0 1-.038-1.357.872.872 0 0 1 .31-.196Zm3.325-4.329A.904.904 0 0 1 10.735 9a.94.94 0 0 1-.005 1.314c-.17.17-.4.267-.639.269l.037.037a.912.912 0 0 1-.347-.074 1.062 1.062 0 0 1-.302-.195.933.933 0 0 1-.192-.307.952.952 0 0 1-.073-.353.938.938 0 0 1 .228-.696Zm3.985-.196a.897.897 0 0 1 .993.194.939.939 0 0 1 .191 1.014.936.936 0 0 1-.191.306.951.951 0 0 1-.61.307.906.906 0 0 1-.347-.074 1.059 1.059 0 0 1-.3-.196.935.935 0 0 1-.192-.306.956.956 0 0 1-.073-.354.941.941 0 0 1 .228-.697c.088-.081.19-.147.3-.195Zm3.423.213a.963.963 0 0 1 1.351-.019.924.924 0 0 1 .273.66.93.93 0 0 1-.076.354.842.842 0 0 1-.506.501.944.944 0 0 1-.357.112.943.943 0 0 1-.667-.27.94.94 0 0 1-.018-1.338Zm.246 4.312a.909.909 0 0 1 1 .196c.36.361.363.95.006 1.314a.913.913 0 0 1-.657.275l.037.037a.917.917 0 0 1-.349-.074.922.922 0 0 1-.303-.195l-.11-.14a.706.706 0 0 1-.082-.167.597.597 0 0 1-.056-.167 1.254 1.254 0 0 1 0-.186.984.984 0 0 1 .212-.697.92.92 0 0 1 .302-.196Zm-6.868.033h3.65c.503 0 .912.4.912.895a.904.904 0 0 1-.913.894h-3.649a.904.904 0 0 1-.912-.894c0-.494.408-.895.912-.895Z"/>
  <path fill-rule="evenodd" d="M3.75 4.2h16.5A2.75 2.75 0 0 1 23 6.95v10.08a2.75 2.75 0 0 1-2.75 2.749H3.75A2.75 2.75 0 0 1 1 17.029V6.95A2.75 2.75 0 0 1 3.75 4.2Zm16.5 13.746c.506 0 .917-.41.917-.916V6.95a.917.917 0 0 0-.917-.917H3.75a.917.917 0 0 0-.917.916v10.08c0 .506.411.917.917.917h16.5Z" clip-rule="evenodd"/>
</svg>
