<svg xmlns="http://www.w3.org/2000/svg" width="24" height="24" fill="currentColor" viewBox="0 0 24 24">
  <path d="M19.491 4.5a5.153 5.153 0 0 0-7.267 0l-2.177 2.176a1.032 1.032 0 0 0 0 1.457 1.032 1.032 0 0 0 1.458 0l2.176-2.176a3.084 3.084 0 1 1 4.363 4.362l-2.177 2.176a1.032 1.032 0 0 0 0 1.458c.196.196.467.299.729.299.261 0 .523-.103.728-.3l2.177-2.176c1.999-1.999 1.999-5.259 0-7.267l-.01-.01Z"/>
  <path d="M7.87 14.672a1.02 1.02 0 0 0 .73 1.747c.261 0 .523-.103.728-.299l5.81-5.81a1.032 1.032 0 0 0 0-1.457 1.02 1.02 0 0 0-1.448 0l-5.82 5.82Z"/>
  <path d="m9.319 19.025 2.176-2.176h-.009a1.032 1.032 0 0 1 1.457 0 1.02 1.02 0 0 1 0 1.447l-2.176 2.177c-1 1-2.317 1.504-3.634 1.504a5.128 5.128 0 0 1-3.634-1.504c-1.999-2.008-1.999-5.268 0-7.268l2.177-2.176a1.032 1.032 0 0 1 1.457 1.457l-2.176 2.177a3.084 3.084 0 1 0 4.362 4.362Z"/>
</svg>
