<svg xmlns="http://www.w3.org/2000/svg" width="24" height="24" fill="currentColor" viewBox="0 0 24 24">
  <path d="M10.91 23.191v-2c-2.095-.237-3.902-1.117-5.422-2.641-1.52-1.524-2.397-3.327-2.63-5.41h-2v-2.18h2C3.096 8.865 3.977 7.058 5.5 5.538c1.523-1.52 3.327-2.397 5.41-2.63v-2h2.18v2c2.083.233 3.887 1.11 5.41 2.63 1.523 1.52 2.404 3.327 2.64 5.422h2v2.18h-2c-.232 2.083-1.109 3.886-2.628 5.41-1.52 1.524-3.327 2.404-5.422 2.641v2h-2.18ZM12 18.978c1.917 0 3.55-.675 4.902-2.026 1.35-1.35 2.026-2.985 2.026-4.902 0-1.917-.675-3.551-2.026-4.902-1.35-1.35-2.985-2.026-4.902-2.026-1.917 0-3.55.675-4.902 2.026-1.35 1.35-2.025 2.985-2.026 4.902 0 1.917.675 3.551 2.026 4.902 1.35 1.35 2.985 2.026 4.902 2.026Z"/>
</svg>
