<svg xmlns="http://www.w3.org/2000/svg" width="24" height="24" fill="currentColor" viewBox="0 0 24 24">
  <path fill-rule="evenodd" d="M18.599 2.104A3.473 3.473 0 0 1 21.9 5.571v8.857l-.005.17a3.47 3.47 0 0 1-3.295 3.297l-.171.005h-3.41l.275 2.2h.562l.092.005a.9.9 0 0 1 0 1.79l-.092.005H8.143a.901.901 0 0 1 0-1.8h.563l.274-2.2H5.571A3.473 3.473 0 0 1 2.1 14.43V5.57A3.473 3.473 0 0 1 5.57 2.1h12.857l.17.004ZM10.519 20.1h2.961l-.274-2.2h-2.412l-.274 2.2ZM3.9 14.429a1.671 1.671 0 0 0 1.671 1.67H18.43l.164-.007a1.672 1.672 0 0 0 1.507-1.663V13.9H3.9v.529ZM5.571 3.9a1.671 1.671 0 0 0-1.67 1.671V12.1H20.1V5.57a1.673 1.673 0 0 0-1.032-1.544 1.673 1.673 0 0 0-.64-.127H5.572Z" clip-rule="evenodd"/>
</svg>
