<svg xmlns="http://www.w3.org/2000/svg" width="24" height="24" fill="currentColor" viewBox="0 0 24 24">
  <path d="m14 1.1.094.005.133.024.134.047.11.057.06.04.064.052 6.08 6.08.073.094.036.06.05.103.026.072.02.08c.014.06.02.123.02.186v12a2.9 2.9 0 0 1-2.9 2.9H6A2.9 2.9 0 0 1 3.1 20V4A2.9 2.9 0 0 1 6 1.1h8Zm-.9 1.8H6A1.1 1.1 0 0 0 4.9 4v16A1.1 1.1 0 0 0 6 21.1h12a1.1 1.1 0 0 0 1.1-1.1V8.9H14a.9.9 0 0 1-.9-.9V2.9ZM16 16.1a.9.9 0 1 1 0 1.8H8a.9.9 0 1 1 0-1.8h8Zm0-4a.9.9 0 1 1 0 1.8H8a.9.9 0 1 1 0-1.8h8Zm-6-4a.9.9 0 1 1 0 1.8H8a.9.9 0 0 1 0-1.8h2Zm4.9-3.928V7.1h2.928L14.9 4.172Z"/>
</svg>
