<svg xmlns="http://www.w3.org/2000/svg" width="24" height="24" fill="currentColor" viewBox="0 0 24 24">
  <path d="M12.248 13.006A5 5 0 0 1 17 18v2a1 1 0 1 1-2 0v-2a3 3 0 0 0-2.703-2.985L12 15H7a3 3 0 0 0-3 3v2a1 1 0 1 1-2 0v-2a5 5 0 0 1 5-5h5l.248.006ZM18 13a4 4 0 0 1 4 4v3a1 1 0 1 1-2 0v-3a2 2 0 0 0-2-2 1 1 0 1 1 0-2Z"/>
  <path fill-rule="evenodd" d="M9.442 3.001a4.168 4.168 0 0 1 4.2 4.1v.022a4.338 4.338 0 0 1-3.97 4.293l-.207.013h-.073A4.337 4.337 0 0 1 5.22 7.332l-.006-.209v-.021A4.17 4.17 0 0 1 9.414 3h.029v.001ZM9.2 5.008a2.168 2.168 0 0 0-1.985 2.114 2.334 2.334 0 0 0 2.213 2.304 2.336 2.336 0 0 0 1.556-.704c.417-.43.652-1.002.659-1.6a2.166 2.166 0 0 0-1.985-2.114L9.443 5h-.03l-.214.008Z" clip-rule="evenodd"/>
  <path d="M15.405 3.003a4.167 4.167 0 0 1 4.023 4.099v.021a4.337 4.337 0 0 1-4.178 4.306 1.001 1.001 0 0 1-.072-2 2.337 2.337 0 0 0 2.249-2.315 2.166 2.166 0 0 0-1.984-2.106L15.23 5l-.102-.003A1.001 1.001 0 0 1 15.199 3l.206.003Z"/>
</svg>
