<svg xmlns="http://www.w3.org/2000/svg" width="24" height="24" fill="currentColor" viewBox="0 0 24 24">
  <path d="M8.48 12.69a11 11 0 0 1-1.28-2.54A3.5 3.5 0 0 0 9 9.29l-1-6a3.19 3.19 0 0 0-.83-.24A2.91 2.91 0 0 0 6.6 3 3.6 3.6 0 0 0 3 6.6a14.35 14.35 0 0 0 2.9 8.67l2.58-2.58Zm12.71-8.47a1 1 0 0 0-1.41 0L4.22 19.78a1 1 0 1 0 1.42 1.41l3.09-3.09A14.35 14.35 0 0 0 17.4 21a3.6 3.6 0 0 0 3.55-4.19 3.278 3.278 0 0 0-.25-.81l-6-1a3.49 3.49 0 0 0-.85 1.78 10.691 10.691 0 0 1-2.55-1.28l9.88-9.88a1 1 0 0 0 .01-1.4Z"/>
</svg>
