<svg xmlns="http://www.w3.org/2000/svg" width="24" height="24" fill="currentColor" viewBox="0 0 24 24">
  <path d="M6.988 21.203c-.32 0-.59-.11-.808-.33-.22-.22-.33-.488-.33-.807v-.462c0-.207.047-.395.14-.566.093-.17.219-.305.376-.404a5.1 5.1 0 0 0 1.517-1.512 3.7 3.7 0 0 0 .59-2.056 3.807 3.807 0 0 0-.112-.93H6.81a1.1 1.1 0 0 1-.81-.328c-.22-.22-.329-.49-.328-.808 0-.32.11-.59.33-.808.219-.22.488-.33.808-.33h.428a21.007 21.007 0 0 1-.94-1.704C6 9.555 5.85 8.814 5.85 7.934c0-1.573.547-2.906 1.64-3.998 1.092-1.093 2.425-1.64 3.998-1.64 1.06 0 2.014.252 2.864.756a5.8 5.8 0 0 1 2.034 2.01.79.79 0 0 1 .03.795 1.27 1.27 0 0 1-.632.603c-.282.116-.56.123-.834.02a1.56 1.56 0 0 1-.696-.52 3.501 3.501 0 0 0-1.192-1.01 3.34 3.34 0 0 0-1.574-.38c-.93 0-1.724.328-2.38.98-.655.654-.983 1.449-.983 2.384 0 .788.186 1.45.559 1.985.372.535.77 1.183 1.195 1.943h3.109c.32 0 .59.11.808.33.22.22.33.49.33.808 0 .319-.11.588-.33.808a1.1 1.1 0 0 1-.808.33h-2.314c.03.133.05.28.06.438.01.16.015.323.015.49 0 .793-.135 1.513-.404 2.16a6.6 6.6 0 0 1-1.018 1.702h4.66c.549 0 .998-.131 1.348-.394.35-.263.58-.63.69-1.1.07-.287.197-.53.382-.731.184-.201.427-.302.73-.302.32 0 .584.109.796.327.21.217.316.486.316.805 0 1.06-.467 1.937-1.401 2.63-.934.693-1.887 1.04-2.86 1.04h-7Z"/>
</svg>
