<svg xmlns="http://www.w3.org/2000/svg" width="24" height="24" fill="currentColor" viewBox="0 0 24 24">
  <path d="M12 13.175 4.575 19.05c-.333.233-.68.262-1.038.087-.358-.175-.537-.47-.537-.887 0-.167.038-.325.112-.475a.85.85 0 0 1 .313-.35l8.575-6.7 8.575 6.7c.133.083.238.2.313.35.074.15.112.308.112.475 0 .4-.18.692-.538.875-.358.183-.704.158-1.037-.075L12 13.175Zm0-5.95L4.575 13.1c-.333.233-.68.263-1.038.088C3.18 13.011 3 12.716 3 12.3c0-.167.038-.325.112-.475a.85.85 0 0 1 .313-.35L12 4.775l8.575 6.7c.133.083.238.2.313.35.074.15.112.308.112.475 0 .4-.18.692-.538.875-.358.183-.704.158-1.037-.075L12 7.225Z"/>
</svg>
