<svg xmlns="http://www.w3.org/2000/svg" width="24" height="24" fill="currentColor" viewBox="0 0 24 24">
  <path d="M10.813 16.62a1 1 0 0 1-.71-.295l-2.12-2.12a1 1 0 1 1 1.41-1.42l1.42 1.42 3.54-3.54a1 1 0 1 1 1.41 1.42l-4.24 4.24a1 1 0 0 1-.71.296Z"/>
  <path fill-rule="evenodd" d="m12.423 2.165 10.5 7a1 1 0 0 1-.55 1.83.94.94 0 0 1-.55-.17l-.95-.63v11.3a1 1 0 0 1-1 1h-16a1 1 0 0 1-1-1v-11.3l-.9.63a1 1 0 0 1-1.1-1.66l10.45-7a1 1 0 0 1 1.1 0Zm-7.55 18.33h14V8.865l-7-4.67-7 4.67v11.63Z" clip-rule="evenodd"/>
</svg>
