<svg xmlns="http://www.w3.org/2000/svg" width="24" height="24" fill="currentColor" viewBox="0 0 24 24">
  <path d="m6.936 15.893-4.652-4.629a.958.958 0 0 1-.216-.314.923.923 0 0 1-.068-.352c0-.123.023-.24.068-.352a.959.959 0 0 1 .216-.315L6.95 5.265A.92.92 0 0 1 7.616 5a.922.922 0 0 1 .69.279c.18.189.27.415.27.678 0 .263-.094.49-.283.678l-3.962 3.963 3.976 3.976c.182.182.272.4.271.654a.916.916 0 0 1-.285.665.926.926 0 0 1-.678.283.926.926 0 0 1-.679-.283Zm14.114 2.706a.92.92 0 0 1-.678-.272.92.92 0 0 1-.272-.678v-3.022c0-.905-.29-1.645-.867-2.219-.579-.573-1.316-.86-2.212-.86h-6.773l3.026 3.026c.182.182.269.4.26.654a.961.961 0 0 1-.297.665.926.926 0 0 1-.679.283.882.882 0 0 1-.664-.283l-4.63-4.629a.957.957 0 0 1-.214-.314.923.923 0 0 1-.069-.352c0-.123.023-.24.069-.352a.959.959 0 0 1 .215-.315l4.653-4.666A.92.92 0 0 1 12.584 5a.922.922 0 0 1 .69.279c.18.189.27.415.27.678 0 .263-.094.49-.283.678l-3.013 3.013h6.773c1.413 0 2.596.476 3.55 1.43.952.952 1.429 2.136 1.429 3.549v3.022a.92.92 0 0 1-.272.678.92.92 0 0 1-.678.272Z"/>
</svg>
