<svg xmlns="http://www.w3.org/2000/svg" width="24" height="24" fill="currentColor" viewBox="0 0 24 24">
  <path d="M20.91 19.6c-.31 0-.57-.104-.777-.312a1.056 1.056 0 0 1-.312-.778v-3.96c0-.928-.322-1.712-.967-2.351-.645-.64-1.426-.96-2.344-.96H5.707l3.234 3.234a.975.975 0 0 1 .29.737 1.102 1.102 0 0 1-.317.764 1.055 1.055 0 0 1-.772.325c-.298 0-.555-.108-.772-.325l-5.06-5.06a1 1 0 0 1-.24-.36A1.16 1.16 0 0 1 2 10.15c0-.141.024-.276.07-.404a1 1 0 0 1 .24-.36l5.088-5.088A1.01 1.01 0 0 1 8.142 4c.298 0 .555.108.772.325.217.217.325.472.325.764 0 .293-.108.548-.325.764L5.707 9.06H16.51c1.513 0 2.807.532 3.88 1.597C21.463 11.72 22 13.019 22 14.55v3.96c0 .311-.104.57-.311.778a1.056 1.056 0 0 1-.778.312Z"/>
</svg>
