<svg xmlns="http://www.w3.org/2000/svg" width="24" height="24" fill="currentColor" viewBox="0 0 24 24">
  <path fill-rule="evenodd" d="M18.672 3.108a1.773 1.773 0 0 1 1.747.445l.017.014.023.026c.448.465.653 1.164.39 1.873l-5.455 14.72c-.616 1.66-3.003 1.526-3.435-.187l-1.59-6.353-6.37-1.6c-1.717-.431-1.843-2.818-.187-3.433l14.725-5.46.135-.045Zm-6.759 10.124 1.598 6.376.03.073c.012.018.024.03.035.038a.21.21 0 0 0 .12.041c.05.003.092-.01.122-.028a.186.186 0 0 0 .076-.102l4.938-13.326-6.919 6.928Zm-7.545-3.119a.187.187 0 0 0-.102.076.217.217 0 0 0-.027.123c.002.05.019.09.04.117a.187.187 0 0 0 .11.065l6.394 1.606 6.925-6.934-13.34 4.947Z" clip-rule="evenodd"/>
</svg>
