<svg xmlns="http://www.w3.org/2000/svg" width="24" height="24" fill="currentColor" viewBox="0 0 24 24">
  <path d="M18.917 12.88c.08-.584.08-1.176 0-1.76l2.06-1.85a1 1 0 0 0 .25-1.27l-1.18-2a1 1 0 0 0-1.19-.45l-2.65.9a7.21 7.21 0 0 0-1.52-.89l-.55-2.76a1 1 0 0 0-1-.8h-2.34a1 1 0 0 0-1 .8l-.53 2.74a7.47 7.47 0 0 0-1.52.89l-2.65-.9a1 1 0 0 0-1.19.47l-1.18 2a1 1 0 0 0 .25 1.27l2.1 1.85a6.48 6.48 0 0 0 0 1.76l-2.1 1.85a1 1 0 0 0-.25 1.27l1.18 2a1 1 0 0 0 1.19.45l2.65-.9c.47.356.98.654 1.52.89l.55 2.74a1 1 0 0 0 1 .8h2.36a1 1 0 0 0 1-.8l.55-2.74a7.209 7.209 0 0 0 1.52-.89l2.65.9a1 1 0 0 0 1.15-.45l1.18-2a1 1 0 0 0-.25-1.27l-2.06-1.85ZM11.977 15a3 3 0 1 1 0-6 3 3 0 0 1 0 6Z"/>
</svg>
