<svg xmlns="http://www.w3.org/2000/svg" width="24" height="24" fill="currentColor" viewBox="0 0 24 24">
  <path fill-rule="evenodd" d="M5.277 4.6a3.4 3.4 0 0 1 6.559 0H21a.9.9 0 1 1 0 1.8h-9.165a3.4 3.4 0 0 1-6.559 0H3a.9.9 0 1 1 0-1.8h2.277Zm2.148-.231a1.6 1.6 0 1 1-.464 1.258.907.907 0 0 0 0-.254 1.6 1.6 0 0 1 .464-1.004ZM21 12.9h-2.277a3.4 3.4 0 0 1-6.559 0H3a.9.9 0 1 1 0-1.8h9.165a3.4 3.4 0 0 1 6.559 0H21a.9.9 0 1 1 0 1.8Zm-3.96-.9.003-.069a1.6 1.6 0 1 0 0 .137.912.912 0 0 1-.003-.068Zm-5.205 7.4a3.4 3.4 0 0 1-6.559 0H3a.9.9 0 1 1 0-1.8h2.277a3.4 3.4 0 0 1 6.559 0H21a.9.9 0 1 1 0 1.8h-9.165Zm-4.877-.832a.907.907 0 0 0 0-.136 1.6 1.6 0 1 1 0 .136Z" clip-rule="evenodd"/>
</svg>
