<svg xmlns="http://www.w3.org/2000/svg" width="24" height="24" fill="currentColor" viewBox="0 0 24 24">
  <path d="M18 22.185c-.885 0-1.637-.31-2.257-.929A3.07 3.07 0 0 1 14.815 19c0-.12.008-.245.025-.374.016-.13.041-.248.075-.356l-6.757-3.932a3.402 3.402 0 0 1-.997.623c-.37.15-.756.225-1.161.224-.885 0-1.637-.31-2.256-.929A3.07 3.07 0 0 1 2.814 12c0-.885.31-1.637.93-2.257A3.07 3.07 0 0 1 6 8.815c.405 0 .791.075 1.16.224.37.15.703.358.998.624l6.757-3.933a1.994 1.994 0 0 1-.075-.356A2.98 2.98 0 0 1 14.815 5c0-.885.31-1.637.929-2.256A3.07 3.07 0 0 1 18 1.814c.885 0 1.637.31 2.256.93.62.62.93 1.372.93 2.256 0 .885-.31 1.637-.93 2.257A3.075 3.075 0 0 1 18 8.185a3.14 3.14 0 0 1-1.16-.218 3.298 3.298 0 0 1-.998-.618L9.085 11.27c.034.108.059.227.075.356a3 3 0 0 1 0 .748c-.016.13-.041.249-.075.356l6.757 3.92c.293-.264.63-.473.997-.617A3.12 3.12 0 0 1 18 15.815c.885 0 1.637.31 2.256.929.62.62.93 1.372.93 2.256a3.07 3.07 0 0 1-.93 2.256c-.62.62-1.372.93-2.256.93M18 6a.97.97 0 0 0 .712-.287A.97.97 0 0 0 19 5a.969.969 0 0 0-.288-.712A.971.971 0 0 0 18 4a.97.97 0 0 0-.712.288A.969.969 0 0 0 17 5c0 .283.096.52.288.713A.967.967 0 0 0 18 6ZM6 13c.283 0 .52-.096.713-.287A.971.971 0 0 0 7 12a.97.97 0 0 0-.287-.713A.97.97 0 0 0 6 11a.97.97 0 0 0-.712.287A.97.97 0 0 0 5 12c0 .283.096.52.288.713A.967.967 0 0 0 6 13Zm12 7c.283 0 .52-.096.712-.288A.971.971 0 0 0 19 19a.969.969 0 0 0-.288-.712A.97.97 0 0 0 18 18a.97.97 0 0 0-.712.288A.969.969 0 0 0 17 19c0 .283.096.52.288.712A.965.965 0 0 0 18 20Z"/>
</svg>
