<svg xmlns="http://www.w3.org/2000/svg" width="24" height="24" fill="currentColor" viewBox="0 0 24 24">
  <path fill-rule="evenodd" d="M11.727 8.297 6.721 3.3a1.003 1.003 0 0 0-1.422 0L.293 8.297a.998.998 0 0 0 1.412 1.41l3.294-3.289V20c0 .55.45 1 1.001 1 .55 0 1.001-.45 1.001-1V6.418l3.294 3.288a.998.998 0 0 0 1.412-1.409h.02Zm.546 7.406 5.006 4.997a1.003 1.003 0 0 0 1.422 0l5.006-4.997a.998.998 0 0 0-1.412-1.41l-3.294 3.289V3.999c0-.55-.45-.999-1.001-.999-.55 0-1.001.45-1.001 1v13.582l-3.294-3.289a.998.998 0 0 0-1.412 1.41h-.02Z" clip-rule="evenodd"/>
</svg>
