<svg xmlns="http://www.w3.org/2000/svg" width="24" height="24" fill="currentColor" viewBox="0 0 24 24">
  <path d="M11.493 23a.936.936 0 0 1-.68-.267.886.886 0 0 1-.274-.662v-8.897c-1.277 0-2.5-.235-3.671-.705a9.466 9.466 0 0 1-3.103-2.014 8.97 8.97 0 0 1-2.056-3.017A9.215 9.215 0 0 1 1 3.868v-.76c0-.314.11-.577.327-.79A1.12 1.12 0 0 1 2.139 2h.783c1.25 0 2.459.237 3.628.71a9.544 9.544 0 0 1 3.102 2.02 8.786 8.786 0 0 1 1.64 2.171 9.4 9.4 0 0 1 .917 2.547c.147-.248.31-.482.49-.704a7.92 7.92 0 0 1 .605-.656 9.517 9.517 0 0 1 3.103-2.019 9.7 9.7 0 0 1 3.67-.712h.784c.323 0 .593.106.811.319.219.212.328.475.328.788v.762a8.981 8.981 0 0 1-.732 3.568 9.216 9.216 0 0 1-2.077 3.018 9.304 9.304 0 0 1-3.087 1.999 9.823 9.823 0 0 1-3.655.689v5.571a.885.885 0 0 1-.275.662.938.938 0 0 1-.68.267Zm-.942-11.714a6.99 6.99 0 0 0-.589-2.832 7.53 7.53 0 0 0-1.671-2.4A7.767 7.767 0 0 0 5.823 4.43a7.55 7.55 0 0 0-2.913-.573c0 .99.191 1.94.573 2.848A7.274 7.274 0 0 0 5.14 9.119a7.51 7.51 0 0 0 2.483 1.61c.934.371 1.91.557 2.93.557Zm1.898 3.357c1.019 0 1.99-.186 2.913-.557a7.553 7.553 0 0 0 2.467-1.61 7.483 7.483 0 0 0 1.672-2.414 7.1 7.1 0 0 0 .589-2.848 7.672 7.672 0 0 0-2.93.573 7.72 7.72 0 0 0-2.482 1.625 7.318 7.318 0 0 0-1.656 2.399 7.157 7.157 0 0 0-.573 2.832Z"/>
</svg>
