<svg xmlns="http://www.w3.org/2000/svg" width="24" height="24" fill="currentColor" viewBox="0 0 24 24">
  <path d="M5.393 23c-.568 0-1.05-.198-1.448-.594a1.958 1.958 0 0 1-.597-1.441V4.06h-.33a.983.983 0 0 1-.724-.295A.99.99 0 0 1 2 3.037c0-.289.098-.53.294-.723a.992.992 0 0 1 .725-.29H7.93c0-.292.098-.535.294-.73A.986.986 0 0 1 8.95 1h6.095c.287 0 .529.1.725.297a1 1 0 0 1 .293.728h4.92c.287 0 .529.098.724.295a.99.99 0 0 1 .294.728c0 .288-.098.53-.294.722a.992.992 0 0 1-.725.29h-.329v16.905c0 .564-.199 1.045-.597 1.44-.398.397-.88.595-1.448.595H5.393ZM18.607 4.06H5.393v16.905h13.214V4.06ZM8.527 18.453h1.916V6.535H8.527v11.918Zm5.03 0h1.923V6.535h-1.923v11.918Z"/>
</svg>
