<svg xmlns="http://www.w3.org/2000/svg" width="24" height="24" fill="currentColor" viewBox="0 0 24 24">
  <path fill-rule="evenodd" d="M8.38 8.88c0-2 1.62-3.624 3.62-3.63a3.64 3.64 0 0 1 3.63 3.63c-.003.617-.06 1.233-.17 1.84A3.58 3.58 0 0 1 12 14a3.58 3.58 0 0 1-3.46-3.28 10.491 10.491 0 0 1-.16-1.84ZM12 12c.91 0 1.36-.82 1.49-1.6.09-.502.136-1.01.14-1.52a1.63 1.63 0 1 0-3.25 0 8.73 8.73 0 0 0 .13 1.52c.13.78.58 1.6 1.49 1.6Z" clip-rule="evenodd"/>
  <path fill-rule="evenodd" d="M1 12C1 5.925 5.925 1 12 1a11 11 0 0 1 11 11c0 6.075-4.925 11-11 11S1 18.075 1 12Zm11 5c-2.75 0-4.73 1.27-5 2.49h.06a8.93 8.93 0 0 0 9.94 0c-.27-1.22-2.25-2.49-5-2.49Zm0-2c3.07 0 5.62 1.28 6.55 3.12h.03a9 9 0 1 0-13.16 0C6.38 16.28 8.93 15 12 15Z" clip-rule="evenodd"/>
</svg>
