<svg xmlns="http://www.w3.org/2000/svg" width="24" height="24" fill="currentColor" viewBox="0 0 24 24">
  <path d="m10.365 16.018 5.503-3.54a.54.54 0 0 0 .255-.48.54.54 0 0 0-.255-.477l-5.503-3.54a.51.51 0 0 0-.585-.027.56.56 0 0 0-.298.513v7.066c0 .228.1.399.298.513a.51.51 0 0 0 .585-.028Zm-6.293 4.185c-.63 0-1.167-.222-1.61-.665a2.2 2.2 0 0 1-.665-1.61V6.072c0-.63.222-1.167.665-1.61.443-.443.98-.665 1.61-.665h15.856c.63 0 1.167.222 1.61.665.443.443.665.98.665 1.61v11.856c0 .63-.222 1.166-.665 1.61-.443.443-.98.665-1.61.665H4.072Zm0-2.275h15.856V6.072H4.072v11.856Z"/>
</svg>
