<svg xmlns="http://www.w3.org/2000/svg" width="24" height="24" fill="currentColor" viewBox="0 0 24 24">
  <path d="M8.509 7.433a.9.9 0 0 1 1.67.664l-2.797 8.262-.034.086a.9.9 0 0 1-1.696-.574l.025-.088L8.475 7.52l.034-.087Zm4.078 0a.9.9 0 0 1 1.67.664l-2.797 8.262-.034.086a.9.9 0 0 1-1.696-.574l.025-.088 2.798-8.263.034-.087Zm4 0a.9.9 0 0 1 1.67.664l-2.797 8.262-.034.086a.9.9 0 0 1-1.696-.574l.025-.088 2.798-8.263.034-.087Z"/>
  <path fill-rule="evenodd" d="M21.184 1.209A1.8 1.8 0 0 1 22.8 3v18a1.8 1.8 0 0 1-1.8 1.8H3A1.8 1.8 0 0 1 1.2 21V3l.009-.184A1.8 1.8 0 0 1 3 1.2h18l.184.009ZM3 21h18V3H3v18Z" clip-rule="evenodd"/>
</svg>
