<svg xmlns="http://www.w3.org/2000/svg" width="24" height="24" fill="currentColor" viewBox="0 0 24 24">
  <path d="M7.845 18.096c-1.263 0-2.242-.47-2.937-1.407-.695-.938-1.03-2.027-1.004-3.266v-.024l-.432-.651c-.25-.383-.575-1.09-.972-2.12s-.596-2.246-.596-3.646c0-1.738.434-3.185 1.302-4.341C4.074 1.483 5.168.904 6.488.904c1.413 0 2.534.626 3.363 1.879.83 1.252 1.245 2.653 1.245 4.205a8.71 8.71 0 0 1-.364 2.55 26.82 26.82 0 0 1-.724 2.1l.176.283c.169.29.363.694.583 1.214.22.52.33 1.047.33 1.582 0 .958-.308 1.76-.92 2.408-.615.646-1.392.97-2.332.97M5.28 11.432l2.642-.532a39.44 39.44 0 0 0 .64-1.816c.212-.654.32-1.358.32-2.114 0-.976-.222-1.862-.665-2.657C7.774 3.517 7.202 3.12 6.5 3.12c-.702 0-1.274.398-1.717 1.196-.443.797-.664 1.702-.663 2.714 0 .938.129 1.792.386 2.563.258.77.516 1.383.774 1.839Zm2.57 4.448a.96.96 0 0 0 .737-.317c.195-.21.292-.5.292-.87 0-.263-.063-.543-.188-.84a6.006 6.006 0 0 0-.388-.775l-2.184.458c.007.646.15 1.199.431 1.657.28.458.713.687 1.3.687Zm8.304 7.216c-.94 0-1.717-.324-2.33-.971-.613-.648-.92-1.45-.92-2.408 0-.534.11-1.06.328-1.58.22-.517.414-.923.583-1.216l.176-.283c-.24-.6-.48-1.3-.724-2.098a8.699 8.699 0 0 1-.364-2.552c0-1.551.415-2.953 1.245-4.205.83-1.254 1.95-1.88 3.363-1.88 1.32 0 2.414.58 3.282 1.738.868 1.156 1.302 2.604 1.302 4.34 0 1.398-.198 2.606-.593 3.626-.395 1.02-.72 1.727-.975 2.122l-.432.676v.018c.012 1.24-.326 2.328-1.014 3.266-.688.938-1.664 1.407-2.927 1.407Zm2.565-6.693c.25-.42.506-1.02.768-1.8.261-.78.392-1.648.392-2.603 0-.992-.22-1.887-.663-2.684-.443-.798-1.015-1.197-1.717-1.196-.702 0-1.274.397-1.717 1.193-.442.795-.663 1.685-.663 2.669 0 .724.101 1.409.304 2.054.203.645.425 1.279.666 1.9l2.63.467Zm-2.577 4.477c.587 0 1.021-.231 1.303-.693.282-.462.427-1.017.434-1.663l-2.202-.416c-.133.23-.26.485-.38.767-.119.281-.178.55-.178.806 0 .301.093.576.28.826a.882.882 0 0 0 .743.373Z"/>
</svg>
