<svg xmlns="http://www.w3.org/2000/svg" width="40" height="40" fill="none" viewBox="0 0 40 40">
  <path fill="#F2F4F6" d="M0 8a8 8 0 0 1 8-8h24a8 8 0 0 1 8 8v24a8 8 0 0 1-8 8H8a8 8 0 0 1-8-8V8Z"/>
  <path fill="#607890" d="M17.01 20.678V18.39l-7.844 6.822 7.843 6.746V29.77c6.655-.082 12.74-3.402 12.74-6.755v-6.67c-3.157 4.295-11.41 4.352-12.74 4.333Z"/>
  <path fill="#607890" d="M29.437 13.618c-.581-5.312-9.128-6.367-12.428-6.576v8.667c4.476.192 7.105 1.594 8.066 2.031.772-.366 3.477-1.787 4.362-4.122Z"/>
</svg>
