<svg xmlns="http://www.w3.org/2000/svg" width="40" height="40" fill="none" viewBox="0 0 40 40">
  <path fill="#ECF3FF" d="M0 8a8 8 0 0 1 8-8h24a8 8 0 0 1 8 8v24a8 8 0 0 1-8 8H8a8 8 0 0 1-8-8V8Z"/>
  <path fill="#4E56EA" d="m30.68 23.655-4.2-4.196 3.989-3.984a4.243 4.243 0 0 0 0-5.986 4.257 4.257 0 0 0-5.995 0l-6.815 6.903-.014.025v-4.059c0-2.329-1.907-4.233-4.24-4.233-2.331 0-4.239 1.904-4.239 4.233v14.165c0 1.163.476 2.222 1.245 2.989l-.008.015a4.257 4.257 0 0 0 5.995 0l4.113-4.108 4.175 4.222a4.257 4.257 0 0 0 5.995 0 4.243 4.243 0 0 0 0-5.987v.001ZM13.407 8.764a3.558 3.558 0 0 1 3.56 3.555 3.558 3.558 0 0 1-3.56 3.555 3.558 3.558 0 0 1-3.56-3.555 3.558 3.558 0 0 1 3.56-3.555Zm.025 21.314a3.532 3.532 0 1 1 0-7.063 3.532 3.532 0 1 1 0 7.063Zm10.472-17.915a3.558 3.558 0 0 1 3.803-3.293 3.556 3.556 0 0 1 3.298 3.799A3.558 3.558 0 0 1 27.2 15.96a3.556 3.556 0 0 1-3.297-3.798Zm3.994 18.136a3.647 3.647 0 0 1-3.847-3.435 3.646 3.646 0 0 1 3.44-3.842 3.644 3.644 0 1 1 .408 7.276Z"/>
</svg>
