<svg xmlns="http://www.w3.org/2000/svg" width="40" height="40" fill="none" viewBox="0 0 40 40">
  <path fill="#ECF3FF" d="M0 8a8 8 0 0 1 8-8h24a8 8 0 0 1 8 8v24a8 8 0 0 1-8 8H8a8 8 0 0 1-8-8V8Z"/>
  <path fill="#4C56F3" d="M31.134 8.083c-6.688 0-17.64 5.486-11.323 23.27h1.456s-1.033-3.718-1.209-6.292c10.92-2.944 11.453-12.402 11.076-16.978Z"/>
  <path fill="#4C56F3" d="M16.906 14.772c-2.743-2.685-7.716-1.976-7.716-1.976-.13 3.048-.013 10.335 8.04 13.65-2.183-7.183-.324-11.674-.324-11.674Z"/>
</svg>
