<svg xmlns="http://www.w3.org/2000/svg" width="40" height="40" fill="none" viewBox="0 0 40 40">
  <g clip-path="url(#a)">
    <path fill="#ECF3FF" d="M0 8a8 8 0 0 1 8-8h24a8 8 0 0 1 8 8v24a8 8 0 0 1-8 8H8a8 8 0 0 1-8-8V8Z"/>
    <path fill="#4E56EA" d="M20 7.769c7.183 0 13 5.694 13 12.692 0 5.122-3.115 9.702-7.946 11.706-.159.032-.254.064-.381.064a.821.821 0 0 1-.795-.541c-.19-.445.032-.923.477-1.113 4.195-1.718 6.897-5.694 6.897-10.116 0-5.885-4.743-10.697-10.703-10.992l-.581-.013c-6.23 0-11.283 4.962-11.283 11.005 0 3.881 2.13 7.508 5.562 9.48l.223.096c.381.19.826.286 1.303.286 1.623 0 2.933-1.227 3.317-2.952a5.515 5.515 0 0 1-1.251-.324 6.644 6.644 0 0 1-4.164-4.326c-.254-.89.414-1.813 1.4-1.813h10.107c.985 0 1.652.922 1.398 1.813-.75 2.495-2.978 4.392-5.716 4.674-.442 2.672-2.5 4.613-5.06 4.613-.73 0-1.43-.159-2.034-.445l-.318-.127C9.48 29.177 7 24.946 7 20.461 7 13.463 12.816 7.77 20 7.77Zm-2.701 6.774c.35 0 .635.286.636.635v4.2h-2.512v-4.2c0-.35.286-.635.636-.636h1.24Zm6.96 0c.35 0 .636.286.636.635v4.2h-2.51v-4.2c0-.35.286-.636.635-.636h1.24Z"/>
  </g>
  <defs>
    <clipPath id="a">
      <path fill="#fff" d="M0 0h40v40H0z"/>
    </clipPath>
  </defs>
</svg>
