<svg xmlns="http://www.w3.org/2000/svg" width="40" height="40" fill="none" viewBox="0 0 40 40">
  <g clip-path="url(#a)">
    <path fill="#F2F4F6" d="M0 8a8 8 0 0 1 8-8h24a8 8 0 0 1 8 8v24a8 8 0 0 1-8 8H8a8 8 0 0 1-8-8V8Z"/>
    <path fill="#607890" d="M20 7.769c7.183 0 13 5.694 13 12.692 0 5.122-3.115 9.703-7.946 11.706-.16.032-.255.064-.382.064a.82.82 0 0 1-.794-.541c-.19-.445.032-.923.477-1.113 4.195-1.718 6.897-5.694 6.897-10.116 0-6.075-5.054-11.006-11.284-11.006S8.685 14.418 8.685 20.46c0 3.881 2.13 7.507 5.562 9.479l.223.096c.381.19.826.286 1.303.286 1.623 0 2.933-1.227 3.317-2.952a5.51 5.51 0 0 1-1.251-.324 6.643 6.643 0 0 1-4.163-4.325c-.255-.89.413-1.813 1.398-1.813h10.108c.985 0 1.652.923 1.398 1.813-.751 2.495-2.979 4.393-5.717 4.674-.442 2.671-2.5 4.613-5.058 4.613a4.77 4.77 0 0 1-2.034-.445l-.319-.128C9.48 29.177 7 24.946 7 20.461 7 13.463 12.817 7.77 20 7.77Zm-2.701 6.774c.35 0 .636.286.636.635v4.2h-2.512v-4.2c0-.35.286-.635.636-.636h1.24Zm6.96 0c.35 0 .636.285.636.635v4.2h-2.51v-4.2c0-.35.286-.636.635-.636h1.24Z"/>
  </g>
  <defs>
    <clipPath id="a">
      <path fill="#fff" d="M0 0h40v40H0z"/>
    </clipPath>
  </defs>
</svg>
