<svg xmlns="http://www.w3.org/2000/svg" width="40" height="40" fill="none" viewBox="0 0 40 40">
  <path fill="url(#reapit-lettings__a)" d="M0 8a8 8 0 0 1 8-8h24a8 8 0 0 1 8 8v24a8 8 0 0 1-8 8H8a8 8 0 0 1-8-8V8Z"/>
  <path fill="#fff" d="M32.576 6C12.293 6 8.776 25.887 7.424 34H9.1c.45-2.977 3.493-14.748 10.899-20.287 0 0-5.633 6.976-6.572 15.051 3.426-.652 13.845-3.372 16.056-12.927l-3.84-.61c1.352-1.351 4.909-5.17 6.931-9.226V6Z"/>
  <defs>
    <linearGradient id="reapit-lettings__a" x1="20.702" x2="20.702" y1=".351" y2="31.228" gradientUnits="userSpaceOnUse">
      <stop stop-color="#5573FD"/>
      <stop offset=".575" stop-color="#4E56EA"/>
    </linearGradient>
  </defs>
</svg>
