<svg xmlns="http://www.w3.org/2000/svg" width="40" height="40" fill="none" viewBox="0 0 40 40">
  <path fill="#ECF3FF" d="M0 8a8 8 0 0 1 8-8h24a8 8 0 0 1 8 8v24a8 8 0 0 1-8 8H8a8 8 0 0 1-8-8V8Z"/>
  <path fill="#4E56EA" d="M20.275 16.826c.417.02.967.112 1.269.211.292.096.757.313 1.036.482.28.17.66.469.847.666.188.196.472.576.635.845.163.272.39.795.504 1.164.094.305.148.51.176.804.027.293.03.676.026 1.337-.005 1.11-.04 1.583-.153 1.973-.079.274-.172.61-.208.747a5.922 5.922 0 0 1-.277.717c-.116.255-.414.792-.662 1.193a9.274 9.274 0 0 1-1.084 1.371c-.347.35-.933.837-1.304 1.085-.37.246-.927.563-1.24.705-.315.142-.977.357-1.472.479-.743.183-1.11.224-2.04.228-.746.003-1.361-.043-1.808-.135a10.71 10.71 0 0 1-1.135-.302 14.7 14.7 0 0 1-.944-.381 2.804 2.804 0 0 1-.385-.213 1.327 1.327 0 0 1-.208-.163l-.04-.05c-.093-.138-.13-.372-.116-.64.01-.182.024-.305.074-.403.052-.1.14-.166.27-.252.084-.055.18-.105.266-.141a.676.676 0 0 1 .228-.062c.033 0 .086.012.145.028.061.017.14.042.227.071.175.06.394.14.613.23.435.178 1.05.388 1.368.467.386.096.857.14 1.444.132.239-.003.494-.016.712-.033.22-.018.397-.04.483-.063.182-.047.556-.16.83-.25l.241-.088c.272-.105.617-.256.87-.382.437-.218.826-.51 1.386-1.047.215-.205.41-.4.55-.55a4.13 4.13 0 0 0 .166-.185.71.71 0 0 0 .04-.054l.008-.012-.002.016a.18.18 0 0 1 .016-.07.545.545 0 0 1 .038-.071.892.892 0 0 1 .118-.152l.079-.101a6.94 6.94 0 0 0 .36-.593c.157-.294.394-.87.524-1.28l.127-.428a2.88 2.88 0 0 0 .068-.356c.03-.241.034-.517.029-.984-.008-.653-.06-1.187-.136-1.439a6.985 6.985 0 0 0-.255-.698 2.712 2.712 0 0 0-.393-.575 4.32 4.32 0 0 0-.555-.502 4.017 4.017 0 0 0-.776-.387 2.166 2.166 0 0 0-1.017-.145 2.71 2.71 0 0 0-.979.245 3.648 3.648 0 0 0-.796.544 4.28 4.28 0 0 0-.542.64 3.737 3.737 0 0 0-.462 1.505c0 .142.038.369.084.499.068.189.069.38.007.62-.063.246-.174.404-.369.517a1.31 1.31 0 0 1-.26.11.95.95 0 0 1-.255.044.936.936 0 0 1-.256-.048 1.248 1.248 0 0 1-.258-.113.692.692 0 0 1-.239-.23.907.907 0 0 1-.079-.163l-.063-.208c-.06-.244-.089-.764-.071-1.218l.025-.368c.036-.368.1-.726.18-.98.096-.302.292-.737.439-.971a5.87 5.87 0 0 1 .616-.788c.193-.201.522-.483.733-.628l.187-.117c.211-.124.48-.258.68-.339.268-.107.686-.23.932-.274.248-.045.78-.064 1.183-.043Z"/>
  <path fill="#4E56EA" d="m20.379 13.001.382.025c.41.034.876.094 1.171.15.448.085 1.036.284 1.56.527.46.214 1.064.538 1.343.72.28.184.771.582 1.095.886.324.306.795.852 1.048 1.217.253.364.619 1 .816 1.414.247.52.43 1.084.584 1.802.2.932.224 1.229.223 2.677 0 1.328-.033 1.772-.175 2.426a14.86 14.86 0 0 1-.463 1.589c-.16.437-.474 1.169-.7 1.628-.223.457-.483.94-.577 1.074-.092.13-.357.486-.591.792-.119.156-.252.31-.37.431-.06.06-.117.114-.167.156a.677.677 0 0 1-.134.094c-.13.061-.342.11-.478.111a.843.843 0 0 1-.243-.044 1.118 1.118 0 0 1-.123-.048l-.109-.06a2.118 2.118 0 0 1-.17-.13.736.736 0 0 1-.116-.116.27.27 0 0 1-.034-.085 1.081 1.081 0 0 1-.02-.114 2.425 2.425 0 0 1-.02-.299c-.002-.245.062-.49.176-.66.092-.14.298-.42.456-.627l.299-.42c.11-.165.226-.342.316-.49l.286-.5c.093-.173.176-.337.226-.45.1-.226.255-.635.342-.908.086-.273.255-.853.376-1.288.097-.349.15-.58.181-.87.03-.292.038-.644.038-1.234.001-1.092-.032-1.457-.18-2.065-.101-.41-.264-.97-.363-1.242a7.552 7.552 0 0 0-.527-1.07c-.19-.315-.657-.884-1.037-1.264-.405-.402-.934-.827-1.268-1.02a9.698 9.698 0 0 0-1.407-.614 5.795 5.795 0 0 0-1.2-.293l-.411-.038a6.569 6.569 0 0 0-1.362.05 9.65 9.65 0 0 0-1.2.31c-.34.117-.9.372-1.241.566-.383.218-.879.61-1.31 1.04-.382.38-.838.93-1.012 1.22-.132.222-.29.529-.4.772l-.093.218c-.095.25-.264.808-.374 1.241-.11.433-.2.989-.2 1.232l.013.235c.026.28.084.675.153 1 .045.215.11.448.176.65.066.203.133.369.184.454l.104.152c.124.168.301.372.448.512.194.185.538.417.76.513.226.098.58.216.782.26.255.058.5.054.849-.015l.22-.053c.233-.064.489-.155.64-.231.198-.102.533-.364.74-.581l.306-.348a2.9 2.9 0 0 0 .207-.272c.072-.118.19-.43.26-.69.09-.345.11-.649.011-1.956l-.002-.03.022-.02.243-.227a1.45 1.45 0 0 1 .25-.18.918.918 0 0 1 .254-.106.828.828 0 0 1 .249-.002.88.88 0 0 1 .246.065.885.885 0 0 1 .227.173c.038.038.075.078.109.12l.089.13.054.098c.11.232.125.485.124 1.306-.001.531-.002.811-.044 1.05-.043.24-.127.437-.286.805-.17.398-.396.794-.593 1.044l-.082.098c-.19.21-.556.54-.811.738-.26.2-.734.47-1.06.606a3.85 3.85 0 0 1-.974.264l-.381.041a5.475 5.475 0 0 1-1.352-.046c-.39-.069-.846-.238-1.313-.484-.39-.206-.842-.495-1.003-.646a6.483 6.483 0 0 1-.602-.686 5.8 5.8 0 0 1-.399-.62l-.093-.183a6.064 6.064 0 0 1-.257-.673l-.078-.333a7.062 7.062 0 0 1-.068-.384c-.033-.234-.053-.932-.046-1.55.008-.703.071-1.41.166-1.883.093-.462.3-1.068.527-1.553l.18-.359c.199-.38.447-.805.625-1.065l.207-.282a8.81 8.81 0 0 1 .716-.827c.269-.263.697-.633.951-.823.258-.193.882-.55 1.388-.794.506-.245 1.168-.51 1.473-.587.3-.077.83-.17 1.177-.21.349-.039 1.01-.055 1.471-.034Z"/>
  <path fill="#4E56EA" d="M20.462 9.176c.507.021 1.261.092 1.677.158.417.065 1.113.228 1.552.362.44.135 1.196.437 1.68.672.482.234 1.067.545 1.3.691.231.146.703.48 1.047.746.348.265.86.721 1.141 1.014.28.291.662.717.85.947a13 13 0 0 1 .759 1.089c.229.367.548.931.71 1.253.163.323.394.878.516 1.235l.096.313a3.409 3.409 0 0 1 .12 1.136.615.615 0 0 1-.034.184c-.043.107-.128.154-.244.212a1.58 1.58 0 0 1-.593.135 1.024 1.024 0 0 1-.56-.166.844.844 0 0 1-.227-.3 3.585 3.585 0 0 1-.206-.547 12.51 12.51 0 0 0-.483-1.273l-.144-.292a12.062 12.062 0 0 0-.579-.99 13.646 13.646 0 0 0-.911-1.2 12.555 12.555 0 0 0-1.027-1.016c-.306-.264-.8-.64-1.096-.837-.296-.197-.8-.489-1.12-.646a13.369 13.369 0 0 0-1.326-.543 14.154 14.154 0 0 0-1.744-.427c-.548-.094-1.295-.167-1.657-.163-.365.005-.869.037-1.117.072-.25.035-.757.129-1.123.209-.364.08-.98.266-1.368.414-.39.149-.95.392-1.246.54-.294.148-.836.484-1.202.747-.365.264-.889.697-1.163.962a14.12 14.12 0 0 0-.998 1.103c-.274.342-.633.845-.797 1.117-.164.272-.41.738-.544 1.032a11.83 11.83 0 0 0-.444 1.19c-.07.228-.138.41-.208.547a1.012 1.012 0 0 1-.165.247l-.061.054c-.134.1-.368.167-.56.166-.092 0-.195-.012-.29-.03a1.007 1.007 0 0 1-.241-.075 1.111 1.111 0 0 1-.16-.1.512.512 0 0 1-.114-.11.298.298 0 0 1-.032-.088 1.25 1.25 0 0 1-.022-.125 2.867 2.867 0 0 1-.02-.328c-.002-.247.095-.722.223-1.103.122-.369.356-.932.52-1.256.162-.322.481-.886.712-1.253.23-.368.585-.874.79-1.13.204-.252.603-.698.888-.99.286-.292.783-.729 1.107-.973.322-.242.774-.558 1.006-.704.232-.145.799-.448 1.258-.672.461-.226 1.14-.508 1.511-.63.37-.119.954-.274 1.301-.343a17.8 17.8 0 0 1 1.384-.2 14.473 14.473 0 0 1 1.678-.037Z"/>
</svg>
