<svg xmlns="http://www.w3.org/2000/svg" width="40" height="40" fill="none" viewBox="0 0 40 40">
  <path fill="#F2F4F6" d="M0 8a8 8 0 0 1 8-8h24a8 8 0 0 1 8 8v24a8 8 0 0 1-8 8H8a8 8 0 0 1-8-8V8Z"/>
  <path fill="#607890" d="m17.713 16.581 3.058 3.057c2.352 2.352 4.84.257 5.793-1.265.562-.896 1.067-1.752 1.438-2.585.868-1.95 1.001-3.5.356-4.146-.646-.645-2.195-.512-4.146.356-2.06.917-4.346 2.533-6.498 4.583Zm8.355-6.841c-4.35-2.577-9.987-2.148-13.909 1.287l4.421 4.421c3.38-3.231 6.857-5.262 9.488-5.707Zm-15.041 2.419c-3.435 3.922-3.864 9.559-1.286 13.909.445-2.632 2.475-6.108 5.707-9.488l-4.421-4.421Zm8.988 15.231.002-.002c-2.217 1.58-4.337 2.576-6.084 2.871 4.35 2.578 9.986 2.149 13.909-1.286l-1.736-1.736c-2.567-2.567-4.366-1-6.091.153Zm-3.72.374c2.521-1.384 6.276-4.061 2.851-7.486l-2.565-2.565c-2.05 2.153-3.665 4.438-4.582 6.5-.868 1.95-1.001 3.5-.356 4.145.646.646 2.195.512 4.146-.355.168-.075.336-.155.506-.239ZM30.26 13.931c-.304 1.798-1.35 3.99-3.01 6.275-.137.176-.276.36-.412.551-.987 1.392-1.778 3.17.312 5.261l1.824 1.824c3.433-3.923 3.863-9.56 1.286-13.91Z"/>
</svg>
