<svg xmlns="http://www.w3.org/2000/svg" width="40" height="40" fill="none" viewBox="0 0 40 40">
  <path fill="#F2F4F6" d="M0 8a8 8 0 0 1 8-8h24a8 8 0 0 1 8 8v24a8 8 0 0 1-8 8H8a8 8 0 0 1-8-8V8Z"/>
  <path fill="#607890" d="M16.037 11.648c-1.782-1.53-4.199-2.515-6.87-2.628v17.178c2.956.114 5.632 1.198 7.6 2.889.968.832 1.766 1.81 2.343 2.893V17.993c0-2.47-1.177-4.717-3.073-6.345ZM30.833 9.02c-2.671.113-5.089 1.098-6.87 2.628-1.896 1.628-3.073 3.874-3.073 6.344V31.98a10.076 10.076 0 0 1 2.343-2.893c1.968-1.691 4.644-2.776 7.6-2.89V9.02Z"/>
</svg>
