<svg width="40" height="40" viewBox="0 0 40 40" fill="none" xmlns="http://www.w3.org/2000/svg">
<path d="M0 8C0 3.58172 3.58172 0 8 0H32C36.4183 0 40 3.58172 40 8V32C40 36.4183 36.4183 40 32 40H8C3.58172 40 0 36.4183 0 32V8Z" fill="#F2F4F6"/>
<path d="M17.7135 16.581L20.7708 19.6383C23.123 21.9905 25.6102 19.8952 26.5642 18.3731C27.1256 17.4774 27.6314 16.6207 28.0022 15.7878C28.8701 13.8375 29.0032 12.2876 28.3577 11.6422C27.7122 10.9967 26.163 11.1297 24.212 11.9977C22.1511 12.9153 19.8658 14.5306 17.7135 16.581Z" fill="#607890"/>
<path d="M26.0683 9.74059C21.7181 7.16326 16.0815 7.59226 12.159 11.0269L16.58 15.448C19.9604 12.2166 23.4367 10.1861 26.0683 9.74059Z" fill="#607890"/>
<path d="M11.027 12.1585C7.59239 16.0811 7.16339 21.7177 9.74069 26.068C10.1856 23.4364 12.216 19.96 15.4481 16.5796L11.027 12.1585Z" fill="#607890"/>
<path d="M20.0147 27.3895L20.0167 27.3876C17.8002 28.9685 15.6797 29.9642 13.9326 30.2595C18.2828 32.8368 23.9194 32.4078 27.8419 28.9732L26.1061 27.2373C23.5387 24.6699 21.74 26.2369 20.0147 27.3895Z" fill="#607890"/>
<path d="M16.2954 27.7642C18.8164 26.3799 22.5715 23.7026 19.1461 20.2778L16.5814 17.7131C14.5311 19.8661 12.9157 22.1514 11.9988 24.2124C11.1309 26.1627 10.9978 27.7126 11.6433 28.3581C12.2888 29.0036 13.8379 28.8705 15.789 28.0025C15.9565 27.9277 16.1253 27.8476 16.2954 27.7642Z" fill="#607890"/>
<path d="M30.2598 13.9315C29.956 15.7289 28.91 17.9203 27.2496 20.2056C27.1132 20.3817 26.9742 20.5658 26.8385 20.7571C25.8507 22.1487 25.0602 23.9276 27.1503 26.0184L28.9735 27.8416C32.4075 23.919 32.8371 18.2817 30.2598 13.9315Z" fill="#607890"/>
</svg>
