<svg width="40" height="40" viewBox="0 0 40 40" fill="none" xmlns="http://www.w3.org/2000/svg">
<path d="M0 8C0 3.58172 3.58172 0 8 0H32C36.4183 0 40 3.58172 40 8V32C40 36.4183 36.4183 40 32 40H8C3.58172 40 0 36.4183 0 32V8Z" fill="#ECF3FF"/>
<path d="M16.037 11.6481C14.255 10.1176 11.8381 9.13276 9.1665 9.01983V26.198C12.1231 26.3116 14.7987 27.3962 16.7671 29.0869C17.7355 29.9188 18.5333 30.8978 19.1098 31.9805V17.9933C19.1098 15.5233 17.9325 13.2758 16.037 11.6481Z" fill="#4E56EA"/>
<path d="M30.8332 9.01929C28.1615 9.13288 25.744 10.1177 23.9627 11.6476C22.0672 13.2759 20.8899 15.5221 20.8899 17.9921V31.9793C21.4664 30.8966 22.2641 29.9176 23.2326 29.0857C25.201 27.395 27.8766 26.3104 30.8332 26.1968V9.01929Z" fill="#4E56EA"/>
</svg>
