<svg xmlns="http://www.w3.org/2000/svg" width="40" height="40" fill="none" viewBox="0 0 40 40">
  <path fill="url(#reapit-pm__a)" d="M0 8a8 8 0 0 1 8-8h24a8 8 0 0 1 8 8v24a8 8 0 0 1-8 8H8a8 8 0 0 1-8-8V8Z"/>
  <path fill="#fff" d="M8.375 13v14L20.5 34l12.124-7v-7.737l-1.687-.975-2.806-1.62-1.082-.624v4.83l-.002 4.83H13.95V16.07l3.275-1.89 2.192-1.265 1.082-.625 3.275 1.877 2.192 1.256 1.083.62V9.782L20.5 6 8.376 13Z"/>
  <defs>
    <linearGradient id="reapit-pm__a" x1="20.702" x2="20.702" y1=".351" y2="31.228" gradientUnits="userSpaceOnUse">
      <stop stop-color="#5573FD"/>
      <stop offset=".575" stop-color="#4E56EA"/>
    </linearGradient>
  </defs>
</svg>
