<svg width="72" height="54" viewBox="0 0 72 54" fill="none" xmlns="http://www.w3.org/2000/svg">
<rect width="72" height="54" fill="#E5E9ED"/>
<path d="M43.2819 25.1101L36.2819 20.4434C36.0594 20.2969 35.771 20.2969 35.5485 20.4434L28.5819 25.1101C28.3138 25.326 28.2542 25.7105 28.4443 25.9975C28.6345 26.2844 29.0119 26.3794 29.3152 26.2167L29.9152 25.7967V33.3301C29.9152 33.6982 30.2137 33.9967 30.5819 33.9967H41.2485C41.6167 33.9967 41.9152 33.6982 41.9152 33.3301V25.7967L42.5485 26.2167C42.6559 26.2919 42.7841 26.3316 42.9152 26.3301C43.2076 26.3278 43.4644 26.1353 43.5485 25.8553C43.6327 25.5753 43.5246 25.2731 43.2819 25.1101ZM40.5819 32.6634H31.2485V24.9101L35.9152 21.7967L40.5819 24.9101V32.6634Z" fill="#9FAEBC"/>
</svg>
