<svg width="192" height="24" viewBox="0 0 192 24" fill="none" xmlns="http://www.w3.org/2000/svg">
<path d="M9.05017 0C12.016 0.191394 19.6988 1.1572 20.2218 6.018C19.4265 8.15452 16.9946 9.45481 16.3009 9.7896C16.2314 9.75745 16.1522 9.71957 16.0632 9.67701C15.046 9.19064 12.7495 8.0925 9.05017 7.9314V0Z" fill="#4E56EA"/>
<path d="M9.05014 10.3848V12.4776C10.2448 12.495 17.6643 12.4428 20.5029 8.51343V14.616C20.5029 17.6844 15.0324 20.7228 9.05014 20.7972V22.8L2 16.6272L9.05014 10.3848Z" fill="#4E56EA"/>
<path d="M40.1661 2.33474H37.5606L31.0378 16.8601L31 16.9447H33.5977L34.9653 13.9015H42.741L44.1297 16.9447H46.7268L40.1824 2.37014L40.1661 2.33474ZM41.8377 11.6707H35.8891L38.8634 4.98554L41.8377 11.6707Z" fill="#222B33"/>
<path d="M55.1734 11.9995C55.1734 12.8497 54.9103 13.5745 54.3907 14.1535C53.873 14.7307 53.2015 15.0235 52.3943 15.0235C51.5456 15.0235 50.8741 14.7583 50.3978 14.2357C49.9203 13.7113 49.6776 13.0075 49.6776 12.1441V6.61934H47.4229V12.1651C47.4229 13.6915 47.8289 14.9101 48.6301 15.7867C49.4326 16.6651 50.4969 17.1103 51.793 17.1103C53.0892 17.1103 54.3103 16.5817 55.2671 15.5383L55.3848 16.9657H57.4269V6.61994H55.1722V12.0001L55.1734 11.9995Z" fill="#222B33"/>
<path d="M66.1059 14.6785C65.6471 14.9077 65.2164 15.0241 64.8272 15.0241C63.8776 15.0241 63.4157 14.4955 63.4157 13.4071V8.60234H66.4207V6.63974H63.4368V3.67274L61.1616 3.91334V6.63974H59.1927V8.60234H61.1616V13.4071C61.1616 14.6185 61.4709 15.5485 62.0799 16.1713C62.6644 16.7689 63.4986 17.0707 64.5605 17.0707C64.6074 17.0707 64.6548 17.0707 64.7023 17.0689C65.3846 17.0689 66.0825 16.9141 66.778 16.6087L66.8285 16.5865L66.1672 14.6479L66.1059 14.6785Z" fill="#222B33"/>
<path d="M72.9501 6.41294C71.3794 6.41294 70.0857 6.92774 69.1043 7.94234C68.1234 8.95694 67.6267 10.2523 67.6267 11.7925C67.6267 13.3327 68.1204 14.6251 69.094 15.6325C70.0683 16.6405 71.3656 17.1517 72.9501 17.1517C74.5345 17.1517 75.8559 16.6405 76.8367 15.6331C77.8175 14.6257 78.3148 13.3333 78.3148 11.7925C78.3148 10.2517 77.8109 8.97314 76.8163 7.95254C75.8216 6.93074 74.5207 6.41294 72.9501 6.41294ZM70.7259 9.45194C71.2845 8.81954 72.0329 8.49914 72.9501 8.49914C73.8672 8.49914 74.585 8.82314 75.164 9.46274C75.7448 10.1041 76.0397 10.8877 76.0397 11.7925C76.0397 12.6973 75.7556 13.4917 75.1952 14.1121C74.6366 14.7307 73.881 15.0445 72.9501 15.0445C72.0191 15.0445 71.2677 14.7307 70.7151 14.1121C70.1614 13.4917 69.8809 12.7111 69.8809 11.7919C69.8809 10.8727 70.165 10.0861 70.7259 9.45194Z" fill="#222B33"/>
<path d="M93.7281 11.6905C95.023 11.4835 95.999 10.9627 96.6303 10.1425C97.2778 9.30074 97.6063 8.28914 97.6063 7.13534C97.6063 5.82794 97.1438 4.68914 96.2321 3.75074C95.3197 2.81174 94.0398 2.33534 92.4283 2.33534C91.6775 2.33534 90.5412 2.33174 89.051 2.32514C87.5609 2.31854 86.4239 2.31494 85.6731 2.31494H85.613V16.9459H88.054V11.9365H91.0337L95.4296 16.9255L95.4477 16.9459H98.2952L97.9889 16.4359L93.7281 11.6905ZM95.1239 7.17674C95.1239 7.88894 94.8927 8.49494 94.4356 8.97794C93.9803 9.45974 93.2974 9.70454 92.4073 9.70454H88.054V4.56674H92.4283C93.304 4.56674 93.9791 4.82774 94.4344 5.34314C94.8921 5.86094 95.1239 6.47774 95.1239 7.17674Z" fill="#222B33"/>
<path d="M104.281 6.35054C102.683 6.35054 101.366 6.85814 100.364 7.85834C99.3619 8.85914 98.8544 10.1617 98.8544 11.7301C98.8544 13.3813 99.3661 14.7193 100.375 15.7063C101.383 16.6927 102.746 17.1931 104.426 17.1931C105.259 17.1931 106.085 17.0383 106.883 16.7335C107.682 16.4281 108.348 15.9913 108.864 15.4351L108.903 15.3919L107.429 13.9627L107.387 14.0083C107.091 14.3305 106.663 14.5933 106.116 14.7895C105.566 14.9863 105.011 15.0859 104.468 15.0859C103.561 15.0859 102.803 14.8531 102.216 14.3947C101.648 13.9519 101.307 13.3609 101.2 12.6391H109.475L109.481 12.5851C109.675 10.5619 109.286 9.00074 108.326 7.94354C107.365 6.88634 106.005 6.35054 104.282 6.35054H104.281ZM101.247 10.7185C101.417 9.98474 101.776 9.40874 102.317 9.00494C102.877 8.58734 103.558 8.37494 104.343 8.37494C105.195 8.37494 105.897 8.58674 106.429 9.00374C106.944 9.40694 107.237 9.98354 107.303 10.7179L101.247 10.7185Z" fill="#222B33"/>
<path d="M118.157 11.3755C117.679 11.1607 117.222 11.0059 116.798 10.9159C116.376 10.8259 115.869 10.7527 115.289 10.6975C113.866 10.5637 113.139 10.1443 113.126 9.45314C113.126 9.07334 113.309 8.78894 113.685 8.58494C114.068 8.37734 114.591 8.27834 115.242 8.29214C116.326 8.29214 117.219 8.60714 117.895 9.22874L117.94 9.27074L119.221 7.77134L119.177 7.73234C118.148 6.81554 116.81 6.35114 115.2 6.35114C114.089 6.35114 113.085 6.61514 112.216 7.13594C111.337 7.66274 110.892 8.46374 110.892 9.51674C110.905 11.3245 112.325 12.3751 115.11 12.6397C115.9 12.7213 116.496 12.8653 116.881 13.0675C117.256 13.2649 117.432 13.5649 117.419 13.9855C117.406 14.4073 117.199 14.7157 116.788 14.9275C116.371 15.1429 115.871 15.2521 115.304 15.2521C113.823 15.2251 112.632 14.7235 111.763 13.7605L111.714 13.7059L110.522 15.3151L110.555 15.3517C111.68 16.6147 113.264 17.2555 115.262 17.2555C116.581 17.2555 117.653 16.9519 118.447 16.3531C119.247 15.7507 119.659 14.9479 119.673 13.9663C119.673 13.3369 119.541 12.7975 119.282 12.3625C119.021 11.9257 118.643 11.5933 118.157 11.3755Z" fill="#222B33"/>
<path d="M127.302 6.41294C126.577 6.41294 125.875 6.57854 125.213 6.90554C124.606 7.20614 124.112 7.62614 123.743 8.15654L123.628 6.61994H121.502V21.6853H123.757V15.5941C124.114 16.0987 124.604 16.4851 125.217 16.7437C125.892 17.0287 126.593 17.1727 127.302 17.1727C128.873 17.1727 130.15 16.6651 131.097 15.6637C132.043 14.6635 132.522 13.3609 132.522 11.7931C132.522 10.2253 132.032 8.94314 131.065 7.94294C130.098 6.94214 128.832 6.42674 127.302 6.41294ZM130.268 11.7925C130.268 12.7237 129.967 13.4965 129.373 14.0893C128.78 14.6821 128.014 14.9827 127.095 14.9827C126.177 14.9827 125.431 14.6755 124.838 14.0695C124.245 13.4629 123.943 12.6973 123.943 11.7931C123.943 10.8889 124.234 10.1227 124.807 9.51614C125.38 8.91074 126.149 8.60354 127.095 8.60354C128.04 8.60354 128.814 8.90054 129.393 9.48614C129.973 10.0717 130.268 10.8475 130.268 11.7925Z" fill="#222B33"/>
<path d="M139.175 6.41294C137.604 6.41294 136.311 6.92774 135.329 7.94234C134.348 8.95694 133.852 10.2523 133.852 11.7925C133.852 13.3327 134.345 14.6251 135.319 15.6325C136.293 16.6405 137.591 17.1517 139.175 17.1517C140.759 17.1517 142.081 16.6405 143.062 15.6331C144.042 14.6257 144.54 13.3333 144.54 11.7925C144.54 10.2517 144.036 8.97314 143.041 7.95254C142.047 6.93074 140.746 6.41294 139.175 6.41294ZM136.951 9.45194C137.51 8.81954 138.258 8.49914 139.176 8.49914C140.093 8.49914 140.81 8.82314 141.389 9.46274C141.97 10.1035 142.265 10.8877 142.265 11.7925C142.265 12.6973 141.981 13.4917 141.421 14.1121C140.862 14.7307 140.107 15.0445 139.176 15.0445C138.245 15.0445 137.493 14.7307 136.941 14.1121C136.387 13.4917 136.107 12.7111 136.107 11.7919C136.107 10.8727 136.39 10.0861 136.951 9.45194Z" fill="#222B33"/>
<path d="M152.064 6.45434C150.768 6.45434 149.628 6.97634 148.673 8.00714L148.555 6.59954H146.492V16.9453H148.747V11.5447C148.747 10.7083 149.013 9.99074 149.539 9.41174C150.064 8.83454 150.739 8.54114 151.546 8.54114C152.395 8.54114 153.063 8.80274 153.532 9.31814C154.003 9.83534 154.242 10.5427 154.242 11.4205V16.9453H156.517V11.3995C156.517 9.87314 156.096 8.65394 155.268 7.77734C154.437 6.89954 153.36 6.45434 152.064 6.45434Z" fill="#222B33"/>
<path d="M167.089 8.06054C166.763 7.57154 166.281 7.17614 165.651 6.88394C164.949 6.55754 164.247 6.39194 163.564 6.39194C162.022 6.39194 160.749 6.86774 159.782 7.80614C158.814 8.74514 158.323 10.0795 158.323 11.7721C158.323 13.4647 158.824 14.7475 159.813 15.7069C160.801 16.6657 162.077 17.1523 163.605 17.1523C165.134 17.1523 166.344 16.5811 167.103 15.4537L167.218 16.9453H169.343V2.35574H167.088L167.089 8.06054ZM163.751 15.0445C162.846 15.0445 162.083 14.7439 161.483 14.1511C160.883 13.5583 160.578 12.7579 160.578 11.7721C160.578 10.7863 160.882 9.97214 161.482 9.39314C162.082 8.81354 162.846 8.52014 163.751 8.52014C164.656 8.52014 165.405 8.82794 166.019 9.43454C166.633 10.0411 166.944 10.8277 166.944 11.7721C166.944 12.7165 166.633 13.5241 166.019 14.1307C165.405 14.7373 164.642 15.0445 163.751 15.0445Z" fill="#222B33"/>
<path d="M176.743 6.35054C175.145 6.35054 173.827 6.85814 172.826 7.85834C171.824 8.85914 171.316 10.1617 171.316 11.7301C171.316 13.3813 171.828 14.7193 172.836 15.7063C173.845 16.6927 175.208 17.1931 176.888 17.1931C177.721 17.1931 178.547 17.0383 179.344 16.7335C180.144 16.4281 180.81 15.9913 181.325 15.4351L181.365 15.3919L179.89 13.9627L179.848 14.0083C179.552 14.3305 179.124 14.5933 178.577 14.7895C178.026 14.9863 177.472 15.0859 176.929 15.0859C176.021 15.0859 175.264 14.8531 174.676 14.3947C174.109 13.9513 173.767 13.3609 173.662 12.6391H181.936L181.941 12.5851C182.135 10.5625 181.747 9.00074 180.786 7.94354C179.826 6.88634 178.465 6.35054 176.743 6.35054ZM173.709 10.7185C173.878 9.98474 174.238 9.40874 174.779 9.00494C175.339 8.58734 176.02 8.37494 176.805 8.37494C177.657 8.37494 178.359 8.58674 178.892 9.00374C179.406 9.40694 179.7 9.98354 179.765 10.7179L173.709 10.7185Z" fill="#222B33"/>
<path d="M191.578 7.27694C190.92 6.69014 190.056 6.39254 189.009 6.39254C187.654 6.39254 186.658 6.87974 186.045 7.84154L185.914 6.61994H183.81V16.9453H186.065V11.3581C186.065 10.4827 186.323 9.80114 186.833 9.33254C187.345 8.86214 187.993 8.62394 188.761 8.62394C189.435 8.62394 190.029 8.82854 190.527 9.23174L190.584 9.27794L191.613 7.30874L191.578 7.27694Z" fill="#222B33"/>
</svg>
