<svg width="177" height="24" viewBox="0 0 177 24" fill="none" xmlns="http://www.w3.org/2000/svg">
<path d="M14.4062 2L19.1877 5.14371V12L23.9991 8.76645V2H14.4062Z" fill="#98C1C2"/>
<path d="M9.5918 12L14.3733 15.1437V22L19.1846 18.7665V12H9.5918Z" fill="#D1263D"/>
<path d="M0 5.2334L4.78148 8.3771V15.2334L9.59285 11.9999V5.2334H0Z" fill="#FD9E1D"/>
<path d="M39.6117 16.1937C37.2383 16.1937 34.4547 14.8564 34.4205 11.088C34.4077 9.61182 34.9397 8.22109 35.8796 7.27472C36.8004 6.34543 38.0907 5.85621 39.6117 5.85621C40.9683 5.85621 42.218 6.32406 43.1452 7.17858L44.7709 5.6084C43.3332 4.24118 41.5536 3.52124 39.6117 3.52124C37.3772 3.52124 35.4801 4.24118 34.1236 5.60413C32.7628 6.97136 31.9894 8.97093 32.0001 11.088C32.03 16.5505 36.1189 18.4903 39.6096 18.4903C41.7117 18.4903 43.5575 17.7896 44.961 16.4629L43.2883 14.7731C42.3441 15.6554 40.9491 16.198 39.6096 16.198L39.6117 16.1937Z" fill="#222B33"/>
<path d="M51.073 7.93278C48.0693 7.93278 45.8903 10.131 45.8903 13.1582C45.8903 16.1853 48.0309 18.3835 51.0943 18.3835C54.1578 18.3835 56.3197 16.2344 56.3197 13.1582C56.3197 10.0819 54.1129 7.93278 51.073 7.93278ZM51.0943 16.3412C49.0649 16.3412 48.142 14.692 48.142 13.1582C48.142 11.6243 49.1567 9.95585 51.0943 9.95585C53.032 9.95585 54.0467 11.5837 54.0467 13.1582C54.0467 14.7326 53.1238 16.3412 51.0943 16.3412Z" fill="#222B33"/>
<path d="M74.5701 12.1156C73.1815 12.028 72.5064 11.6093 72.5064 10.8359C72.5064 10.0626 73.2477 9.66096 74.538 9.66096C75.5912 9.66096 76.403 9.9344 77.0759 10.5155L78.3022 9.07348C77.2639 8.204 76.1488 7.84724 74.4974 7.84724C72.9379 7.84724 70.2975 8.49454 70.2975 10.9192C70.2975 13.3439 72.8845 13.8545 74.4248 13.9699C75.7365 14.0446 76.6124 14.2839 76.6124 15.2068C76.6124 15.5101 76.4863 15.7921 76.2492 16.025C75.8732 16.3924 75.2622 16.5996 74.5978 16.5911C73.5169 16.5719 71.8954 16.0271 71.0644 15.2324L69.9835 16.8005C71.4725 18.298 73.0618 18.5074 74.5594 18.5074C77.1614 18.5074 78.8448 17.2363 78.8448 15.2687C78.8448 12.7308 76.685 12.2501 74.5722 12.1134L74.5701 12.1156Z" fill="#222B33"/>
<path d="M85.3712 7.93278C82.3676 7.93278 80.1864 10.131 80.1864 13.1582C80.1864 16.1853 82.327 18.3835 85.3904 18.3835C88.4539 18.3835 90.6158 16.2344 90.6158 13.1582C90.6158 10.0819 88.409 7.93278 85.3691 7.93278H85.3712ZM85.3926 16.3412C83.3652 16.3412 82.4402 14.692 82.4402 13.1582C82.4402 11.6243 83.4549 9.95585 85.3926 9.95585C87.3302 9.95585 88.3449 11.5837 88.3449 13.1582C88.3449 14.7326 87.422 16.3412 85.3926 16.3412Z" fill="#222B33"/>
<path d="M94.8008 3.83313H92.5684V18.1527H94.8008V3.83313Z" fill="#222B33"/>
<path d="M102.333 16.4032C100.56 16.4032 99.2956 15.491 99.1097 14.0768L99.0884 13.908H107.174C107.334 11.9319 106.918 10.3404 105.969 9.29787C105.093 8.33654 103.758 7.83024 102.105 7.83024C98.9174 7.83024 96.7747 9.93876 96.7747 13.077C96.7747 16.3776 98.8897 18.4284 102.293 18.4284C103.936 18.4284 105.536 17.8473 106.514 16.9052L105.093 15.5038C104.425 16.0977 103.226 16.4075 102.336 16.4075L102.333 16.4032ZM99.1567 11.9042C99.5306 10.5775 100.663 9.78709 102.186 9.78709C103.812 9.78709 104.841 10.5668 105.012 11.9255L105.034 12.0943H99.1033L99.1567 11.9042Z" fill="#222B33"/>
<path d="M63.9527 7.97121C62.7435 7.97121 61.7309 8.43479 60.6692 9.47517L60.4513 9.6888L60.4342 8.11648H58.2659V18.1485H60.4962V13.0278C60.4962 11.2974 61.6925 9.99215 63.2819 9.99215C64.8713 9.99215 65.9202 11.1351 65.9202 12.9018V18.1485H68.1719V12.8804C68.1719 9.94302 66.4757 7.96908 63.9506 7.96908L63.9527 7.97121Z" fill="#222B33"/>
<path d="M118.467 3C116.873 3 115.474 3.36958 114.312 4.10019C113.149 4.83081 112.286 5.77718 111.746 6.91369C111.21 8.04166 110.938 9.30634 110.938 10.6736C110.938 11.6734 111.099 12.639 111.417 13.5426C111.735 14.4463 112.205 15.2752 112.812 16.0015C113.425 16.7342 114.228 17.326 115.2 17.7597C116.17 18.1912 117.268 18.4091 118.469 18.4091C119.669 18.4091 120.767 18.1912 121.737 17.7597C122.709 17.326 123.508 16.7385 124.115 16.0122C124.715 15.2922 125.185 14.4676 125.51 13.564C125.835 12.6603 125.999 11.7011 125.999 10.7163C126.014 8.58641 125.354 6.7492 124.04 5.25806C122.72 3.75839 120.847 3 118.471 3H118.467ZM124.491 10.6949C124.491 11.7909 124.271 12.812 123.837 13.7327C123.408 14.6449 122.718 15.4183 121.789 16.0293C120.861 16.6381 119.744 16.9479 118.467 16.9479C116.593 16.9479 115.113 16.3326 114.07 15.1149C113.017 13.8887 112.477 12.4018 112.464 10.6928C112.451 8.93249 112.972 7.43495 114.017 6.24503C115.053 5.06366 116.55 4.46336 118.467 4.46336C120.383 4.46336 121.861 5.07007 122.906 6.2664C123.957 7.47127 124.491 8.96027 124.491 10.6949Z" fill="#222B33"/>
<path d="M138.627 16.104L135.672 7.49686H134.643L131.667 16.1083L128.732 7.49686H127.157L130.955 18.1612H132.374L134.087 13.5575L135.166 10.1993L136.211 13.5447L137.92 18.1612H139.34L143.117 7.49686H141.543L138.627 16.104Z" fill="#222B33"/>
<path d="M149.712 7.31108C148.217 7.33458 147.067 7.84516 146.281 8.83212V7.49908H144.858V18.1635H146.3V12.2523C146.3 11.2504 146.619 10.4066 147.247 9.74646C147.881 9.07993 148.676 8.74881 149.674 8.73599C150.753 8.72317 151.594 9.0073 152.197 9.57983C152.799 10.1502 153.105 10.9855 153.105 12.0665V18.1656H154.547V12.0472C154.547 10.5967 154.096 9.43456 153.205 8.58645C152.318 7.74261 151.141 7.31535 149.708 7.31535L149.712 7.31108Z" fill="#222B33"/>
<path d="M161.816 7.33022C160.315 7.33022 159.022 7.85575 157.977 8.89399C156.933 9.93223 156.401 11.2567 156.401 12.8269C156.401 14.3971 156.924 15.8092 157.958 16.8132C158.99 17.8152 160.287 18.3236 161.816 18.3236C162.697 18.3236 163.562 18.1463 164.386 17.7981C165.22 17.4456 165.897 16.9329 166.401 16.2706L166.527 16.104L165.469 15.258L165.337 15.4311C164.989 15.8818 164.482 16.2428 163.831 16.5035C163.169 16.7684 162.491 16.903 161.816 16.903C160.782 16.903 159.879 16.5718 159.129 15.9181C158.435 15.3157 158.018 14.5082 157.89 13.5169H167.067L167.087 13.3225C167.272 11.3849 166.843 9.88523 165.813 8.86195C164.79 7.84507 163.444 7.32808 161.819 7.32808L161.816 7.33022ZM159.14 9.69296C159.883 9.02858 160.782 8.69104 161.816 8.69104C163.013 8.69104 163.974 9.02003 164.677 9.66947C165.331 10.2762 165.689 11.1264 165.741 12.201H157.89C158.029 11.1542 158.45 10.3125 159.14 9.69296Z" fill="#222B33"/>
<path d="M175.895 8.02668C175.17 7.57806 174.391 7.36657 173.585 7.39434C172.838 7.39434 172.128 7.56311 171.479 7.89423C171.043 8.11855 170.676 8.41976 170.385 8.80002L170.355 7.49902H168.979V18.1634H170.421V11.981C170.421 11.0923 170.72 10.3531 171.334 9.72718C171.947 9.10124 172.686 8.78934 173.585 8.77653C174.192 8.77653 174.739 8.92607 175.213 9.22087L175.405 9.34051L176.068 8.13564L175.895 8.02882V8.02668Z" fill="#222B33"/>
</svg>
