<svg width="146" height="24" viewBox="0 0 146 24" fill="none" xmlns="http://www.w3.org/2000/svg">
<path d="M14.4062 2L19.1877 5.14371V12L23.9991 8.76645V2H14.4062Z" fill="#98C1C2"/>
<path d="M9.5918 12L14.3733 15.1437V22L19.1846 18.7665V12H9.5918Z" fill="#D1263D"/>
<path d="M0 5.2334L4.78148 8.3771V15.2334L9.59285 11.9999V5.2334H0Z" fill="#FD9E1D"/>
<path d="M39.5793 15.91C37.216 15.91 34.4443 14.5784 34.4102 10.826C34.3975 9.35611 34.9271 7.9713 35.8631 7.02895C36.7799 6.10361 38.0648 5.61648 39.5793 5.61648C40.9301 5.61648 42.1745 6.08234 43.0977 6.93322L44.7165 5.36973C43.2849 4.00832 41.513 3.29145 39.5793 3.29145C37.3543 3.29145 35.4653 4.00832 34.1145 5.36547C32.7595 6.72688 31.9895 8.71795 32.0001 10.826C32.0299 16.2653 36.1014 18.1968 39.5772 18.1968C41.6704 18.1968 43.5083 17.499 44.9059 16.178L43.2403 14.4954C42.3 15.374 40.911 15.9143 39.5772 15.9143L39.5793 15.91Z" fill="#222B33"/>
<path d="M50.9918 7.6841C48.001 7.6841 45.8312 9.873 45.8312 12.8872C45.8312 15.9015 47.9627 18.0904 51.0131 18.0904C54.0635 18.0904 56.2162 15.9504 56.2162 12.8872C56.2162 9.82407 54.0188 7.6841 50.9918 7.6841ZM51.0131 16.0568C48.9922 16.0568 48.0733 14.4146 48.0733 12.8872C48.0733 11.3599 49.0837 9.69856 51.0131 9.69856C52.9424 9.69856 53.9529 11.3195 53.9529 12.8872C53.9529 14.455 53.0339 16.0568 51.0131 16.0568Z" fill="#222B33"/>
<path d="M74.3889 11.8492C73.0062 11.762 72.334 11.345 72.334 10.575C72.334 9.80495 73.0721 9.40503 74.357 9.40503C75.4057 9.40503 76.214 9.67731 76.8841 10.2559L78.1051 8.82005C77.0713 7.95428 75.9609 7.59904 74.3166 7.59904C72.7637 7.59904 70.1345 8.24358 70.1345 10.658C70.1345 13.0723 72.7105 13.5807 74.2442 13.6956C75.5503 13.7701 76.4225 14.0083 76.4225 14.9273C76.4225 15.2293 76.297 15.5101 76.0609 15.742C75.6865 16.1078 75.0781 16.3142 74.4165 16.3057C73.3402 16.2865 71.7256 15.7441 70.8981 14.9528L69.8218 16.5141C71.3044 18.0053 72.8871 18.2138 74.3782 18.2138C76.9692 18.2138 78.6454 16.9481 78.6454 14.9889C78.6454 12.4618 76.4948 11.9832 74.391 11.8471L74.3889 11.8492Z" fill="#222B33"/>
<path d="M85.144 7.6841C82.1532 7.6841 79.9813 9.873 79.9813 12.8872C79.9813 15.9015 82.1128 18.0904 85.1632 18.0904C88.2136 18.0904 90.3663 15.9504 90.3663 12.8872C90.3663 9.82407 88.1689 7.6841 85.1419 7.6841H85.144ZM85.1653 16.0568C83.1466 16.0568 82.2255 14.4146 82.2255 12.8872C82.2255 11.3599 83.2359 9.69856 85.1653 9.69856C87.0947 9.69856 88.1051 11.3195 88.1051 12.8872C88.1051 14.455 87.1861 16.0568 85.1653 16.0568Z" fill="#222B33"/>
<path d="M94.5335 3.60201H92.3106V17.8607H94.5335V3.60201Z" fill="#222B33"/>
<path d="M102.034 16.1185C100.268 16.1185 99.0091 15.2102 98.8241 13.8019L98.8028 13.6339H106.854C107.014 11.6662 106.599 10.0815 105.655 9.04339C104.782 8.08615 103.453 7.582 101.806 7.582C98.6326 7.582 96.499 9.68155 96.499 12.8064C96.499 16.0929 98.605 18.1351 101.994 18.1351C103.629 18.1351 105.223 17.5565 106.197 16.6184L104.782 15.2229C104.117 15.8143 102.923 16.1227 102.036 16.1227L102.034 16.1185ZM98.8709 11.6386C99.2431 10.3176 100.371 9.53052 101.887 9.53052C103.506 9.53052 104.531 10.3069 104.702 11.6598L104.723 11.8279H98.8177L98.8709 11.6386Z" fill="#222B33"/>
<path d="M63.8167 7.72243C62.6127 7.72243 61.6044 8.18403 60.5472 9.21998L60.3302 9.4327L60.3132 7.86708H58.1541V17.8564H60.3749V12.7575C60.3749 11.0345 61.5661 9.73476 63.1487 9.73476C64.7314 9.73476 65.7758 10.8728 65.7758 12.632V17.8564H68.0179V12.6107C68.0179 9.68584 66.3289 7.7203 63.8146 7.7203L63.8167 7.72243Z" fill="#222B33"/>
<path d="M121.141 4.55073C120.743 4.08062 120.217 3.69985 119.577 3.42119C118.941 3.14252 118.22 3 117.439 3H110.892V17.8691H112.432V12.8766H117.439C118.222 12.8766 118.941 12.7341 119.577 12.4554C120.215 12.1746 120.743 11.796 121.141 11.3259C121.534 10.8621 121.838 10.3282 122.045 9.74323C122.251 9.15825 122.355 8.552 122.355 7.93936C122.355 7.32673 122.251 6.72048 122.045 6.1355C121.838 5.55052 121.532 5.01659 121.141 4.55286V4.55073ZM117.439 11.4386H112.432V4.45713H117.439C118.06 4.45713 118.62 4.58689 119.103 4.84428C119.581 5.09955 119.951 5.43139 120.198 5.83131C120.453 6.24186 120.643 6.70771 120.76 7.21186C120.875 7.7075 120.875 8.20527 120.76 8.69239C120.643 9.19016 120.453 9.65176 120.198 10.0644C119.951 10.4644 119.583 10.7962 119.103 11.0515C118.62 11.3089 118.06 11.4386 117.439 11.4386Z" fill="#222B33"/>
<path d="M131.947 8.9647C131.562 8.45843 131.083 8.05001 130.515 7.74795C129.739 7.33527 128.888 7.12467 127.99 7.12467C126.482 7.12467 125.193 7.63733 124.159 8.64988C123.123 9.66456 122.6 10.9792 122.6 12.5576C122.6 14.1359 123.127 15.4569 124.17 16.4844C125.21 17.5118 126.497 18.0308 127.992 18.0308C129.645 18.0308 130.973 17.4033 131.947 16.1632V17.867H133.383V7.25018H131.947V8.9647ZM129.977 16.1674C129.405 16.4652 128.737 16.6184 127.992 16.6184C126.873 16.6184 125.925 16.2376 125.172 15.4846C124.419 14.7316 124.038 13.7488 124.038 12.5597C124.038 11.3706 124.419 10.3921 125.172 9.64541C125.925 8.89876 126.873 8.52012 127.992 8.52012C128.739 8.52012 129.407 8.67115 129.977 8.97109C130.547 9.2689 130.983 9.65392 131.279 10.1134C131.581 10.5856 131.809 11.1238 131.953 11.7109C132.096 12.2853 132.096 12.866 131.953 13.434C131.809 14.0147 131.581 14.5486 131.279 15.0209C130.985 15.4825 130.547 15.8675 129.977 16.1653V16.1674Z" fill="#222B33"/>
<path d="M143.553 7.25015L140.938 13.3893L139.956 15.8674L138.96 13.4105L136.535 7.25015H134.98L139.152 17.5309L136.914 22.8H138.45L145.11 7.25015H143.553Z" fill="#222B33"/>
</svg>
