<svg width="174" height="24" viewBox="0 0 174 24" fill="none" xmlns="http://www.w3.org/2000/svg">
<path d="M14.4062 2L19.1877 5.14371V12L23.9991 8.76645V2H14.4062Z" fill="#98C1C2"/>
<path d="M9.5918 12L14.3733 15.1437V22L19.1846 18.7665V12H9.5918Z" fill="#D1263D"/>
<path d="M0 5.2334L4.78148 8.3771V15.2334L9.59285 11.9999V5.2334H0Z" fill="#FD9E1D"/>
<path d="M39.6117 15.946C37.2383 15.946 34.4547 14.6086 34.4205 10.8402C34.4077 9.36403 34.9397 7.9733 35.8796 7.02692C36.8004 6.09763 38.0907 5.60842 39.6117 5.60842C40.9683 5.60842 42.218 6.07627 43.1452 6.93079L44.7709 5.36061C43.3332 3.99338 41.5536 3.27345 39.6117 3.27345C37.3772 3.27345 35.4801 3.99338 34.1236 5.35634C32.7628 6.72357 31.9894 8.72314 32.0001 10.8402C32.03 16.3027 36.1189 18.2425 39.6096 18.2425C41.7117 18.2425 43.5575 17.5418 44.961 16.2151L43.2883 14.5253C42.3441 15.4076 40.9491 15.9502 39.6096 15.9502L39.6117 15.946Z" fill="#222B33"/>
<path d="M51.073 7.68488C48.0693 7.68488 45.8903 9.88313 45.8903 12.9103C45.8903 15.9374 48.0309 18.1356 51.0943 18.1356C54.1578 18.1356 56.3197 15.9865 56.3197 12.9103C56.3197 9.83399 54.1129 7.68488 51.073 7.68488ZM51.0943 16.0933C49.0648 16.0933 48.142 14.4441 48.142 12.9103C48.142 11.3764 49.1567 9.70795 51.0943 9.70795C53.0319 9.70795 54.0467 11.3358 54.0467 12.9103C54.0467 14.4847 53.1238 16.0933 51.0943 16.0933Z" fill="#222B33"/>
<path d="M74.5701 11.8678C73.1815 11.7802 72.5064 11.3615 72.5064 10.5881C72.5064 9.81479 73.2477 9.41317 74.538 9.41317C75.5912 9.41317 76.403 9.68661 77.0759 10.2677L78.3022 8.82568C77.2639 7.95621 76.1488 7.59945 74.4974 7.59945C72.9379 7.59945 70.2975 8.24675 70.2975 10.6714C70.2975 13.0961 72.8845 13.6067 74.4248 13.7221C75.7365 13.7968 76.6124 14.0361 76.6124 14.959C76.6124 15.2623 76.4863 15.5443 76.2492 15.7772C75.8732 16.1446 75.2622 16.3519 74.5978 16.3433C73.5169 16.3241 71.8954 15.7793 71.0644 14.9846L69.9834 16.5527C71.4724 18.0502 73.0618 18.2596 74.5594 18.2596C77.1614 18.2596 78.8448 16.9885 78.8448 15.0209C78.8448 12.483 76.685 12.0024 74.5722 11.8656L74.5701 11.8678Z" fill="#222B33"/>
<path d="M85.3712 7.68488C82.3675 7.68488 80.1864 9.88313 80.1864 12.9103C80.1864 15.9374 82.3269 18.1356 85.3904 18.1356C88.4538 18.1356 90.6158 15.9865 90.6158 12.9103C90.6158 9.83399 88.409 7.68488 85.369 7.68488H85.3712ZM85.3925 16.0933C83.3652 16.0933 82.4402 14.4441 82.4402 12.9103C82.4402 11.3764 83.4549 9.70795 85.3925 9.70795C87.3301 9.70795 88.3449 11.3358 88.3449 12.9103C88.3449 14.4847 87.422 16.0933 85.3925 16.0933Z" fill="#222B33"/>
<path d="M94.8008 3.58534H92.5684V17.9049H94.8008V3.58534Z" fill="#222B33"/>
<path d="M102.333 16.1553C100.56 16.1553 99.2955 15.2431 99.1097 13.8289L99.0883 13.6601H107.174C107.334 11.684 106.918 10.0925 105.969 9.04998C105.093 8.08864 103.758 7.58234 102.105 7.58234C98.9174 7.58234 96.7747 9.69087 96.7747 12.8291C96.7747 16.1297 98.8896 18.1805 102.293 18.1805C103.936 18.1805 105.536 17.5994 106.514 16.6573L105.093 15.2559C104.425 15.8498 103.226 16.1596 102.335 16.1596L102.333 16.1553ZM99.1567 11.6563C99.5305 10.3296 100.663 9.53919 102.186 9.53919C103.812 9.53919 104.841 10.3189 105.012 11.6776L105.034 11.8464H99.1033L99.1567 11.6563Z" fill="#222B33"/>
<path d="M63.9527 7.72337C62.7435 7.72337 61.7309 8.18695 60.6692 9.22732L60.4513 9.44095L60.4342 7.86864H58.2659V17.9007H60.4961V12.78C60.4961 11.0496 61.6925 9.74431 63.2819 9.74431C64.8713 9.74431 65.9202 10.8872 65.9202 12.6539V17.9007H68.1719V12.6326C68.1719 9.69517 66.4756 7.72123 63.9505 7.72123L63.9527 7.72337Z" fill="#222B33"/>
<path d="M120.024 3H107.992V4.42277H113.237V17.9135H114.782V4.42277H120.024V3Z" fill="#222B33"/>
<path d="M123.416 7.08248C121.915 7.08248 120.622 7.60801 119.578 8.64625C118.533 9.68449 118.001 11.009 118.001 12.5792C118.001 14.1493 118.524 15.5614 119.558 16.5655C120.59 17.5674 121.887 18.0759 123.416 18.0759C124.299 18.0759 125.162 17.8985 125.986 17.5503C126.82 17.2 127.497 16.6851 128.001 16.0229L128.127 15.8562L127.07 15.0103L126.937 15.1833C126.589 15.6341 126.083 15.9951 125.431 16.2557C124.769 16.5206 124.092 16.6552 123.416 16.6552C122.382 16.6552 121.479 16.3241 120.729 15.6725C120.035 15.068 119.618 14.2626 119.49 13.2713H128.667L128.687 13.0769C128.873 11.1393 128.443 9.63963 127.413 8.61634C126.388 7.59947 125.044 7.08248 123.419 7.08248H123.416ZM120.74 9.44523C121.483 8.78084 122.382 8.4433 123.416 8.4433C124.613 8.4433 125.574 8.77229 126.275 9.42173C126.929 10.0284 127.287 10.8787 127.339 11.9532H119.488C119.627 10.9065 120.048 10.0648 120.738 9.44523H120.74Z" fill="#222B33"/>
<path d="M135.35 7.06324C133.854 7.08674 132.705 7.59731 131.919 8.58428V7.25123H130.496V17.9156H131.938V12.0024C131.938 11.0004 132.256 10.1566 132.884 9.49648C133.519 8.82995 134.314 8.49883 135.311 8.48601C136.388 8.4796 137.23 8.75732 137.834 9.32985C138.437 9.90024 138.742 10.7355 138.742 11.8165V17.9156H140.184V11.7951C140.184 10.3446 139.733 9.18031 138.843 8.33433C137.956 7.4905 136.781 7.06324 135.345 7.06324H135.35Z" fill="#222B33"/>
<path d="M151.344 8.97096C150.958 8.46252 150.477 8.05235 149.907 7.75113C149.127 7.33669 148.272 7.1252 147.371 7.1252C145.856 7.1252 144.561 7.64005 143.523 8.65692C142.483 9.67594 141.957 10.9962 141.957 12.5813C141.957 14.1664 142.487 15.4931 143.534 16.5249C144.579 17.5567 145.871 18.078 147.373 18.078C149.033 18.078 150.366 17.4478 151.344 16.2023V17.9135H152.786V7.2491H151.344V8.97096ZM149.366 16.2045C148.791 16.5035 148.121 16.6573 147.373 16.6573C146.249 16.6573 145.296 16.275 144.54 15.5187C143.784 14.7625 143.401 13.7733 143.401 12.5813C143.401 11.3892 143.784 10.4044 144.54 9.65457C145.296 8.90473 146.249 8.52447 147.373 8.52447C148.121 8.52447 148.793 8.67615 149.366 8.97737C149.939 9.27645 150.379 9.66312 150.673 10.1267C150.977 10.601 151.205 11.1414 151.351 11.7311C151.494 12.31 151.494 12.8911 151.351 13.4615C151.208 14.0318 150.977 14.5809 150.673 15.0551C150.379 15.5187 149.939 15.9054 149.366 16.2045Z" fill="#222B33"/>
<path d="M160.216 7.06324C158.721 7.08674 157.572 7.59731 156.785 8.58428V7.25123H155.363V17.9156H156.805V12.0024C156.805 11.0004 157.123 10.1566 157.751 9.49648C158.385 8.82995 159.18 8.49883 160.178 8.48601C161.252 8.47106 162.096 8.75732 162.701 9.32985C163.303 9.90024 163.609 10.7355 163.609 11.8165V17.9156H165.051V11.7951C165.051 10.3446 164.6 9.18244 163.709 8.33433C162.823 7.4905 161.648 7.06324 160.212 7.06324H160.216Z" fill="#222B33"/>
<path d="M173.072 16.2087L172.872 16.3049C172.323 16.5655 171.825 16.6979 171.389 16.6979C170.723 16.6979 170.278 16.5313 170.067 16.2045C169.836 15.8477 169.719 15.2901 169.719 14.5488V8.52448H173.201V7.24697H169.719V4.13866L168.296 4.28607V7.24911H166.121V8.52661H168.296V14.551C168.296 15.6576 168.535 16.5249 169.005 17.1273C169.488 17.7447 170.291 18.0588 171.391 18.0588C171.987 18.0588 172.667 17.8772 173.41 17.5204L173.594 17.4328L173.075 16.2109L173.072 16.2087Z" fill="#222B33"/>
</svg>
