<svg width="123" height="24" viewBox="0 0 123 24" fill="none" xmlns="http://www.w3.org/2000/svg">
<g clip-path="url(#clip0_12158_7110)">
<path d="M2 5.8746V17.625L12.1702 23.4996L22.341 17.625V11.1312L20.9257 10.3134L18.5719 8.9538L17.6646 8.4294L17.6634 12.4836L17.6622 16.5378H16.6145H7.72467H6.6764V15.4896V9.5004V8.4516L9.423 6.8652L11.2623 5.8032L12.1696 5.2788L14.9168 6.8544L16.7554 7.9086L17.6646 8.4294V7.3812V3.1734L12.1702 0L2 5.8746Z" fill="#4E56EA"/>
<path d="M44.011 5.6904C43.7357 5.1996 43.4029 4.7664 43.0137 4.3902C42.6239 4.014 42.1273 3.7146 41.5228 3.4932C40.9183 3.2712 40.2533 3.1608 39.5283 3.1608C38.8032 3.1608 37.7112 3.1644 36.2539 3.171C34.7967 3.1776 33.7118 3.1812 33 3.1812V17.2932H35.2566V12.9588H39.5283C40.2539 12.9588 40.9183 12.8448 41.5228 12.6162C42.1273 12.3876 42.6275 12.0852 43.0239 11.709C43.4203 11.3328 43.7525 10.899 44.0212 10.4088C44.2898 9.918 44.4541 9.4008 44.5147 8.8566C44.5753 8.3124 44.5753 7.7712 44.5147 7.2336C44.4541 6.696 44.2862 6.1812 44.011 5.6904ZM42.0164 9.42C41.8215 9.8436 41.506 10.1928 41.0695 10.4682C40.6329 10.7436 40.119 10.8816 39.5283 10.8816H35.2566V5.2368H39.5283C40.1196 5.2368 40.6329 5.3748 41.0695 5.6502C41.506 5.9256 41.8215 6.2754 42.0164 6.6984C42.2113 7.122 42.3084 7.5756 42.3084 8.0592C42.3084 8.5428 42.2113 8.9964 42.0164 9.42Z" fill="#222B33"/>
<path d="M54.015 9.813L49.3608 3.201H46.7414V17.3124H48.998V6.4866L53.7332 13.1598H54.2165L59.0123 6.4866V17.3124H61.2689V3.201H58.6495L54.015 9.813Z" fill="#222B33"/>
<path d="M80.2264 7.4718C79.9182 6.6492 79.4666 5.8914 78.8843 5.2194C78.2978 4.5432 77.523 3.9978 76.5821 3.5988C75.6442 3.2016 74.5731 3 73.3989 3H68.4436V17.472H73.3989C74.6139 17.472 75.7161 17.2602 76.6744 16.842C77.6363 16.4226 78.4219 15.8496 79.0084 15.1386C79.5907 14.433 80.0351 13.6374 80.3296 12.774C80.624 11.9106 80.7595 11.001 80.732 10.0692C80.7044 9.1668 80.5341 8.2932 80.2264 7.4718ZM69.8907 4.389H73.3983C75.2442 4.389 76.6948 4.9494 77.7089 6.0546C78.7278 7.1646 79.2579 8.5188 79.2837 10.0788C79.3095 11.679 78.8057 13.0932 77.7857 14.283C76.7716 15.4656 75.2957 16.065 73.3989 16.065H69.8913L69.8907 4.389Z" fill="#222B33"/>
<path d="M87.5025 6.9924C86.0494 6.9924 84.8003 7.5018 83.7892 8.5062C82.7781 9.5112 82.2654 10.7916 82.2654 12.3132C82.2654 13.8348 82.7721 15.2004 83.7706 16.1718C84.7679 17.142 86.0236 17.634 87.5025 17.634C88.3558 17.634 89.1924 17.463 89.9906 17.1258C90.7954 16.7856 91.4503 16.2882 91.9378 15.6474L92.044 15.5076L91.0587 14.7192L90.9465 14.8644C90.6053 15.3066 90.1087 15.6606 89.4707 15.9162C88.8236 16.1754 88.1615 16.3068 87.5025 16.3068C86.4908 16.3068 85.6051 15.9828 84.8704 15.3432C84.1832 14.745 83.7736 13.9434 83.6519 12.9576H92.5825L92.5981 12.795C92.7774 10.9194 92.363 9.4668 91.3669 8.4774C90.3762 7.4928 89.0755 6.9936 87.5025 6.9936V6.9924ZM84.8824 9.2418C85.6105 8.5902 86.492 8.2596 87.5031 8.2596C88.6731 8.2596 89.6152 8.5824 90.3024 9.2196C90.9501 9.8196 91.3015 10.6638 91.3483 11.73H83.6537C83.7856 10.6908 84.1976 9.855 84.8824 9.2418Z" fill="#222B33"/>
<path d="M106.322 6.9522C105.485 6.9522 104.703 7.1784 103.999 7.6254C103.414 7.9962 102.961 8.4972 102.647 9.1182C102.351 8.4516 101.902 7.9356 101.306 7.5822C100.603 7.164 99.8094 6.9522 98.9476 6.9522C97.5995 6.9522 96.5692 7.428 95.876 8.3688L95.861 7.1538H94.5765V17.4726H95.9234V11.3856C95.9234 10.4706 96.2046 9.7116 96.7599 9.1314C97.3206 8.5446 98.0295 8.2596 98.9272 8.2596C99.825 8.2596 100.545 8.553 101.105 9.132C101.667 9.7128 101.951 10.4706 101.951 11.3856V17.4726H103.298V11.3856C103.298 10.47 103.583 9.7086 104.145 9.1212C104.712 8.5278 105.425 8.2392 106.322 8.2392C107.219 8.2392 107.929 8.5212 108.49 9.1014C109.045 9.6756 109.326 10.4238 109.326 11.325V17.4726H110.673V11.325C110.673 10.0446 110.262 8.9844 109.451 8.1738C108.641 7.3632 107.589 6.9522 106.322 6.9522Z" fill="#222B33"/>
<path d="M121.581 8.4756C120.584 7.4916 119.328 6.9924 117.848 6.9924C116.369 6.9924 115.112 7.4916 114.115 8.4756C113.117 9.4602 112.61 10.7652 112.61 12.3534C112.61 13.9416 113.117 15.2346 114.117 16.1928C115.114 17.1492 116.369 17.634 117.848 17.634C119.327 17.634 120.582 17.1492 121.579 16.1928C122.579 15.2346 123.086 13.9428 123.086 12.3534C123.086 10.764 122.579 9.4602 121.581 8.4756ZM117.848 16.3062C116.733 16.3062 115.792 15.9432 115.052 15.228C114.313 14.514 113.938 13.5474 113.938 12.3534C113.938 11.1594 114.317 10.1538 115.064 9.4062C115.812 8.6586 116.748 8.2794 117.849 8.2794C118.949 8.2794 119.886 8.6586 120.633 9.4062C121.38 10.1538 121.759 11.145 121.759 12.3534C121.759 13.5618 121.385 14.514 120.646 15.228C119.905 15.9438 118.964 16.3062 117.848 16.3062Z" fill="#222B33"/>
</g>
<defs>
<clipPath id="clip0_12158_7110">
<rect width="123" height="24" fill="white"/>
</clipPath>
</defs>
</svg>
