<svg width="135" height="24" viewBox="0 0 135 24" fill="none" xmlns="http://www.w3.org/2000/svg">
<g clip-path="url(#clip0_12158_7112)">
<path d="M43.7945 5.77208C43.52 5.28128 43.1882 4.84808 42.8002 4.47188C42.4115 4.09568 41.9165 3.79628 41.3138 3.57488C40.7111 3.35288 40.048 3.24248 39.3252 3.24248C38.6023 3.24248 37.5135 3.24608 36.0606 3.25268C34.6077 3.25928 33.5261 3.26288 32.8164 3.26288V17.3749H35.0663V13.0405H39.3252C40.0486 13.0405 40.7111 12.9265 41.3138 12.6979C41.9165 12.4693 42.4151 12.1669 42.8103 11.7907C43.2055 11.4145 43.5368 10.9807 43.8046 10.4905C44.0725 9.99968 44.2363 9.48248 44.2967 8.93828C44.3571 8.39408 44.3571 7.85288 44.2967 7.31528C44.2363 6.77768 44.0689 6.26348 43.7945 5.77328V5.77208ZM41.8058 9.50168C41.6115 9.92528 41.297 10.2745 40.8618 10.5499C40.4265 10.8253 39.9141 10.9633 39.3252 10.9633H35.0663V5.31848H39.3252C39.9147 5.31848 40.4265 5.45648 40.8618 5.73188C41.297 6.00728 41.6115 6.35708 41.8058 6.78008C42.0002 7.20368 42.097 7.65727 42.097 8.14087C42.097 8.62448 42.0002 9.07807 41.8058 9.50168Z" fill="#222B33"/>
<path d="M53.7686 9.89468L49.1283 3.28268H46.5167V17.3947H48.7666V6.56828L53.4876 13.2415H53.9695L58.7509 6.56828V17.3947H61.0008V3.28268H58.3892L53.7686 9.89468Z" fill="#222B33"/>
<path d="M69.5771 3.08228H68.1535V17.5543H69.5771V3.08228Z" fill="#222B33"/>
<path d="M77.2297 7.05367C75.7582 7.07767 74.633 7.59247 73.876 8.58547V7.23488H72.5529V17.5537H73.8958V11.8297C73.8958 10.8475 74.2073 10.0207 74.8207 9.37328C75.433 8.72768 76.2312 8.39347 77.1938 8.38087C78.2407 8.36887 79.0682 8.64668 79.6601 9.20828C80.2497 9.76808 80.548 10.5889 80.548 11.6479V17.5531H81.8909V11.6275C81.8909 10.2253 81.4562 9.09968 80.5994 8.28128C79.745 7.46588 78.612 7.05248 77.2285 7.05248L77.2297 7.05367Z" fill="#222B33"/>
<path d="M90.9969 12.3967C90.4929 12.1297 89.5685 11.8867 88.1695 11.6527C87.8412 11.5999 87.6188 11.5603 87.5094 11.5345C87.3958 11.5075 87.1847 11.4571 86.8774 11.3833C86.585 11.3131 86.3728 11.2435 86.246 11.1769C86.1121 11.1061 85.9518 11.0083 85.7713 10.8847C85.6092 10.7743 85.4909 10.6477 85.4179 10.5073C85.345 10.3663 85.3079 10.2007 85.3073 10.0117C85.2953 9.47528 85.5441 9.07688 86.0672 8.79308C86.6197 8.49368 87.3097 8.34788 88.1216 8.36108C89.3431 8.36108 90.344 8.69888 91.0968 9.36428L91.2271 9.47948L92.0714 8.57587L91.941 8.45288C90.9736 7.53728 89.6887 7.07348 88.124 7.07348C86.9964 7.05968 86.0212 7.30268 85.2248 7.79588C84.4009 8.30648 83.9901 9.06068 84.0045 10.0357C84.0045 10.4545 84.0936 10.8265 84.2682 11.1415C84.4386 11.4481 84.6383 11.6989 84.8619 11.8873C85.0855 12.0751 85.4054 12.2425 85.8125 12.3835C86.2059 12.5197 86.5509 12.6199 86.8379 12.6817C87.1213 12.7429 87.5166 12.8143 88.0128 12.8953C88.4367 12.9619 88.765 13.0189 88.9886 13.0651C89.2098 13.1107 89.492 13.1839 89.828 13.2829C90.1467 13.3771 90.3841 13.4827 90.5336 13.5961C90.6836 13.7101 90.8212 13.8643 90.9431 14.0545C91.0573 14.2321 91.1069 14.4379 91.095 14.6875C91.083 15.1207 90.9174 15.4621 90.588 15.7327C90.2436 16.0153 89.8741 16.1995 89.4896 16.2805C89.0884 16.3651 88.6484 16.4077 88.1802 16.4077C87.498 16.4077 86.829 16.2703 86.191 15.9985C85.5632 15.7309 85.0586 15.3253 84.6915 14.7919L84.5761 14.6245L83.5865 15.5071L83.6703 15.6367C84.1031 16.3093 84.7345 16.8301 85.5471 17.1859C86.3494 17.5369 87.229 17.7151 88.1599 17.7151C88.8283 17.7151 89.4615 17.6383 90.0433 17.4877C90.64 17.3329 91.1835 17.0227 91.6594 16.5667C92.1485 16.0975 92.4038 15.4885 92.4175 14.7607C92.4606 13.6801 91.9817 12.8839 90.9969 12.3967Z" fill="#222B33"/>
<path d="M99.8195 7.09448H99.813C98.8336 7.09448 97.9416 7.33028 97.1601 7.79468C96.5688 8.14628 96.0773 8.59688 95.6934 9.13808V7.23548H94.3703V22.3729H95.6731V15.7279C96.06 16.2913 96.5419 16.7437 97.1111 17.0767C97.8584 17.5141 98.6931 17.7361 99.5923 17.7361C101.093 17.7361 102.352 17.2579 103.333 16.3153C104.316 15.3703 104.814 14.0515 104.814 12.3955C104.814 10.7395 104.34 9.52688 103.406 8.58908C102.473 7.65308 101.266 7.14968 99.8195 7.09448ZM99.5918 16.4281C98.5089 16.4281 97.5888 16.0465 96.8576 15.2929C96.1251 14.5381 95.7532 13.5703 95.7532 12.4147C95.7532 11.2591 96.1215 10.2739 96.8474 9.52628C97.572 8.77988 98.4958 8.40128 99.5918 8.40128C100.688 8.40128 101.656 8.74747 102.382 9.43087C103.104 10.1113 103.471 11.1085 103.471 12.3943C103.471 13.6801 103.104 14.6851 102.381 15.3787C101.656 16.0747 100.717 16.4281 99.5918 16.4281Z" fill="#222B33"/>
<path d="M111.445 7.07408C109.996 7.07408 108.75 7.58348 107.742 8.58788C106.734 9.59288 106.223 10.8739 106.223 12.3949C106.223 13.9159 106.728 15.2821 107.724 16.2535C108.718 17.2237 109.97 17.7157 111.445 17.7157C112.296 17.7157 113.13 17.5447 113.926 17.2075C114.728 16.8673 115.381 16.3699 115.867 15.7297L115.973 15.5899L114.991 14.8015L114.879 14.9467C114.539 15.3889 114.044 15.7429 113.407 15.9985C112.762 16.2577 112.102 16.3885 111.445 16.3885C110.436 16.3885 109.553 16.0645 108.82 15.4249C108.135 14.8267 107.727 14.0251 107.605 13.0393H116.509L116.525 12.8767C116.704 11.0011 116.291 9.54848 115.297 8.55848C114.31 7.57388 113.013 7.07408 111.445 7.07408ZM108.832 9.32348C109.558 8.67188 110.436 8.34128 111.445 8.34128C112.611 8.34128 113.55 8.66408 114.236 9.30128C114.881 9.90128 115.232 10.7455 115.278 11.8117H107.607C107.738 10.7725 108.149 9.93608 108.832 9.32348Z" fill="#222B33"/>
<path d="M123.116 8.36108C124.267 8.36108 125.231 8.74328 125.982 9.49748L126.109 9.62468L126.988 8.74328L126.857 8.61608C125.81 7.59248 124.551 7.07348 123.116 7.07348C121.682 7.07348 120.346 7.56548 119.345 8.53508C118.343 9.50648 117.834 10.8049 117.834 12.3943C117.834 13.9837 118.349 15.2653 119.366 16.2439C120.38 17.2201 121.642 17.7151 123.116 17.7151C124.589 17.7151 125.837 17.1955 126.858 16.1707L126.985 16.0435L126.069 15.1237L125.942 15.2509C125.163 16.0321 124.213 16.4281 123.116 16.4281C122.018 16.4281 121.055 16.0615 120.296 15.3385C119.54 14.6179 119.156 13.6273 119.156 12.3949C119.156 11.1625 119.54 10.1713 120.296 9.45128C121.055 8.72828 122.004 8.36108 123.116 8.36108Z" fill="#222B33"/>
<path d="M134.518 15.9619L134.349 16.0429C133.813 16.2991 133.326 16.4287 132.899 16.4287C132.244 16.4287 131.804 16.2631 131.593 15.9361C131.366 15.5845 131.251 15.0373 131.251 14.3107V8.42228H134.626V7.23548H131.251V4.21208L129.927 4.35008V7.23548H127.818V8.42228H129.927V14.3107C129.927 15.3817 130.156 16.2193 130.608 16.8001C131.071 17.3947 131.841 17.6959 132.9 17.6959C133.473 17.6959 134.128 17.5201 134.846 17.1739L135 17.0995L134.518 15.9619Z" fill="#222B33"/>
<path d="M2 5.8746V17.625L12.2098 23.4996L22.4202 17.625V11.1312L20.9994 10.3134L18.6365 8.9538L17.7256 8.4294L17.7244 12.4836L17.7232 16.5378H16.6714H7.74696H6.69462V15.4896V9.5004V8.4516L9.45191 6.8652L11.2983 5.8032L12.2092 5.2788L14.9671 6.8544L16.8129 7.9086L17.7256 8.4294V7.3812V3.1734L12.2098 0L2 5.8746Z" fill="#4E56EA"/>
</g>
<defs>
<clipPath id="clip0_12158_7112">
<rect width="135" height="24" fill="white"/>
</clipPath>
</defs>
</svg>
