<svg width="118" height="24" viewBox="0 0 118 24" fill="none" xmlns="http://www.w3.org/2000/svg">
<g clip-path="url(#clip0_12158_7111)">
<path d="M2 5.8746V17.625L12.2098 23.4996L22.4202 17.625V11.1312L20.9994 10.3134L18.6365 8.9538L17.7256 8.4294L17.7244 12.4836L17.7232 16.5378H16.6714H7.74696H6.69462V15.4896V9.5004V8.4516L9.45191 6.8652L11.2983 5.8032L12.2092 5.2788L14.9671 6.8544L16.8129 7.9086L17.7256 8.4294V7.3812V3.1734L12.2098 0L2 5.8746Z" fill="#4E56EA"/>
<path d="M44.0968 5.77202C43.8205 5.28122 43.4864 4.84802 43.0956 4.47182C42.7043 4.09562 42.2058 3.79622 41.599 3.57482C40.9922 3.35282 40.3245 3.24242 39.5967 3.24242C38.8688 3.24242 37.7725 3.24602 36.3096 3.25262C34.8466 3.25922 33.7576 3.26282 33.043 3.26282V17.3748H35.3084V13.0404H39.5967C40.3251 13.0404 40.9922 12.9264 41.599 12.6978C42.2058 12.4692 42.7079 12.1668 43.1059 11.7906C43.5038 11.4144 43.8373 10.9806 44.1071 10.4904C44.3768 9.99962 44.5417 9.48242 44.6025 8.93822C44.6633 8.39402 44.6633 7.85282 44.6025 7.31522C44.5417 6.77762 44.3731 6.26342 44.0968 5.77322V5.77202ZM42.0945 9.50162C41.8988 9.92522 41.5821 10.2744 41.1439 10.5498C40.7056 10.8252 40.1896 10.9632 39.5967 10.9632H35.3084V5.31842H39.5967C40.1903 5.31842 40.7056 5.45642 41.1439 5.73182C41.5821 6.00722 41.8988 6.35702 42.0945 6.78002C42.2901 7.20362 42.3877 7.65721 42.3877 8.14081C42.3877 8.62441 42.2901 9.07801 42.0945 9.50162Z" fill="#222B33"/>
<path d="M54.1399 9.89462L49.4675 3.28262H46.8379V17.3946H49.1033V6.56822L53.8569 13.2414H54.3421L59.1566 6.56822V17.3946H61.422V3.28262H58.7923L54.1399 9.89462Z" fill="#222B33"/>
<path d="M77.2397 10.419C76.5714 10.086 75.3716 9.75782 73.5709 9.41522C72.9942 9.30842 72.53 9.21722 72.1905 9.14401C71.8557 9.07201 71.4753 8.96222 71.0593 8.81762C70.6541 8.67662 70.3441 8.52602 70.1376 8.37002C69.9347 8.21642 69.7559 8.01361 69.6066 7.76581C69.4627 7.52641 69.3898 7.24562 69.3898 6.93121C69.3898 6.27961 69.6186 5.75582 70.0888 5.33102C70.5698 4.89662 71.1014 4.60502 71.6697 4.46522C72.2531 4.32182 72.8678 4.24862 73.4951 4.24862C74.4415 4.26182 75.2686 4.39382 75.9544 4.64102C76.6202 4.88102 77.1849 5.36522 77.6328 6.07922L77.7261 6.22802L78.9332 5.51701L78.8254 5.35862C78.1602 4.37822 77.3944 3.71162 76.548 3.37682C75.7148 3.04742 74.6883 2.88062 73.4975 2.88062C72.8533 2.88062 72.2206 2.95022 71.6167 3.08642C71.0117 3.22382 70.4157 3.43862 69.8456 3.72662C69.2586 4.02242 68.7854 4.45502 68.4386 5.01182C68.0913 5.57042 67.9221 6.23042 67.9359 6.97142C67.9359 7.40762 68.0046 7.80902 68.14 8.16422C68.2785 8.52722 68.503 8.84342 68.8083 9.10382C69.0979 9.35102 69.3808 9.55982 69.6505 9.72542C69.9263 9.89462 70.3188 10.0536 70.8173 10.1982C71.3043 10.3398 71.7058 10.446 72.0123 10.5138C72.3151 10.581 72.7558 10.6692 73.3235 10.7772C73.831 10.8702 74.2235 10.9482 74.4896 11.0076C74.7551 11.067 75.1061 11.1582 75.5323 11.2776C75.9477 11.394 76.2704 11.517 76.4932 11.6436C76.7195 11.7726 76.9567 11.9364 77.1969 12.1308C77.4203 12.3114 77.5828 12.5274 77.6786 12.7722C77.7779 13.0254 77.8279 13.3122 77.8279 13.6242C77.8279 14.175 77.6894 14.6484 77.4161 15.0318C77.141 15.4188 76.7725 15.7098 76.321 15.897C75.8502 16.0926 75.38 16.2312 74.9237 16.3092C74.4643 16.3878 73.9845 16.4274 73.4975 16.4274C72.5854 16.4274 71.6625 16.206 70.754 15.7698C69.8582 15.3396 69.2086 14.7324 68.8245 13.9662L68.7439 13.8054L67.4489 14.4504L67.5308 14.6118C68.0594 15.651 68.8902 16.4484 70.0003 16.9806C71.099 17.5074 72.2754 17.7744 73.4969 17.7744C74.1663 17.7744 74.8147 17.712 75.424 17.5896C76.0356 17.4666 76.6449 17.2614 77.2361 16.9812C77.8435 16.6926 78.3414 16.257 78.7153 15.6876C79.0903 15.1158 79.2806 14.4282 79.2806 13.6434C79.2806 12.1644 78.593 11.079 77.2391 10.4178L77.2397 10.419Z" fill="#222B33"/>
<path d="M89.8636 8.96762C89.4807 8.44442 88.9967 8.02622 88.42 7.72022C87.662 7.31822 86.8336 7.11422 85.9583 7.11422C84.4869 7.11422 83.2293 7.61342 82.2215 8.59682C81.2125 9.58202 80.7008 10.8594 80.7008 12.3948C80.7008 13.9302 81.2155 15.2142 82.2311 16.212C83.2461 17.2098 84.5002 17.7156 85.9583 17.7156C87.5964 17.7156 88.9082 17.0838 89.8636 15.8364V17.5542H91.2158V7.23541H89.8636V8.96762ZM87.9173 15.9444C87.3526 16.2384 86.6933 16.3878 85.9577 16.3878C84.8529 16.3878 83.9162 16.0122 83.1727 15.2712C82.4292 14.5302 82.0523 13.5624 82.0523 12.3948C82.0523 11.2272 82.4292 10.263 83.1721 9.52922C83.9156 8.79482 84.8529 8.42221 85.9577 8.42221C86.6933 8.42221 87.3526 8.57161 87.9173 8.86561C88.4796 9.15841 88.9124 9.53761 89.2038 9.99241C89.5018 10.4574 89.7258 10.9854 89.8684 11.5614C90.0087 12.1278 90.0087 12.699 89.8684 13.2588C89.7258 13.8282 89.5018 14.3532 89.2038 14.8182C88.9124 15.273 88.4796 15.6516 87.9173 15.9444Z" fill="#222B33"/>
<path d="M95.4432 3.08222H94.0911V17.5542H95.4432V3.08222Z" fill="#222B33"/>
<path d="M102.909 7.07402C101.45 7.07402 100.196 7.58342 99.1812 8.58782C98.1662 9.59282 97.6515 10.8738 97.6515 12.3948C97.6515 13.9158 98.1602 15.282 99.1626 16.2534C100.164 17.2236 101.424 17.7156 102.909 17.7156C103.766 17.7156 104.605 17.5446 105.407 17.2074C106.215 16.8672 106.872 16.3698 107.362 15.7296L107.468 15.5898L106.479 14.8014L106.367 14.9466C106.024 15.3888 105.526 15.7428 104.885 15.9984C104.236 16.2576 103.571 16.3884 102.91 16.3884C101.894 16.3884 101.005 16.0644 100.267 15.4248C99.5768 14.8266 99.1656 14.025 99.0434 13.0392H108.009L108.024 12.8766C108.204 11.001 107.788 9.54841 106.788 8.55841C105.794 7.57381 104.488 7.07402 102.909 7.07402ZM100.278 9.32341C101.009 8.67181 101.894 8.34122 102.909 8.34122C104.084 8.34122 105.029 8.66402 105.719 9.30122C106.369 9.90122 106.722 10.7454 106.769 11.8116H99.0446C99.177 10.7724 99.5906 9.93601 100.278 9.32341Z" fill="#222B33"/>
<path d="M116.566 12.3966C116.058 12.1296 115.128 11.8866 113.719 11.6526C113.388 11.5998 113.165 11.5602 113.054 11.5344C112.94 11.5074 112.727 11.457 112.418 11.3832C112.124 11.313 111.91 11.2434 111.782 11.1768C111.647 11.106 111.486 11.0082 111.304 10.8846C111.141 10.7742 111.022 10.6476 110.948 10.5072C110.875 10.3662 110.837 10.2006 110.837 10.0116C110.825 9.47521 111.076 9.07682 111.602 8.79302C112.159 8.49362 112.854 8.34842 113.671 8.36102C114.901 8.36102 115.909 8.69882 116.667 9.36422L116.798 9.47942L117.648 8.57581L117.517 8.45282C116.543 7.53722 115.249 7.07341 113.673 7.07341C112.538 7.06021 111.556 7.30261 110.754 7.79581C109.924 8.30641 109.511 9.06061 109.525 10.0356C109.525 10.4544 109.614 10.8264 109.791 11.1414C109.962 11.448 110.163 11.6988 110.389 11.8872C110.614 12.0756 110.936 12.2424 111.346 12.3834C111.742 12.5196 112.089 12.6198 112.378 12.6816C112.664 12.7428 113.062 12.8142 113.561 12.8952C113.988 12.9618 114.319 13.0188 114.544 13.065C114.767 13.1106 115.051 13.1838 115.389 13.2828C115.71 13.377 115.949 13.4826 116.099 13.596C116.251 13.71 116.389 13.8642 116.512 14.0544C116.627 14.232 116.677 14.4378 116.665 14.6874C116.653 15.1206 116.487 15.4626 116.155 15.7326C115.808 16.0152 115.436 16.1994 115.049 16.2804C114.645 16.365 114.202 16.4076 113.73 16.4076C113.044 16.4076 112.37 16.2702 111.727 15.9984C111.095 15.7308 110.587 15.3252 110.218 14.7918L110.101 14.6244L109.105 15.507L109.189 15.6366C109.625 16.3092 110.261 16.83 111.079 17.1858C111.887 17.5368 112.772 17.715 113.71 17.715C114.382 17.715 115.021 17.6382 115.606 17.4876C116.207 17.3328 116.754 17.0226 117.233 16.5666C117.726 16.0974 117.983 15.4884 117.997 14.7606C118.04 13.68 117.558 12.8838 116.566 12.3966Z" fill="#222B33"/>
</g>
<defs>
<clipPath id="clip0_12158_7111">
<rect width="118" height="24" fill="white"/>
</clipPath>
</defs>
</svg>
