<svg width="174" height="24" viewBox="0 0 174 24" fill="none" xmlns="http://www.w3.org/2000/svg">
<g clip-path="url(#clip0_12158_7109)">
<path d="M22.4927 0.131348C5.55828 0.131348 2.62188 16.7351 1.49268 23.5091H2.89308C3.26808 21.0239 5.80908 11.1959 11.9927 6.57115C11.9927 6.57115 7.28928 12.3959 6.50568 19.1375C9.36648 18.5927 18.0653 16.3217 19.9115 8.34415L16.7045 7.83595C17.8337 6.70675 20.8037 3.51895 22.4921 0.131948L22.4927 0.131348Z" fill="#4E56EA"/>
<path d="M41.4121 12.2508C44.5255 11.622 45.0043 9.16741 45.0043 7.79041C45.0043 4.55701 42.3397 3.0906 39.8551 3.0606H32.9995V17.58H35.3347V12.5508H38.4181L38.4481 12.6108L42.7891 17.58H45.6331L40.9927 12.3408L41.4121 12.2508ZM35.3053 10.5144V5.1858H39.8557C41.8015 5.1858 42.6697 6.53281 42.6697 7.85041C42.6697 9.168 41.8015 10.515 39.8557 10.515L35.3053 10.5144Z" fill="#222B33"/>
<path d="M51.8599 7.19161C48.6565 7.19161 46.5013 9.31681 46.5013 12.4602C46.5013 15.783 48.6271 17.8488 52.0693 17.8488C53.6857 17.8488 55.2727 17.28 56.2603 16.3818L54.9433 15.0948C54.1951 15.6936 52.9675 15.993 52.1293 15.993C50.2435 15.993 48.9259 15.0348 48.7165 13.5084L48.6865 13.209H57.0091C57.0991 11.2632 56.6797 9.67621 55.7515 8.65861C54.8833 7.70041 53.5363 7.19161 51.8599 7.19161ZM48.6271 11.562L48.7171 11.2326C49.1065 9.82561 50.3035 8.98741 51.9205 8.98741C53.6569 8.98741 54.7345 9.82561 54.9139 11.2626L54.9439 11.562H48.6271Z" fill="#222B33"/>
<path d="M86.1373 7.46101H84.0415V17.5794H86.1373V7.46101Z" fill="#222B33"/>
<path d="M93.8611 15.843C92.8429 15.843 92.2441 15.1842 92.2441 14.0766V9.25681H95.1781V7.52041H92.2741V4.55641L90.1789 4.76581V7.51981H88.2031V9.25621H90.1789V14.076C90.1789 15.3036 90.5077 16.2312 91.1365 16.86C91.7353 17.4288 92.6335 17.7282 93.6811 17.6982C94.3699 17.6682 94.9087 17.5782 95.5375 17.3388L94.9687 15.6024C94.6093 15.7524 94.1899 15.8418 93.8611 15.8418V15.843Z" fill="#222B33"/>
<path d="M67.1575 8.38861L66.9181 8.20921C65.9899 7.55041 64.9123 7.19161 63.7747 7.19161C60.8113 7.19161 58.4161 9.58681 58.4161 12.5502C58.4161 15.5136 60.8113 17.9088 63.7747 17.9088C64.9123 17.9088 65.9899 17.5494 66.9181 16.8912L67.1575 16.7118V17.55H69.1933V7.49161H67.1575V8.38981V8.38861ZM63.7747 15.873C61.9489 15.873 60.4819 14.376 60.4819 12.5802C60.4819 10.7844 61.9783 9.28741 63.7747 9.28741C65.5711 9.28741 67.0675 10.7844 67.0675 12.5802C67.0675 14.376 65.6011 15.873 63.7747 15.873Z" fill="#222B33"/>
<path d="M76.8271 7.1316C75.6895 7.1316 74.6119 7.491 73.6837 8.1492L73.4443 8.3286V7.49041H71.4085V21.8298H73.4443V16.6506L73.6837 16.83C74.6119 17.4888 75.6895 17.8476 76.8271 17.8476C79.7905 17.8476 82.1857 15.4524 82.1857 12.489C82.1857 9.5256 79.7905 7.13041 76.8271 7.13041V7.1316ZM76.8271 15.783C75.0307 15.783 73.5343 14.286 73.5343 12.4902C73.5343 10.6944 75.0007 9.1974 76.8271 9.1974C78.6535 9.1974 80.1199 10.6944 80.1199 12.4902C80.1199 14.286 78.6235 15.783 76.8271 15.783Z" fill="#222B33"/>
<path d="M85.0897 3C84.4609 3 83.8021 3.3894 83.8021 4.287C83.8021 5.1846 84.4609 5.574 85.0897 5.574C85.7185 5.574 86.3767 5.1846 86.3767 4.287C86.3767 3.3894 85.7179 3 85.0897 3Z" fill="#222B33"/>
<path d="M101.534 3.08219H100.086V17.5542H109.477V16.1664H101.534V3.08219Z" fill="#222B33"/>
<path d="M115.103 7.07401C113.649 7.07401 112.399 7.58341 111.388 8.58781C110.376 9.59281 109.863 10.8732 109.863 12.3948C109.863 13.9164 110.37 15.282 111.369 16.2534C112.367 17.2236 113.623 17.7156 115.103 17.7156C115.957 17.7156 116.794 17.5446 117.592 17.2074C118.398 16.8672 119.053 16.3698 119.541 15.729L119.647 15.5892L118.661 14.8008L118.549 14.946C118.207 15.3882 117.711 15.7422 117.072 15.9978C116.425 16.257 115.762 16.3884 115.103 16.3884C114.091 16.3884 113.205 16.0644 112.47 15.4248C111.782 14.8266 111.372 14.025 111.25 13.0392H120.186L120.201 12.8766C120.381 11.001 119.966 9.54841 118.969 8.55841C117.978 7.57381 116.677 7.07401 115.103 7.07401ZM112.482 9.32341C113.21 8.67181 114.092 8.34121 115.104 8.34121C116.274 8.34121 117.216 8.66401 117.904 9.30121C118.552 9.90121 118.904 10.7454 118.951 11.8116H111.252C111.384 10.773 111.796 9.93661 112.482 9.32341Z" fill="#222B33"/>
<path d="M127.566 16.0428C127.028 16.299 126.538 16.4286 126.111 16.4286C125.453 16.4286 125.012 16.263 124.8 15.936C124.572 15.5844 124.456 15.0372 124.456 14.3106V8.42219H127.843V7.2354H124.456V4.212L123.129 4.34999V7.2354H121.012V8.42219H123.129V14.3106C123.129 15.3816 123.358 16.2192 123.812 16.8C124.276 17.3946 125.049 17.6958 126.111 17.6958C126.687 17.6958 127.344 17.52 128.064 17.1738L128.219 17.0994L127.735 15.9618L127.566 16.0428Z" fill="#222B33"/>
<path d="M134.964 16.0428C134.426 16.299 133.936 16.4286 133.509 16.4286C132.851 16.4286 132.41 16.263 132.198 15.936C131.97 15.5844 131.854 15.0372 131.854 14.3106V8.42219H135.241V7.2354H131.854V4.212L130.527 4.34999V7.2354H128.41V8.42219H130.527V14.3106C130.527 15.3816 130.756 16.2192 131.21 16.8C131.674 17.3946 132.447 17.6958 133.509 17.6958C134.085 17.6958 134.742 17.52 135.462 17.1738L135.617 17.0994L135.133 15.9618L134.964 16.0428Z" fill="#222B33"/>
<path d="M138.413 3.45719C138.213 3.28859 137.991 3.20339 137.753 3.20339C137.515 3.20339 137.293 3.28859 137.093 3.45719C136.883 3.63359 136.777 3.87299 136.777 4.16939C136.777 4.46579 136.883 4.70579 137.093 4.88159C137.293 5.05019 137.515 5.1354 137.753 5.1354C137.991 5.1354 138.213 5.05019 138.413 4.88159C138.623 4.70519 138.729 4.46579 138.729 4.16939C138.729 3.87299 138.623 3.63299 138.413 3.45719Z" fill="#222B33"/>
<path d="M138.406 7.19521H137.059V17.5548H138.406V7.19521Z" fill="#222B33"/>
<path d="M146.106 7.0542C144.629 7.0782 143.5 7.59301 142.741 8.58601V7.2354H141.413V17.5542H142.761V11.8302C142.761 10.848 143.073 10.0212 143.689 9.37381C144.303 8.72821 145.104 8.394 146.07 8.3814C146.093 8.3814 146.116 8.3814 146.139 8.3814C147.156 8.3814 147.964 8.6598 148.545 9.2094C149.137 9.7692 149.436 10.59 149.436 11.649V17.5542H150.784V11.6286C150.784 10.2264 150.348 9.1008 149.488 8.2824C148.63 7.467 147.493 7.0536 146.105 7.0536L146.106 7.0542Z" fill="#222B33"/>
<path d="M162.226 14.9028C162.794 14.037 163.082 13.098 163.082 12.1128C163.082 11.283 162.953 10.5984 162.701 10.0788C162.472 9.60901 162.153 9.13981 161.75 8.68261L162.791 7.45801L161.875 6.65641L160.833 7.88221C160.009 7.34641 158.99 7.07461 157.801 7.07461C156.433 7.07461 155.194 7.52581 154.118 8.41621C153.031 9.31501 152.48 10.5588 152.48 12.1134C152.48 13.668 152.978 14.9232 153.96 15.8148C154.938 16.7022 156.229 17.1516 157.801 17.1516C158.826 17.1516 159.746 17.3778 160.534 17.8236C161.301 18.2568 161.673 18.8748 161.673 19.713C161.673 20.5512 161.313 21.1632 160.574 21.5826C159.812 22.0152 158.879 22.2342 157.8 22.2342C156.721 22.2342 155.868 21.9804 155.129 21.4788C154.402 20.9856 154.049 20.3028 154.049 19.3902V19.2102H152.701V19.3902C152.701 20.667 153.203 21.6924 154.194 22.437C155.169 23.1702 156.382 23.5416 157.8 23.5416C159.218 23.5416 160.458 23.2062 161.458 22.5438C162.481 21.8664 163 20.9136 163 19.7124C163 18.7926 162.697 18.03 162.098 17.4468C161.638 16.9974 161.052 16.6524 160.352 16.4178C161.134 16.1154 161.762 15.6072 162.224 14.9022L162.226 14.9028ZM155.031 9.34021C155.841 8.69101 156.774 8.36161 157.801 8.36161C158.896 8.36161 159.841 8.68321 160.61 9.31861C161.369 9.94501 161.754 10.8852 161.754 12.1128C161.754 13.134 161.385 14.0238 160.657 14.7582C159.93 15.492 158.969 15.864 157.801 15.864C156.634 15.864 155.644 15.543 154.915 14.91C154.194 14.2836 153.828 13.3422 153.828 12.1128C153.828 10.8834 154.222 9.98881 155.031 9.34021Z" fill="#222B33"/>
<path d="M171.775 12.3972C171.27 12.1302 170.342 11.8872 168.938 11.6532C168.608 11.6004 168.385 11.5608 168.276 11.535C168.162 11.508 167.95 11.4576 167.641 11.3838C167.348 11.3136 167.135 11.2446 167.008 11.1774C166.873 11.1066 166.713 11.0088 166.531 10.8852C166.369 10.7748 166.25 10.6482 166.177 10.5078C166.104 10.3662 166.066 10.2012 166.066 10.0122C166.054 9.47581 166.303 9.07741 166.828 8.79361C167.383 8.49421 168.075 8.34901 168.89 8.36161C170.116 8.36161 171.12 8.69941 171.876 9.36481L172.006 9.48001L172.854 8.57641L172.723 8.45341C171.752 7.53781 170.463 7.07401 168.892 7.07401C167.763 7.06141 166.782 7.30321 165.984 7.79641C165.157 8.30701 164.745 9.06121 164.759 10.0362C164.759 10.455 164.848 10.827 165.023 11.142C165.195 11.4486 165.396 11.6994 165.619 11.8878C165.844 12.0756 166.165 12.243 166.573 12.384C166.968 12.5202 167.314 12.6204 167.602 12.6822C167.887 12.7428 168.283 12.8148 168.781 12.8958C169.206 12.9624 169.536 13.0194 169.761 13.0656C169.983 13.1112 170.266 13.185 170.603 13.284C170.923 13.3782 171.161 13.4838 171.311 13.5972C171.462 13.7118 171.6 13.866 171.722 14.0556C171.837 14.2332 171.886 14.439 171.875 14.6886C171.863 15.1218 171.697 15.4638 171.366 15.7338C171.021 16.0164 170.65 16.2006 170.264 16.2816C169.861 16.3662 169.419 16.4088 168.95 16.4088C168.265 16.4088 167.594 16.2714 166.954 15.9996C166.324 15.732 165.817 15.3264 165.449 14.793L165.333 14.6256L164.34 15.5082L164.424 15.6378C164.859 16.3104 165.492 16.8312 166.308 17.187C167.113 17.538 167.995 17.7162 168.93 17.7162C169.6 17.7162 170.236 17.6394 170.82 17.4888C171.418 17.334 171.964 17.0238 172.441 16.5678C172.932 16.0986 173.188 15.4896 173.202 14.7618C173.245 13.6812 172.764 12.8844 171.775 12.3972Z" fill="#222B33"/>
</g>
<defs>
<clipPath id="clip0_12158_7109">
<rect width="174" height="24" fill="white"/>
</clipPath>
</defs>
</svg>
