<svg width="150" height="24" viewBox="0 0 150 24" fill="none" xmlns="http://www.w3.org/2000/svg">
<g clip-path="url(#clip0_12158_7108)">
<path d="M3.93706 0.23999V3.41399H16.5773V19.8252H20.0477V0.23999H3.93706Z" fill="#4E56EA"/>
<path d="M12.805 23.76V6.8232L3.93706 3.41399L3.93701 20.3538L12.805 23.76Z" fill="#4E56EA"/>
<path d="M41.4121 12.2509C44.5255 11.6221 45.0043 9.16755 45.0043 7.79055C45.0043 4.55714 42.3397 3.09075 39.8551 3.06075H32.9995V17.5801H35.3347V12.5509H38.4181L38.4481 12.6109L42.7891 17.5801H45.6331L40.9927 12.3409L41.4121 12.2509ZM35.3053 10.5145V5.18595H39.8557C41.8015 5.18595 42.6697 6.53295 42.6697 7.85055C42.6697 9.16815 41.8015 10.5151 39.8557 10.5151L35.3053 10.5145Z" fill="#222B33"/>
<path d="M51.8599 7.19175C48.6565 7.19175 46.5013 9.31695 46.5013 12.4604C46.5013 15.7832 48.6271 17.849 52.0693 17.849C53.6857 17.849 55.2727 17.2802 56.2603 16.382L54.9433 15.095C54.1951 15.6938 52.9675 15.9932 52.1293 15.9932C50.2435 15.9932 48.9259 15.035 48.7165 13.5086L48.6865 13.2092H57.0091C57.0991 11.2634 56.6797 9.67635 55.7515 8.65875C54.8833 7.70055 53.5363 7.19175 51.8599 7.19175ZM48.6271 11.5622L48.7171 11.2328C49.1065 9.82575 50.3035 8.98755 51.9205 8.98755C53.6569 8.98755 54.7345 9.82575 54.9139 11.2628L54.9439 11.5622H48.6271Z" fill="#222B33"/>
<path d="M86.1373 7.46115H84.0415V17.5796H86.1373V7.46115Z" fill="#222B33"/>
<path d="M93.8611 15.8432C92.8429 15.8432 92.2441 15.1844 92.2441 14.0768V9.25696H95.1781V7.52056H92.2741V4.55656L90.1789 4.76596V7.51996H88.2031V9.25636H90.1789V14.0762C90.1789 15.3038 90.5077 16.2314 91.1365 16.8602C91.7353 17.429 92.6335 17.7284 93.6811 17.6984C94.3699 17.6684 94.9087 17.5784 95.5375 17.339L94.9687 15.6026C94.6093 15.7526 94.1899 15.842 93.8611 15.842V15.8432Z" fill="#222B33"/>
<path d="M67.1575 8.38875L66.9181 8.20935C65.9899 7.55055 64.9123 7.19175 63.7747 7.19175C60.8113 7.19175 58.4161 9.58695 58.4161 12.5504C58.4161 15.5138 60.8113 17.909 63.7747 17.909C64.9123 17.909 65.9899 17.5496 66.9181 16.8914L67.1575 16.712V17.5502H69.1933V7.49175H67.1575V8.38995V8.38875ZM63.7747 15.8732C61.9489 15.8732 60.4819 14.3762 60.4819 12.5804C60.4819 10.7846 61.9783 9.28755 63.7747 9.28755C65.5711 9.28755 67.0675 10.7846 67.0675 12.5804C67.0675 14.3762 65.6011 15.8732 63.7747 15.8732Z" fill="#222B33"/>
<path d="M76.8271 7.13175C75.6895 7.13175 74.6119 7.49115 73.6837 8.14935L73.4443 8.32875V7.49055H71.4085V21.83H73.4443V16.6508L73.6837 16.8302C74.6119 17.489 75.6895 17.8478 76.8271 17.8478C79.7905 17.8478 82.1857 15.4526 82.1857 12.4892C82.1857 9.52575 79.7905 7.13055 76.8271 7.13055V7.13175ZM76.8271 15.7832C75.0307 15.7832 73.5343 14.2862 73.5343 12.4904C73.5343 10.6946 75.0007 9.19755 76.8271 9.19755C78.6535 9.19755 80.1199 10.6946 80.1199 12.4904C80.1199 14.2862 78.6235 15.7832 76.8271 15.7832Z" fill="#222B33"/>
<path d="M85.0897 3.00015C84.4609 3.00015 83.8021 3.38955 83.8021 4.28715C83.8021 5.18475 84.4609 5.57414 85.0897 5.57414C85.7185 5.57414 86.3767 5.18475 86.3767 4.28715C86.3767 3.38955 85.7179 3.00015 85.0897 3.00015Z" fill="#222B33"/>
<path d="M108.672 10.4197C108.006 10.0867 106.81 9.75855 105.016 9.41595C104.443 9.30915 103.98 9.21795 103.64 9.14475C103.306 9.07275 102.927 8.96295 102.513 8.81835C102.109 8.67735 101.8 8.52675 101.594 8.37135C101.392 8.21775 101.214 8.01495 101.065 7.76715C100.921 7.52775 100.849 7.24695 100.849 6.93255C100.849 6.28095 101.077 5.75715 101.545 5.33235C102.025 4.89795 102.555 4.60635 103.121 4.46655C103.702 4.32315 104.315 4.24995 104.94 4.24995C105.883 4.26315 106.708 4.39515 107.391 4.64235C108.055 4.88235 108.618 5.36655 109.064 6.08055L109.157 6.22935L110.36 5.51835L110.253 5.35995C109.59 4.37955 108.826 3.71295 107.983 3.37815C107.152 3.04875 106.129 2.88135 104.943 2.88135C104.301 2.88135 103.67 2.95095 103.068 3.08715C102.465 3.22395 101.871 3.43935 101.303 3.72675C100.718 4.02255 100.246 4.45515 99.9007 5.01195C99.5545 5.57055 99.3859 6.23115 99.3997 6.97155C99.3997 7.40835 99.4681 7.80915 99.6031 8.16435C99.7411 8.52735 99.9649 8.84355 100.269 9.10395C100.558 9.35115 100.84 9.55995 101.109 9.72555C101.383 9.89475 101.775 10.0537 102.271 10.1983C102.757 10.3399 103.158 10.4461 103.462 10.5139C103.765 10.5812 104.205 10.67 104.769 10.7774C105.275 10.8704 105.666 10.9483 105.931 11.0077C106.196 11.0671 106.546 11.1583 106.971 11.2777C107.385 11.3941 107.707 11.5172 107.928 11.6438C108.154 11.7728 108.39 11.9366 108.63 12.131C108.852 12.3116 109.014 12.5276 109.11 12.7724C109.209 13.0256 109.258 13.3124 109.258 13.6244C109.258 14.1752 109.12 14.6485 108.848 15.0319C108.574 15.4189 108.206 15.71 107.757 15.8972C107.287 16.0928 106.819 16.2314 106.364 16.3094C105.906 16.388 105.428 16.4276 104.943 16.4276C104.034 16.4276 103.114 16.2061 102.208 15.7699C101.316 15.3397 100.668 14.7325 100.285 13.9663L100.205 13.8055L98.9143 14.4505L98.9959 14.6119C99.5227 15.6511 100.351 16.4486 101.457 16.9808C102.552 17.5076 103.725 17.7746 104.942 17.7746C105.609 17.7746 106.255 17.7122 106.863 17.5898C107.472 17.4668 108.08 17.2615 108.669 16.9813C109.274 16.6927 109.77 16.2571 110.143 15.6877C110.517 15.1159 110.706 14.4283 110.706 13.6435C110.706 12.1645 110.021 11.0791 108.672 10.4185L108.672 10.4197Z" fill="#222B33"/>
<path d="M121.254 8.96775C120.872 8.44455 120.39 8.02635 119.815 7.72035C119.059 7.31835 118.234 7.11435 117.361 7.11435C115.894 7.11435 114.642 7.61295 113.637 8.59695C112.632 9.58215 112.122 10.8595 112.122 12.3949C112.122 13.9303 112.635 15.2144 113.647 16.2122C114.658 17.21 115.908 17.7158 117.361 17.7158C118.995 17.7158 120.301 17.084 121.254 15.8372V17.5549H122.601V7.23615H121.254V8.96775ZM119.314 15.9452C118.751 16.2392 118.094 16.3885 117.361 16.3885C116.26 16.3885 115.326 16.0129 114.585 15.2719C113.844 14.5309 113.469 13.5631 113.469 12.3955C113.469 11.228 113.844 10.2638 114.585 9.52935C115.326 8.79495 116.26 8.42235 117.361 8.42235C118.094 8.42235 118.751 8.57175 119.314 8.86575C119.874 9.15855 120.306 9.53775 120.596 9.99255C120.893 10.4576 121.116 10.9856 121.258 11.5616C121.398 12.128 121.398 12.6992 121.258 13.259C121.116 13.8289 120.893 14.3533 120.596 14.8183C120.306 15.2731 119.874 15.6524 119.314 15.9452Z" fill="#222B33"/>
<path d="M126.915 3.08235H125.568V17.5544H126.915V3.08235Z" fill="#222B33"/>
<path d="M134.457 7.07416C133.003 7.07416 131.753 7.58356 130.741 8.58796C129.73 9.59296 129.217 10.8734 129.217 12.395C129.217 13.9166 129.724 15.2822 130.723 16.2536C131.721 17.2238 132.977 17.7158 134.457 17.7158C135.311 17.7158 136.148 17.5448 136.947 17.2076C137.752 16.8674 138.407 16.37 138.895 15.7292L139.001 15.5894L138.015 14.801L137.904 14.9462C137.562 15.3884 137.065 15.7424 136.427 15.998C135.78 16.2572 135.117 16.3886 134.458 16.3886C133.446 16.3886 132.559 16.0646 131.824 15.425C131.136 14.8268 130.726 14.0252 130.605 13.0394H139.54L139.555 12.8768C139.735 11.0012 139.32 9.54856 138.324 8.55856C137.332 7.57396 136.03 7.07416 134.457 7.07416ZM131.835 9.32356C132.563 8.67196 133.445 8.34136 134.457 8.34136C135.627 8.34136 136.569 8.66416 137.257 9.30136C137.905 9.90136 138.257 10.7456 138.304 11.8118H130.605C130.737 10.7726 131.149 9.93616 131.835 9.32356Z" fill="#222B33"/>
<path d="M148.068 12.3974C147.562 12.1304 146.634 11.8874 145.23 11.6534C144.9 11.6006 144.678 11.561 144.568 11.5352C144.454 11.5082 144.242 11.4578 143.934 11.384C143.64 11.3138 143.427 11.2448 143.3 11.1776C143.166 11.1068 143.005 11.009 142.824 10.8854C142.661 10.775 142.542 10.6484 142.469 10.508C142.396 10.3664 142.358 10.2014 142.358 10.0124C142.346 9.47596 142.596 9.07756 143.121 8.79376C143.675 8.49436 144.367 8.34856 145.182 8.36176C146.408 8.36176 147.412 8.69955 148.168 9.36495L148.299 9.48016L149.146 8.57656L149.015 8.45355C148.044 7.53795 146.755 7.07416 145.185 7.07416C144.055 7.06156 143.074 7.30336 142.276 7.79656C141.449 8.30716 141.037 9.06136 141.051 10.0364C141.051 10.4552 141.14 10.8272 141.316 11.1422C141.487 11.4488 141.688 11.6996 141.912 11.888C142.136 12.0758 142.457 12.2432 142.866 12.3842C143.26 12.5204 143.607 12.6206 143.895 12.6824C144.179 12.743 144.575 12.815 145.074 12.896C145.498 12.9626 145.828 13.0196 146.053 13.0658C146.275 13.1114 146.559 13.1852 146.895 13.2842C147.215 13.3784 147.453 13.484 147.603 13.5974C147.754 13.712 147.892 13.8662 148.014 14.0558C148.129 14.2334 148.179 14.4392 148.167 14.6888C148.155 15.122 147.989 15.464 147.658 15.734C147.313 16.0166 146.942 16.2008 146.556 16.2818C146.154 16.3664 145.711 16.409 145.242 16.409C144.558 16.409 143.886 16.2716 143.246 15.9998C142.616 15.7322 142.11 15.3266 141.741 14.7932L141.625 14.6258L140.632 15.5084L140.716 15.638C141.151 16.3106 141.784 16.8314 142.6 17.1872C143.405 17.5382 144.288 17.7164 145.222 17.7164C145.893 17.7164 146.528 17.6396 147.112 17.489C147.711 17.3342 148.256 17.024 148.733 16.568C149.224 16.0988 149.48 15.4898 149.494 14.762C149.538 13.6814 149.056 12.8846 148.068 12.3974Z" fill="#222B33"/>
</g>
<defs>
<clipPath id="clip0_12158_7108">
<rect width="150" height="24" fill="white"/>
</clipPath>
</defs>
</svg>
