<svg width="192" height="24" viewBox="0 0 192 24" fill="none" xmlns="http://www.w3.org/2000/svg">
<g clip-path="url(#clip0_12158_7115)">
<path d="M8.37117 3.91158C6.74277 2.51298 4.53417 1.61298 2.09277 1.50978V17.2076C4.79457 17.3114 7.23957 18.3026 9.03837 19.8476C9.92337 20.6078 10.6524 21.5024 11.1792 22.4918V9.70997C11.1792 7.45277 10.1034 5.39898 8.37117 3.91158Z" fill="#4E56EA"/>
<path d="M21.8923 1.50928C19.4509 1.61308 17.2417 2.51308 15.6139 3.91108C13.8817 5.39908 12.8059 7.45167 12.8059 9.70887V22.4907C13.3327 21.5013 14.0617 20.6067 14.9467 19.8465C16.7455 18.3015 19.1905 17.3103 21.8923 17.2065V1.50928Z" fill="#4E56EA"/>
<path d="M41.4121 12.2507C44.5255 11.6219 45.0043 9.16734 45.0043 7.79034C45.0043 4.55694 42.3397 3.09055 39.8551 3.06055H32.9995V17.5799H35.3347V12.5507H38.4181L38.4481 12.6107L42.7891 17.5799H45.6331L40.9927 12.3413L41.4121 12.2507ZM35.3053 10.5143V5.18574H39.8557C41.8015 5.18574 42.6697 6.53274 42.6697 7.85034C42.6697 9.16794 41.8015 10.5149 39.8557 10.5149L35.3053 10.5143Z" fill="#222B33"/>
<path d="M51.8598 7.19165C48.6564 7.19165 46.5012 9.31685 46.5012 12.4603C46.5012 15.7831 48.627 17.8489 52.0692 17.8489C53.6856 17.8489 55.2726 17.2801 56.2602 16.3819L54.9432 15.0948C54.195 15.6936 52.9674 15.993 52.1292 15.993C50.2434 15.993 48.9258 15.0349 48.7164 13.5085L48.6864 13.2091H57.009C57.099 11.2633 56.6796 9.67625 55.7514 8.65865C54.8832 7.70045 53.5362 7.19165 51.8598 7.19165ZM48.627 11.5621L48.717 11.2327C49.1064 9.82566 50.3034 8.98746 51.9204 8.98746C53.6568 8.98746 54.7344 9.82566 54.9138 11.2627L54.9438 11.5621H48.627Z" fill="#222B33"/>
<path d="M86.1373 7.46094H84.0415V17.5793H86.1373V7.46094Z" fill="#222B33"/>
<path d="M93.8611 15.8432C92.8429 15.8432 92.2441 15.1844 92.2441 14.0768V9.25705H95.1781V7.52063H92.2741V4.55664L90.1789 4.76604V7.52003H88.2031V9.25645H90.1789V14.0762C90.1789 15.3038 90.5077 16.2314 91.1365 16.8602C91.7353 17.429 92.6335 17.7284 93.6811 17.6984C94.3699 17.6684 94.9087 17.5784 95.5375 17.339L94.9687 15.6026C94.6093 15.7526 94.1899 15.842 93.8611 15.842V15.8432Z" fill="#222B33"/>
<path d="M67.1574 8.38865L66.918 8.20925C65.9898 7.55045 64.9122 7.19165 63.7746 7.19165C60.8112 7.19165 58.416 9.58685 58.416 12.5503C58.416 15.5137 60.8112 17.9089 63.7746 17.9089C64.9122 17.9089 65.9898 17.5495 66.918 16.8913L67.1574 16.7119V17.5501H69.1932V7.49165H67.1574V8.38985V8.38865ZM63.7746 15.873C61.9488 15.873 60.4818 14.3761 60.4818 12.5803C60.4818 10.7845 61.9782 9.28746 63.7746 9.28746C65.571 9.28746 67.0674 10.7845 67.0674 12.5803C67.0674 14.3761 65.601 15.873 63.7746 15.873Z" fill="#222B33"/>
<path d="M76.827 7.13157C75.6894 7.13157 74.6119 7.49097 73.6837 8.14917L73.4442 8.32857V7.49037H71.4084V21.8298H73.4442V16.6506L73.6837 16.83C74.6119 17.4888 75.6894 17.8476 76.827 17.8476C79.7904 17.8476 82.1856 15.4524 82.1856 12.489C82.1856 9.52557 79.7904 7.13037 76.827 7.13037V7.13157ZM76.827 15.783C75.0306 15.783 73.5342 14.286 73.5342 12.4902C73.5342 10.6944 75.0006 9.19738 76.827 9.19738C78.6534 9.19738 80.1198 10.6944 80.1198 12.4902C80.1198 14.286 78.6234 15.783 76.827 15.783Z" fill="#222B33"/>
<path d="M85.0896 3C84.4608 3 83.802 3.3894 83.802 4.287C83.802 5.1846 84.4608 5.57399 85.0896 5.57399C85.7184 5.57399 86.3766 5.1846 86.3766 4.287C86.3766 3.3894 85.7178 3 85.0896 3Z" fill="#222B33"/>
<path d="M110.049 4.58757C109.663 4.13157 109.153 3.76257 108.532 3.49077C107.914 3.22017 107.215 3.08276 106.454 3.08276H100.085V17.5548H101.533V12.6762H106.454C107.215 12.6762 107.914 12.5388 108.532 12.2682C109.153 11.9964 109.663 11.6274 110.049 11.1714C110.431 10.7196 110.727 10.2024 110.928 9.63356C111.129 9.06596 111.23 8.47556 111.23 7.88036C111.23 7.28516 111.128 6.69476 110.928 6.12716C110.727 5.55836 110.431 5.04057 110.049 4.58937V4.58757ZM106.454 11.328H101.534V4.45077H106.454C107.067 4.45077 107.618 4.57916 108.093 4.83296C108.566 5.08556 108.93 5.41317 109.174 5.80737C109.424 6.21237 109.61 6.66897 109.726 7.16457C109.84 7.65237 109.84 8.14317 109.726 8.62437C109.61 9.11397 109.424 9.56757 109.174 9.97197C108.93 10.3662 108.566 10.6938 108.093 10.9464C107.618 11.1996 107.066 11.328 106.454 11.328Z" fill="#222B33"/>
<path d="M119.734 7.74605C119.035 7.31285 118.283 7.10705 117.499 7.13465C116.776 7.13465 116.091 7.29785 115.465 7.61825C115.019 7.84565 114.65 8.16005 114.361 8.55485L114.331 7.23545H113.048V17.5542H114.395V11.568C114.395 10.707 114.697 9.96245 115.291 9.35525C115.886 8.74805 116.63 8.43425 117.501 8.42165C118.096 8.42165 118.633 8.56865 119.099 8.85845L119.261 8.95865L119.878 7.83605L119.734 7.74605Z" fill="#222B33"/>
<path d="M125.102 7.07397C123.622 7.07397 122.365 7.57317 121.367 8.55717C120.368 9.54237 119.863 10.8468 119.863 12.435C119.863 14.0232 120.37 15.3162 121.37 16.2744C122.368 17.2308 123.624 17.7156 125.103 17.7156C126.582 17.7156 127.838 17.2308 128.836 16.2744C129.836 15.3162 130.343 14.0244 130.343 12.435C130.343 10.8456 129.837 9.54177 128.839 8.55717C127.841 7.57317 126.584 7.07397 125.104 7.07397H125.102ZM125.102 16.3878C123.987 16.3878 123.046 16.0248 122.304 15.3096C121.565 14.5956 121.19 13.6284 121.19 12.435C121.19 11.2416 121.569 10.2354 122.317 9.48777C123.064 8.74017 124.001 8.36097 125.102 8.36097C126.203 8.36097 127.141 8.74017 127.888 9.48777C128.636 10.2354 129.015 11.2272 129.015 12.435C129.015 13.6428 128.64 14.5956 127.901 15.3096C127.16 16.0248 126.218 16.3878 125.102 16.3878Z" fill="#222B33"/>
<path d="M137.871 7.09436H137.864C136.881 7.09436 135.986 7.33016 135.202 7.79456C134.608 8.14616 134.115 8.59675 133.73 9.13795V7.23535H132.402V22.3728H133.71V15.7278C134.098 16.2912 134.581 16.7436 135.153 17.0766C135.903 17.514 136.74 17.736 137.643 17.736C139.148 17.736 140.412 17.2578 141.396 16.3152C142.382 15.3702 142.882 14.0514 142.882 12.3954C142.882 10.7394 142.407 9.52675 141.469 8.58895C140.533 7.65296 139.322 7.14956 137.871 7.09436ZM137.642 16.4279C136.555 16.4279 135.632 16.0464 134.898 15.2928C134.163 14.538 133.79 13.5702 133.79 12.4146C133.79 11.259 134.159 10.2738 134.888 9.52616C135.615 8.77976 136.542 8.40116 137.642 8.40116C138.742 8.40116 139.714 8.74736 140.442 9.43076C141.167 10.1112 141.534 11.1084 141.534 12.3942C141.534 13.68 141.166 14.685 140.441 15.3786C139.713 16.0746 138.771 16.4279 137.642 16.4279Z" fill="#222B33"/>
<path d="M149.536 7.07397C148.056 7.07397 146.799 7.57317 145.801 8.55717C144.802 9.54177 144.296 10.8468 144.296 12.435C144.296 14.0232 144.803 15.3162 145.803 16.2744C146.801 17.2302 148.057 17.7156 149.536 17.7156C151.016 17.7156 152.272 17.2308 153.27 16.2744C154.27 15.3162 154.777 14.0244 154.777 12.435C154.777 10.8456 154.27 9.54177 153.272 8.55717C152.274 7.57317 151.017 7.07397 149.536 7.07397ZM149.536 16.3878C148.421 16.3878 147.479 16.0248 146.738 15.3096C145.999 14.5956 145.624 13.6284 145.624 12.435C145.624 11.2416 146.003 10.2354 146.751 9.48777C147.498 8.74017 148.435 8.36097 149.536 8.36097C150.637 8.36097 151.575 8.74017 152.322 9.48777C153.07 10.2354 153.449 11.2272 153.449 12.435C153.449 13.6428 153.074 14.5956 152.335 15.3096C151.594 16.0248 150.652 16.3878 149.536 16.3878Z" fill="#222B33"/>
<path d="M163.369 12.3972C162.863 12.1302 161.936 11.8872 160.532 11.6532C160.202 11.6004 159.979 11.5608 159.869 11.535C159.755 11.508 159.544 11.4576 159.235 11.3838C158.942 11.3136 158.729 11.244 158.602 11.1774C158.467 11.1066 158.306 11.0088 158.125 10.8852C157.963 10.7748 157.844 10.6482 157.771 10.5078C157.697 10.3668 157.66 10.2012 157.66 10.0122C157.648 9.47575 157.897 9.07735 158.422 8.79355C158.977 8.49415 159.669 8.34895 160.484 8.36155C161.71 8.36155 162.714 8.69935 163.469 9.36475L163.6 9.47996L164.447 8.57636L164.317 8.45335C163.346 7.53775 162.056 7.07395 160.486 7.07395C159.354 7.06135 158.376 7.30316 157.577 7.79636C156.75 8.30696 156.338 9.06116 156.352 10.0362C156.352 10.455 156.441 10.827 156.617 11.142C156.788 11.4486 156.988 11.6994 157.213 11.8878C157.437 12.0762 157.758 12.243 158.167 12.384C158.561 12.5202 158.908 12.6204 159.196 12.6822C159.48 12.7434 159.877 12.8148 160.375 12.8958C160.799 12.9624 161.129 13.0194 161.354 13.0656C161.576 13.1112 161.859 13.1844 162.196 13.2834C162.516 13.3776 162.754 13.4832 162.904 13.5966C163.055 13.7106 163.193 13.8648 163.315 14.055C163.43 14.2326 163.48 14.4383 163.468 14.6879C163.456 15.1211 163.29 15.4632 162.959 15.7332C162.614 16.0158 162.243 16.2 161.857 16.281C161.455 16.3656 161.013 16.4082 160.543 16.4082C159.859 16.4082 159.187 16.2708 158.547 15.999C157.917 15.7314 157.411 15.3258 157.042 14.7924L156.926 14.625L155.933 15.5076L156.017 15.6372C156.452 16.3098 157.085 16.8306 157.901 17.1864C158.706 17.5374 159.588 17.7156 160.523 17.7156C161.193 17.7156 161.829 17.6388 162.413 17.4882C163.012 17.3334 163.557 17.0232 164.034 16.5672C164.525 16.098 164.781 15.489 164.795 14.7612C164.839 13.6806 164.357 12.8844 163.369 12.3972Z" fill="#222B33"/>
<path d="M175.221 8.96754C174.839 8.44434 174.357 8.02614 173.782 7.72014C173.027 7.31814 172.201 7.11414 171.329 7.11414C169.862 7.11414 168.609 7.61275 167.604 8.59675C166.599 9.58195 166.089 10.8593 166.089 12.3947C166.089 13.9301 166.602 15.2141 167.614 16.2119C168.626 17.2097 169.875 17.7155 171.329 17.7155C172.961 17.7155 174.268 17.0837 175.221 15.8369V17.5547H176.568V7.23594H175.221V8.96754ZM173.281 15.9449C172.718 16.2389 172.061 16.3883 171.328 16.3883C170.227 16.3883 169.293 16.0127 168.552 15.2717C167.812 14.5307 167.436 13.5629 167.436 12.3953C167.436 11.2277 167.811 10.2635 168.552 9.52974C169.293 8.79534 170.227 8.42274 171.328 8.42274C172.061 8.42274 172.718 8.57215 173.281 8.86615C173.841 9.15895 174.273 9.53813 174.563 9.99293C174.86 10.4579 175.083 10.9859 175.226 11.5619C175.365 12.1283 175.365 12.6995 175.226 13.2593C175.083 13.8287 174.86 14.3537 174.563 14.8187C174.273 15.2735 173.841 15.6521 173.281 15.9449Z" fill="#222B33"/>
<path d="M180.782 3.08215H179.434V17.5542H180.782V3.08215Z" fill="#222B33"/>
<path d="M190.181 12.3972C189.676 12.1302 188.748 11.8872 187.344 11.6532C187.015 11.6004 186.791 11.5608 186.682 11.535C186.568 11.508 186.356 11.4576 186.047 11.3838C185.754 11.3136 185.541 11.244 185.414 11.1774C185.279 11.1066 185.119 11.0088 184.937 10.8852C184.775 10.7748 184.656 10.6482 184.583 10.5078C184.51 10.3668 184.472 10.2012 184.472 10.0122C184.46 9.47575 184.709 9.07735 185.234 8.79355C185.789 8.49415 186.481 8.34895 187.296 8.36155C188.522 8.36155 189.526 8.69935 190.282 9.36475L190.412 9.47996L191.26 8.57636L191.129 8.45335C190.158 7.53775 188.869 7.07395 187.298 7.07395C186.166 7.06135 185.188 7.30316 184.389 7.79636C183.562 8.30696 183.15 9.06116 183.164 10.0362C183.164 10.455 183.253 10.827 183.429 11.142C183.6 11.4486 183.8 11.6994 184.025 11.8878C184.249 12.0762 184.57 12.243 184.979 12.384C185.374 12.5202 185.72 12.6204 186.008 12.6822C186.292 12.7434 186.689 12.8148 187.187 12.8958C187.612 12.9624 187.942 13.0194 188.166 13.0656C188.388 13.1112 188.671 13.1844 189.008 13.2834C189.328 13.3776 189.566 13.4832 189.716 13.5966C189.867 13.7106 190.005 13.8648 190.127 14.055C190.242 14.2326 190.292 14.4383 190.28 14.6879C190.268 15.1211 190.102 15.4632 189.772 15.7332C189.426 16.0158 189.055 16.2 188.669 16.281C188.267 16.3656 187.825 16.4082 187.355 16.4082C186.671 16.4082 185.999 16.2708 185.359 15.999C184.729 15.7314 184.223 15.3258 183.854 14.7924L183.739 14.625L182.746 15.5076L182.83 15.6372C183.264 16.3098 183.898 16.8306 184.713 17.1864C185.518 17.5374 186.4 17.7156 187.335 17.7156C188.005 17.7156 188.641 17.6388 189.225 17.4882C189.824 17.3334 190.369 17.0232 190.846 16.5672C191.337 16.098 191.593 15.489 191.608 14.7612C191.651 13.6806 191.17 12.8844 190.181 12.3972Z" fill="#222B33"/>
</g>
<defs>
<clipPath id="clip0_12158_7115">
<rect width="192" height="24" fill="white"/>
</clipPath>
</defs>
</svg>
