<svg width="128" height="24" viewBox="0 0 128 24" fill="none" xmlns="http://www.w3.org/2000/svg">
<g clip-path="url(#clip0_12158_7107)">
<path d="M1.81689 6.12484V17.8752L11.9923 23.7498L22.1683 17.8752V11.3814L20.7523 10.5636L18.3973 9.20404L17.4895 8.67964L17.4883 12.7338L17.4871 16.788H16.4389H7.54449H6.4957V15.7398V9.75064V8.70184L9.24369 7.11544L11.0839 6.05344L11.9917 5.52904L14.7403 7.10464L16.5799 8.15884L17.4895 8.67964V7.63144V3.42364L11.9923 0.250244L1.81689 6.12484Z" fill="#4E56EA"/>
<path d="M41.4126 11.8357C44.526 11.2069 45.0048 8.75231 45.0048 7.37531C45.0048 4.14191 42.3402 2.67551 39.8556 2.64551H33V17.1649H35.3352V12.1357H38.4186L38.4486 12.1957L42.7896 17.1649H45.6336L40.9932 11.9257L41.4126 11.8357ZM35.3058 10.0993V4.77071H39.8562C41.802 4.77071 42.6702 6.11771 42.6702 7.43531C42.6702 8.75291 41.802 10.0999 39.8562 10.0999L35.3058 10.0993Z" fill="#222B33"/>
<path d="M51.8603 6.77649C48.6569 6.77649 46.5017 8.90169 46.5017 12.0451C46.5017 15.3679 48.6275 17.4337 52.0697 17.4337C53.6861 17.4337 55.2731 16.8649 56.2607 15.9667L54.9437 14.6797C54.1955 15.2785 52.9679 15.5779 52.1297 15.5779C50.2439 15.5779 48.9263 14.6197 48.7169 13.0933L48.6869 12.7939H57.0095C57.0995 10.8481 56.6801 9.26109 55.7519 8.24349C54.8837 7.28529 53.5367 6.77649 51.8603 6.77649ZM48.6275 11.1475L48.7175 10.8181C49.1069 9.41109 50.3039 8.57289 51.9209 8.57289C53.6573 8.57289 54.7349 9.41109 54.9143 10.8481L54.9443 11.1475H48.6275Z" fill="#222B33"/>
<path d="M86.1378 7.0459H84.042V17.1643H86.1378V7.0459Z" fill="#222B33"/>
<path d="M93.8616 15.4284C92.8434 15.4284 92.2446 14.7696 92.2446 13.662V8.84225H95.1786V7.10585H92.2746V4.14185L90.1794 4.35125V7.10525H88.2036V8.84165H90.1794V13.6614C90.1794 14.889 90.5082 15.8166 91.137 16.4454C91.7358 17.0142 92.634 17.3136 93.6816 17.2836C94.3704 17.2536 94.9092 17.1636 95.538 16.9242L94.9692 15.1878C94.6098 15.3378 94.1904 15.4272 93.8616 15.4272V15.4284Z" fill="#222B33"/>
<path d="M67.1579 7.9741L66.9185 7.7947C65.9903 7.1359 64.9127 6.7771 63.7751 6.7771C60.8117 6.7771 58.4165 9.1723 58.4165 12.1357C58.4165 15.0991 60.8117 17.4943 63.7751 17.4943C64.9127 17.4943 65.9903 17.1349 66.9185 16.4767L67.1579 16.2973V17.1355H69.1937V7.0759H67.1579V7.9741ZM63.7751 15.4579C61.9493 15.4579 60.4823 13.9609 60.4823 12.1651C60.4823 10.3693 61.9787 8.8723 63.7751 8.8723C65.5715 8.8723 67.0679 10.3693 67.0679 12.1651C67.0679 13.9609 65.6015 15.4579 63.7751 15.4579Z" fill="#222B33"/>
<path d="M76.8275 6.71641C75.6899 6.71641 74.6123 7.07581 73.6841 7.73401L73.4447 7.91341V7.07521H71.4089V21.4146H73.4447V16.2354L73.6841 16.4148C74.6123 17.0736 75.6899 17.4324 76.8275 17.4324C79.7909 17.4324 82.1861 15.0372 82.1861 12.0738C82.1861 9.11041 79.7909 6.71521 76.8275 6.71521V6.71641ZM76.8275 15.3684C75.0311 15.3684 73.5347 13.8714 73.5347 12.0756C73.5347 10.2798 75.0011 8.78281 76.8275 8.78281C78.6539 8.78281 80.1203 10.2798 80.1203 12.0756C80.1203 13.8714 78.6239 15.3684 76.8275 15.3684Z" fill="#222B33"/>
<path d="M85.0901 2.58545C84.4613 2.58545 83.8025 2.97485 83.8025 3.87245C83.8025 4.77005 84.4613 5.15945 85.0901 5.15945C85.7189 5.15945 86.3771 4.77005 86.3771 3.87245C86.3771 2.97485 85.7183 2.58545 85.0901 2.58545Z" fill="#222B33"/>
<path d="M110.049 4.17301C109.664 3.71701 109.154 3.34801 108.533 3.07621C107.915 2.80501 107.215 2.66821 106.454 2.66821H100.085V17.1402H101.534V12.2616H106.454C107.215 12.2616 107.914 12.1242 108.533 11.8536C109.153 11.5818 109.664 11.2128 110.049 10.7568C110.432 10.305 110.727 9.78781 110.928 9.21901C111.129 8.65081 111.231 8.06101 111.231 7.46581C111.231 6.87061 111.129 6.28021 110.928 5.71261C110.727 5.14381 110.432 4.62601 110.049 4.17481V4.17301ZM106.455 10.9128H101.534V4.03561H106.455C107.067 4.03561 107.618 4.16401 108.093 4.41781C108.567 4.67041 108.93 4.99801 109.174 5.39221C109.425 5.79721 109.61 6.25381 109.727 6.74941C109.841 7.23721 109.841 7.72801 109.727 8.20921C109.611 8.69881 109.425 9.15241 109.174 9.55681C108.93 9.95101 108.567 10.2786 108.093 10.5312C107.618 10.785 107.067 10.9128 106.455 10.9128Z" fill="#222B33"/>
<path d="M125.53 2.6676L120.284 10.7436L114.979 2.6676H113.411V17.1396H114.86V5.0208L120.026 12.8658H120.584L125.709 5.0244V17.1396H127.138V2.6676H125.53Z" fill="#222B33"/>
</g>
<defs>
<clipPath id="clip0_12158_7107">
<rect width="127.138" height="24" fill="white"/>
</clipPath>
</defs>
</svg>
