<svg width="180" height="24" viewBox="0 0 180 24" fill="none" xmlns="http://www.w3.org/2000/svg">
<path d="M14.4062 2L19.1877 5.14371V12L23.9991 8.76645V2H14.4062Z" fill="#98C1C2"/>
<path d="M9.5918 12L14.3733 15.1437V22L19.1846 18.7665V12H9.5918Z" fill="#D1263D"/>
<path d="M0 5.2334L4.78148 8.3771V15.2334L9.59285 11.9999V5.2334H0Z" fill="#FD9E1D"/>
<path d="M106.62 4.33319C108.343 4.33319 109.822 4.93686 111.01 6.125L111.123 6.23805L112.147 5.35282L112.017 5.2227C110.543 3.74872 108.725 3 106.62 3C105.009 3 103.593 3.37116 102.413 4.10068C101.232 4.83234 100.355 5.78157 99.8046 6.92278C99.2585 8.05759 98.9876 9.31613 99.0004 10.66C99.0154 12.7632 99.698 14.5572 101.033 15.9885C102.371 17.4241 104.25 18.1536 106.62 18.1536C108.725 18.1536 110.543 17.4049 112.017 15.9309L112.14 15.8072L111.148 14.8707L111.031 14.9859C109.815 16.1762 108.331 16.7777 106.62 16.7777C104.679 16.7777 103.151 16.1847 102.081 15.0115C101.003 13.834 100.445 12.3558 100.419 10.6152C100.406 8.83404 100.948 7.32381 102.029 6.12713C103.107 4.93473 104.653 4.33106 106.62 4.33106V4.33319Z" fill="#222B33"/>
<path d="M118.584 7.26196C117.07 7.26196 115.782 7.77178 114.762 8.78073C113.74 9.78969 113.222 11.125 113.222 12.7504C113.222 14.3759 113.74 15.7005 114.764 16.6818C115.786 17.6609 117.072 18.1579 118.587 18.1579C120.101 18.1579 121.387 17.6609 122.409 16.6818C123.433 15.7005 123.951 14.378 123.951 12.7504C123.951 11.1229 123.433 9.78756 122.411 8.78073C121.39 7.77391 120.103 7.26196 118.589 7.26196H118.584ZM121.466 15.7091C120.703 16.4471 119.734 16.8204 118.584 16.8204C117.435 16.8204 116.466 16.4471 115.703 15.7091C114.941 14.9731 114.555 13.977 114.555 12.7483C114.555 11.5196 114.945 10.483 115.715 9.7129C116.485 8.94285 117.452 8.55249 118.584 8.55249C119.717 8.55249 120.683 8.94285 121.453 9.7129C122.224 10.483 122.614 11.5047 122.614 12.7483C122.614 13.9919 122.228 14.9731 121.466 15.7091Z" fill="#222B33"/>
<path d="M130.515 7.24064C128.988 7.26624 127.823 7.80378 127.047 8.84047V7.42622H125.713V17.9894H127.068V12.1297C127.068 11.1186 127.39 10.2654 128.024 9.59986C128.657 8.93433 129.483 8.5909 130.479 8.57597C131.56 8.56743 132.416 8.85114 133.028 9.42921C133.638 10.0073 133.947 10.852 133.947 11.9441V17.9915H135.302V11.9249C135.302 10.4894 134.856 9.33748 133.977 8.50131C133.1 7.66726 131.936 7.24491 130.515 7.24491V7.24064Z" fill="#222B33"/>
<path d="M142.639 7.24064C141.112 7.26624 139.948 7.80378 139.171 8.84047V7.42622H137.838V17.9894H139.192V12.1297C139.192 11.1186 139.515 10.2654 140.148 9.59986C140.782 8.93433 141.607 8.5909 142.603 8.57597C143.683 8.56743 144.54 8.85114 145.152 9.42921C145.762 10.0073 146.072 10.852 146.072 11.9441V17.9915H147.426V11.9249C147.426 10.4894 146.98 9.33748 146.102 8.50131C145.225 7.66726 144.06 7.24491 142.639 7.24491V7.24064Z" fill="#222B33"/>
<path d="M154.643 7.26196C153.154 7.26196 151.874 7.78244 150.839 8.8106C149.805 9.83875 149.278 11.1506 149.278 12.7078C149.278 14.2649 149.796 15.6643 150.82 16.6583C151.842 17.6523 153.128 18.1557 154.643 18.1557C155.517 18.1557 156.375 17.9808 157.192 17.6353C158.015 17.2876 158.687 16.7777 159.186 16.1229L159.286 15.9906L158.297 15.1992L158.19 15.3358C157.838 15.7923 157.326 16.157 156.669 16.4194C156.003 16.686 155.321 16.8204 154.643 16.8204C153.599 16.8204 152.689 16.4855 151.929 15.8285C151.217 15.2099 150.794 14.378 150.671 13.3562H159.845L159.86 13.2027C160.044 11.2829 159.619 9.79396 158.599 8.78287C157.584 7.77604 156.253 7.2641 154.64 7.2641L154.643 7.26196ZM150.673 12.1233C150.807 11.0461 151.232 10.1801 151.942 9.54439C152.693 8.87246 153.602 8.53329 154.643 8.53329C155.848 8.53329 156.818 8.86606 157.526 9.52306C158.198 10.1438 158.561 11.0184 158.606 12.1233H150.673Z" fill="#222B33"/>
<path d="M166.712 8.55463C167.9 8.55463 168.898 8.94925 169.674 9.7257L169.796 9.84729L170.681 8.96205L170.558 8.84046C169.48 7.79311 168.188 7.26196 166.714 7.26196C165.24 7.26196 163.868 7.76538 162.84 8.75727C161.81 9.7513 161.287 11.0802 161.287 12.7078C161.287 14.3353 161.816 15.6472 162.861 16.6476C163.902 17.6481 165.199 18.1536 166.714 18.1536C168.228 18.1536 169.51 17.6225 170.56 16.573L170.681 16.4514L169.758 15.5277L169.636 15.6493C168.832 16.4535 167.849 16.8609 166.716 16.8609C165.583 16.8609 164.587 16.4834 163.802 15.7389C163.019 14.9966 162.625 13.977 162.625 12.7078C162.625 11.4386 163.021 10.419 163.802 9.67664C164.587 8.93218 165.566 8.55463 166.716 8.55463H166.712Z" fill="#222B33"/>
<path d="M178.71 16.3874L178.55 16.4642C177.998 16.7287 177.492 16.861 177.051 16.861C176.37 16.861 175.914 16.6882 175.694 16.349C175.457 15.9864 175.338 15.4211 175.338 14.6724V8.6144H178.815V7.42413H175.338V4.32259L174.003 4.46124V7.42413H171.831V8.6144H174.003V14.6724C174.003 15.7688 174.237 16.6263 174.7 17.2193C175.174 17.8252 175.963 18.1323 177.049 18.1323C177.637 18.1323 178.309 17.9531 179.047 17.599L179.195 17.5287L178.71 16.3874Z" fill="#222B33"/>
<path d="M35.3051 5.18536H39.8554C41.8013 5.18536 42.6695 6.5325 42.6695 7.8497C42.6695 9.1669 41.8013 10.514 39.8554 10.514H35.3051V5.18536ZM38.4484 12.6096L42.7892 17.579H45.6332L40.993 12.3402L41.4121 12.2504C44.5255 11.6217 45.0045 9.1669 45.0045 7.78983C45.0045 4.5567 42.3402 3.08981 39.8554 3.05988H33V17.579H35.335V12.5497H38.4185L38.4484 12.6096Z" fill="#222B33"/>
<path d="M48.6268 11.5618L48.7166 11.2325C49.1058 9.8255 50.3032 8.98728 51.9198 8.98728C53.6561 8.98728 54.7338 9.8255 54.9134 11.2625L54.9434 11.5618H48.6268ZM55.7517 8.65798C54.8835 7.70002 53.5364 7.1911 51.8599 7.1911C48.6567 7.1911 46.5013 9.31658 46.5013 12.4599C46.5013 15.7828 48.6268 17.8485 52.0695 17.8485C53.6861 17.8485 55.2727 17.2797 56.2606 16.3816L54.9434 15.0943C54.195 15.693 52.9676 15.9924 52.1294 15.9924C50.2434 15.9924 48.9262 15.0344 48.7166 13.5077L48.6867 13.2083H57.009C57.0988 11.2624 56.6797 9.67582 55.7517 8.65798Z" fill="#222B33"/>
<path d="M86.1371 7.46053H84.0416V17.579H86.1371V7.46053Z" fill="#222B33"/>
<path d="M91.1365 16.8606C91.7353 17.4294 92.6333 17.7287 93.6811 17.6988C94.3697 17.6688 94.9085 17.579 95.5372 17.3395L94.9684 15.6032C94.6091 15.7529 94.19 15.8427 93.8607 15.8427C92.8429 15.8427 92.2442 15.1841 92.2442 14.0765V9.25671H95.1779V7.5204H92.2741V4.5567L90.1786 4.76625V7.5204H88.2028V9.25671H90.1786V14.0765C90.1786 15.3039 90.5079 16.2319 91.1365 16.8606Z" fill="#222B33"/>
<path d="M63.7746 15.8727C61.9485 15.8727 60.4816 14.3758 60.4816 12.5797C60.4816 10.7835 61.9785 9.28665 63.7746 9.28665C65.5708 9.28665 67.0676 10.7835 67.0676 12.5797C67.0676 14.3758 65.6008 15.8727 63.7746 15.8727ZM69.1931 17.5491V7.49046H67.1575V8.38855L66.918 8.20894C65.9899 7.55033 64.9122 7.1911 63.7746 7.1911C60.8109 7.1911 58.416 9.58601 58.416 12.5497C58.416 15.5134 60.8109 17.9083 63.7746 17.9083C64.9122 17.9083 65.9899 17.5491 66.918 16.8905L67.1575 16.7109V17.5491H69.1931Z" fill="#222B33"/>
<path d="M76.8269 9.19683C78.653 9.19683 80.1199 10.6937 80.1199 12.4898C80.1199 14.286 78.6231 15.7828 76.8269 15.7828C75.0307 15.7828 73.5339 14.286 73.5339 12.4898C73.5339 10.6937 75.0008 9.19683 76.8269 9.19683ZM76.8269 17.8485C79.7906 17.8485 82.1855 15.4535 82.1855 12.4898C82.1855 9.52613 79.7906 7.13122 76.8269 7.13122C75.6893 7.13122 74.6116 7.49046 73.6836 8.14906L73.4441 8.32868V7.49046H71.4084V21.83H73.4441V16.651L73.6836 16.8306C74.6116 17.4892 75.6893 17.8485 76.8269 17.8485Z" fill="#222B33"/>
<path d="M85.0894 3C84.4607 3 83.8021 3.38917 83.8021 4.28727C83.8021 5.18536 84.4607 5.57453 85.0894 5.57453C85.718 5.57453 86.3766 5.18536 86.3766 4.28727C86.3766 3.38917 85.718 3 85.0894 3Z" fill="#222B33"/>
</svg>
