<svg width="134" height="24" viewBox="0 0 134 24" fill="none" xmlns="http://www.w3.org/2000/svg">
<path d="M21.3516 14.5353L17.4732 10.6569L21.156 6.9741C22.677 5.4531 22.677 2.9613 21.156 1.4403C19.635 -0.0806973 17.1432 -0.0806973 15.6222 1.4403L9.33119 7.82131L9.31859 7.84469V4.0929C9.31859 1.9401 7.55819 0.179688 5.40539 0.179688C3.25259 0.179688 1.49219 1.9401 1.49219 4.0929V17.1861C1.49219 18.2619 1.93139 19.2399 2.64119 19.9491L2.63339 19.9629C4.15439 21.4839 6.64619 21.4839 8.16719 19.9629L11.964 16.1661L15.8178 20.0685C17.3388 21.5895 19.8306 21.5895 21.3516 20.0685C22.8726 18.5475 22.8726 16.0557 21.3516 14.5347V14.5353ZM5.40539 0.770107C7.21979 0.770107 8.69159 2.24191 8.69159 4.05631C8.69159 5.87071 7.21979 7.34251 5.40539 7.34251C3.59099 7.34251 2.11919 5.87071 2.11919 4.05631C2.11919 2.24191 3.59099 0.770107 5.40539 0.770107ZM5.42879 20.4729C3.62639 20.4729 2.16419 19.0125 2.16419 17.2083C2.16419 15.4041 3.62459 13.9437 5.42879 13.9437C7.23299 13.9437 8.69339 15.4041 8.69339 17.2083C8.69339 19.0125 7.23299 20.4729 5.42879 20.4729ZM15.0948 3.91229C15.2238 2.10209 16.7958 0.739486 18.606 0.868486C20.4162 0.997486 21.7788 2.56949 21.6498 4.37969C21.5208 6.18929 19.9488 7.55249 18.1386 7.42349C16.3284 7.29449 14.9658 5.72249 15.0948 3.91229ZM18.7824 20.6763C16.926 20.7801 15.3348 19.3599 15.231 17.5017C15.1272 15.6453 16.5474 14.0541 18.4056 13.9503C20.2638 13.8465 21.8532 15.2667 21.957 17.1249C22.0608 18.9831 20.6406 20.5725 18.7824 20.6763Z" fill="#4E56EA"/>
<path d="M44.2209 3.12914L44.2377 3.11115V2.94434H41.2743L35.4609 9.10515V2.94434H33.0225V17.5543H35.4609V11.0383L41.8167 17.5363L41.8341 17.5543H44.8173V17.3251L37.6167 10.0003L44.2209 3.12914Z" fill="#222B33"/>
<path d="M50.0362 6.95972C48.4402 6.95972 47.1238 7.46731 46.123 8.46751C45.1222 9.46831 44.6152 10.7709 44.6152 12.3393C44.6152 13.9905 45.1264 15.3285 46.1338 16.3155C47.1412 17.3019 48.5032 17.8023 50.1814 17.8023C51.013 17.8023 51.8386 17.6475 52.6354 17.3427C53.434 17.0373 54.0994 16.6005 54.6142 16.0443L54.6538 16.0011L53.1808 14.5719L53.1388 14.6175C52.8436 14.9397 52.4164 15.2025 51.8692 15.3987C51.319 15.5955 50.7652 15.6951 50.2228 15.6951C49.3162 15.6951 48.559 15.4623 47.9722 15.0039C47.4052 14.5605 47.0644 13.9701 46.9588 13.2483H55.2244L55.2298 13.1943C55.4236 11.1711 55.0354 9.60991 54.076 8.55271C53.1166 7.49551 51.757 6.95972 50.0362 6.95972ZM47.0056 11.3277C47.1748 10.5939 47.5342 10.0179 48.0742 9.6141C48.6334 9.1965 49.3144 8.9841 50.098 8.9841C50.9494 8.9841 51.6508 9.1959 52.183 9.6129C52.6966 10.0161 52.99 10.5927 53.0554 11.3271L47.0056 11.3277Z" fill="#222B33"/>
<path d="M62.2757 12.1321L61.237 14.8363L60.2764 12.0919L58.5172 7.26852L58.5028 7.22949H55.8875L59.9897 17.3485L57.8519 22.2949H60.3425L66.8321 7.22949H64.3204L62.2757 12.1321Z" fill="#222B33"/>
<path d="M82.2022 13.9717L78.4312 2.98515L78.4174 2.94434H76.8406L73.1374 13.9717L69.496 2.94434H66.7798L72.0664 17.5357L72.0808 17.5753H74.1928L76.1128 12.4417L77.65 7.73054L79.1878 12.4231L81.1126 17.5363L81.1276 17.5753H83.2606L88.45 3.02476L88.4782 2.94434H85.762L82.2022 13.9717Z" fill="#222B33"/>
<path d="M95.4724 7.08434C94.1014 7.08434 93.0082 7.60034 92.2204 8.61914V2.94434H89.968V17.5543H92.2204V12.1741C92.2204 11.3377 92.4832 10.6237 93.0016 10.0513C93.5188 9.48075 94.1824 9.19154 94.9756 9.19154C95.7688 9.19154 96.3736 9.43215 96.8152 9.90735C97.258 10.3832 97.4824 11.0905 97.4824 12.0091V17.555H99.7348V11.9887C99.7348 10.4773 99.3748 9.27013 98.6656 8.40073C97.9534 7.52773 96.8782 7.08434 95.4724 7.08434Z" fill="#222B33"/>
<path d="M107.064 6.95972C105.468 6.95972 104.152 7.46731 103.151 8.46751C102.15 9.46831 101.643 10.7709 101.643 12.3393C101.643 13.9905 102.155 15.3285 103.162 16.3155C104.169 17.3019 105.531 17.8023 107.21 17.8023C108.041 17.8023 108.867 17.6475 109.664 17.3427C110.462 17.0373 111.128 16.6005 111.642 16.0443L111.682 16.0011L110.209 14.5719L110.167 14.6175C109.871 14.9397 109.444 15.2025 108.897 15.3987C108.347 15.5955 107.793 15.6951 107.251 15.6951C106.344 15.6951 105.587 15.4623 105 15.0039C104.433 14.5605 104.093 13.9701 103.987 13.2483H112.253L112.259 13.1943C112.452 11.1711 112.064 9.60991 111.105 8.55271C110.145 7.49551 108.785 6.95972 107.064 6.95972ZM104.034 11.3277C104.203 10.5939 104.562 10.0179 105.102 9.6141C105.662 9.1965 106.343 8.9841 107.126 8.9841C107.978 8.9841 108.679 9.1959 109.211 9.6129C109.725 10.0161 110.018 10.5927 110.084 11.3271L104.034 11.3277Z" fill="#222B33"/>
<path d="M119.318 7.00146C117.965 7.00146 116.969 7.48866 116.357 8.45046L116.226 7.22887H114.125V17.5543H116.377V11.9671C116.377 11.0917 116.635 10.4101 117.144 9.94146C117.655 9.47107 118.303 9.23286 119.07 9.23286C119.743 9.23286 120.336 9.43745 120.834 9.84065L120.891 9.88686L121.919 7.91767L121.884 7.88646C121.227 7.29966 120.364 7.00146 119.318 7.00146Z" fill="#222B33"/>
<path d="M131.597 8.55271C130.637 7.49551 129.278 6.95972 127.557 6.95972C125.961 6.95972 124.644 7.46731 123.644 8.46751C122.643 9.46771 122.136 10.7709 122.136 12.3393C122.136 13.9905 122.647 15.3285 123.654 16.3155C124.662 17.3019 126.024 17.8023 127.702 17.8023C128.534 17.8023 129.359 17.6475 130.156 17.3427C130.955 17.0373 131.62 16.6005 132.135 16.0443L132.174 16.0011L130.701 14.5719L130.659 14.6175C130.364 14.9397 129.936 15.2025 129.39 15.3987C128.84 15.5955 128.286 15.6951 127.743 15.6951C126.837 15.6951 126.08 15.4623 125.493 15.0039C124.926 14.5605 124.585 13.9701 124.479 13.2483H132.746L132.751 13.1943C132.945 11.1711 132.556 9.60991 131.597 8.55271ZM124.527 11.3277C124.696 10.5939 125.055 10.0179 125.595 9.6141C126.155 9.1965 126.836 8.9841 127.619 8.9841C128.471 8.9841 129.172 9.1959 129.704 9.6129C130.218 10.0161 130.511 10.5927 130.577 11.3271L124.527 11.3277Z" fill="#222B33"/>
</svg>
