<svg width="188" height="24" viewBox="0 0 188 24" fill="none" xmlns="http://www.w3.org/2000/svg">
<path d="M14.4062 2L19.1877 5.14371V12L23.9991 8.76645V2H14.4062Z" fill="#98C1C2"/>
<path d="M9.5918 12L14.3733 15.1437V22L19.1846 18.7665V12H9.5918Z" fill="#D1263D"/>
<path d="M0 5.2334L4.78148 8.3771V15.2334L9.59285 11.9999V5.2334H0Z" fill="#FD9E1D"/>
<path d="M35.3051 5.18526H39.8554C41.8013 5.18526 42.6695 6.5324 42.6695 7.8496C42.6695 9.16681 41.8013 10.5139 39.8554 10.5139H35.3051V5.18526ZM38.4484 12.6095L42.7892 17.5789H45.6332L40.993 12.3401L41.4121 12.2503C44.5255 11.6216 45.0045 9.16681 45.0045 7.78973C45.0045 4.5566 42.3402 3.08972 39.8554 3.05978H33V17.5789H35.335V12.5496H38.4185L38.4484 12.6095Z" fill="#222B33"/>
<path d="M48.6268 11.5617L48.7166 11.2324C49.1058 9.82541 50.3032 8.98718 51.9198 8.98718C53.6561 8.98718 54.7338 9.8254 54.9134 11.2624L54.9434 11.5617H48.6268ZM55.7517 8.65788C54.8835 7.69992 53.5364 7.191 51.8599 7.191C48.6567 7.191 46.5013 9.31649 46.5013 12.4598C46.5013 15.7828 48.6268 17.8484 52.0695 17.8484C53.6861 17.8484 55.2727 17.2796 56.2606 16.3815L54.9434 15.0942C54.195 15.6929 52.9676 15.9923 52.1294 15.9923C50.2434 15.9923 48.9262 15.0343 48.7166 13.5076L48.6867 13.2082H57.009C57.0988 11.2624 56.6797 9.67572 55.7517 8.65788Z" fill="#222B33"/>
<path d="M86.1371 7.46043H84.0416V17.5789H86.1371V7.46043Z" fill="#222B33"/>
<path d="M91.1365 16.8605C91.7353 17.4293 92.6333 17.7286 93.6811 17.6987C94.3697 17.6687 94.9085 17.5789 95.5372 17.3394L94.9684 15.6031C94.6091 15.7528 94.19 15.8426 93.8607 15.8426C92.8429 15.8426 92.2442 15.184 92.2442 14.0764V9.25662H95.1779V7.5203H92.2741V4.5566L90.1786 4.76615V7.5203H88.2028V9.25662H90.1786V14.0764C90.1786 15.3038 90.5079 16.2318 91.1365 16.8605Z" fill="#222B33"/>
<path d="M63.7746 15.8726C61.9485 15.8726 60.4816 14.3757 60.4816 12.5796C60.4816 10.7834 61.9785 9.28655 63.7746 9.28655C65.5708 9.28655 67.0676 10.7834 67.0676 12.5796C67.0676 14.3757 65.6008 15.8726 63.7746 15.8726ZM69.1931 17.549V7.49036H67.1575V8.38846L66.918 8.20884C65.9899 7.55024 64.9122 7.191 63.7746 7.191C60.8109 7.191 58.416 9.58591 58.416 12.5496C58.416 15.5133 60.8109 17.9082 63.7746 17.9082C64.9122 17.9082 65.9899 17.549 66.918 16.8904L67.1575 16.7108V17.549H69.1931Z" fill="#222B33"/>
<path d="M76.8269 9.19674C78.653 9.19674 80.1199 10.6936 80.1199 12.4897C80.1199 14.2859 78.6231 15.7827 76.8269 15.7827C75.0307 15.7827 73.5339 14.2859 73.5339 12.4897C73.5339 10.6936 75.0008 9.19674 76.8269 9.19674ZM76.8269 17.8484C79.7906 17.8484 82.1855 15.4534 82.1855 12.4897C82.1855 9.52604 79.7906 7.13112 76.8269 7.13112C75.6893 7.13112 74.6116 7.49036 73.6836 8.14896L73.4441 8.32858V7.49036H71.4084V21.8299H73.4441V16.6509L73.6836 16.8305C74.6116 17.4891 75.6893 17.8484 76.8269 17.8484Z" fill="#222B33"/>
<path d="M85.0894 2.9999C84.4607 2.9999 83.8021 3.38908 83.8021 4.28717C83.8021 5.18526 84.4607 5.57443 85.0894 5.57443C85.718 5.57443 86.3766 5.18526 86.3766 4.28717C86.3766 3.38908 85.718 2.9999 85.0894 2.9999Z" fill="#222B33"/>
<path d="M110.266 4.24563C109.868 3.77724 109.342 3.39827 108.703 3.11937C108.065 2.84047 107.344 2.69995 106.562 2.69995H100V17.5393H101.506V12.5425H106.562C107.347 12.5425 108.067 12.4019 108.703 12.123C109.342 11.8441 109.868 11.4652 110.266 10.9968C110.659 10.5348 110.965 10.0025 111.173 9.41918C111.38 8.83795 111.485 8.23118 111.485 7.62014C111.485 7.00911 111.38 6.40447 111.173 5.82111C110.965 5.23776 110.662 4.7055 110.266 4.2435V4.24563ZM109.922 8.38447C109.802 8.88479 109.611 9.34892 109.355 9.76408C109.105 10.1665 108.73 10.5007 108.245 10.7605C107.757 11.0202 107.19 11.1501 106.562 11.1501H101.506V4.11789H106.562C107.19 4.11789 107.757 4.24989 108.245 4.5075C108.73 4.76511 109.105 5.09937 109.355 5.50176C109.611 5.91479 109.804 6.38318 109.922 6.88989C110.039 7.38808 110.039 7.89053 109.922 8.38234V8.38447Z" fill="#222B33"/>
<path d="M117.55 6.85369C116.804 6.85369 116.098 7.01975 115.45 7.34975C114.997 7.57969 114.62 7.89692 114.325 8.29504L114.295 6.95801H112.961V17.5436H114.362V11.4034C114.362 10.5241 114.672 9.76195 115.281 9.1424C115.891 8.52285 116.656 8.20137 117.55 8.18859C118.162 8.18859 118.714 8.33975 119.191 8.63569L119.364 8.74214L120.006 7.57969L119.85 7.48388C119.129 7.03892 118.352 6.82814 117.548 6.85582L117.55 6.85369Z" fill="#222B33"/>
<path d="M129.553 8.31207C128.524 7.30291 127.23 6.78981 125.703 6.78981C124.176 6.78981 122.882 7.30078 121.856 8.31207C120.827 9.32336 120.305 10.6604 120.305 12.2891C120.305 13.9178 120.827 15.2442 121.858 16.2278C122.887 17.2093 124.181 17.7054 125.705 17.7054C127.23 17.7054 128.524 17.2072 129.553 16.2278C130.584 15.2442 131.106 13.9199 131.106 12.2891C131.106 10.6583 130.584 9.32123 129.555 8.31207H129.553ZM128.578 15.2293C127.816 15.9617 126.85 16.3321 125.703 16.3321C124.557 16.3321 123.59 15.9617 122.829 15.2293C122.07 14.499 121.685 13.5112 121.685 12.2891C121.685 11.067 122.074 10.0408 122.842 9.27439C123.609 8.51007 124.572 8.12259 125.703 8.12259C126.835 8.12259 127.797 8.51007 128.565 9.27439C129.333 10.0387 129.722 11.0521 129.722 12.2891C129.722 13.5261 129.337 14.499 128.578 15.2293Z" fill="#222B33"/>
<path d="M133.208 18.8167C133.208 19.6087 133.103 20.2155 132.896 20.62C132.708 20.9862 132.303 21.165 131.658 21.165C131.14 21.165 130.65 21.0352 130.197 20.7776L129.994 20.6626L129.579 21.906L129.722 21.9826C130.37 22.3275 131.022 22.5 131.66 22.5C132.776 22.5 133.559 22.1636 133.989 21.5036C134.402 20.867 134.605 19.9643 134.59 18.8189V6.9346H133.208V18.8167Z" fill="#222B33"/>
<path d="M133.204 2.98525C132.986 3.16622 132.877 3.41532 132.877 3.71977C132.877 4.02422 132.988 4.27332 133.204 4.45428C133.411 4.62887 133.642 4.71616 133.888 4.71616C134.134 4.71616 134.365 4.62887 134.573 4.45428C134.791 4.27119 134.9 4.02422 134.9 3.71977C134.9 3.41532 134.789 3.16622 134.573 2.98525C134.158 2.63822 133.621 2.63822 133.204 2.98525Z" fill="#222B33"/>
<path d="M142.092 6.79194C140.595 6.79194 139.306 7.31356 138.264 8.34401C137.22 9.37446 136.692 10.6881 136.692 12.2487C136.692 13.8092 137.214 15.2101 138.245 16.2065C139.274 17.2008 140.568 17.7054 142.092 17.7054C142.972 17.7054 143.836 17.5308 144.657 17.1837C145.487 16.8346 146.162 16.3236 146.665 15.6679L146.778 15.5188L145.752 14.7013L145.632 14.8567C145.281 15.3081 144.772 15.67 144.116 15.9319C143.451 16.198 142.768 16.3321 142.092 16.3321C141.053 16.3321 140.142 16 139.387 15.3464C138.683 14.7375 138.262 13.9199 138.136 12.915H147.328L147.345 12.7426C147.529 10.8179 147.104 9.32975 146.075 8.3142C145.052 7.30504 143.714 6.79194 142.09 6.79194H142.092ZM138.138 11.644C138.275 10.5859 138.698 9.73214 139.4 9.10833C140.148 8.44194 141.055 8.10343 142.092 8.10343C143.294 8.10343 144.263 8.43343 144.969 9.08491C145.632 9.69807 145.994 10.5582 146.043 11.644H138.136H138.138Z" fill="#222B33"/>
<path d="M154.146 8.12472C155.333 8.12472 156.326 8.51646 157.102 9.28717L157.239 9.42343L158.157 8.51007L158.018 8.37382C156.935 7.3242 155.633 6.79194 154.149 6.79194C152.664 6.79194 151.285 7.29653 150.25 8.29078C149.212 9.28717 148.686 10.6199 148.686 12.2487C148.686 13.8774 149.219 15.1931 150.271 16.198C151.319 17.1987 152.624 17.7075 154.149 17.7075C155.673 17.7075 156.963 17.1752 158.02 16.1235L158.157 15.9872L157.201 15.0356L157.064 15.1718C156.262 15.9702 155.282 16.3747 154.151 16.3747C153.019 16.3747 152.027 16 151.244 15.2612C150.466 14.5246 150.07 13.5112 150.07 12.2508C150.07 10.9904 150.466 9.97698 151.244 9.24033C152.027 8.50156 153.004 8.12685 154.151 8.12685L154.146 8.12472Z" fill="#222B33"/>
<path d="M165.743 15.9787C165.191 16.2406 164.688 16.3726 164.248 16.3726C163.574 16.3726 163.123 16.2044 162.905 15.8723C162.671 15.5125 162.552 14.9547 162.552 14.2116V8.18648H166.038V6.9559H162.552V3.85816L161.17 4.0008V6.9559H158.993V8.18648H161.17V14.2116C161.17 15.3102 161.407 16.1703 161.874 16.7665C162.353 17.3775 163.15 17.6862 164.245 17.6862C164.838 17.6862 165.516 17.5053 166.258 17.1518L166.423 17.0731L165.92 15.8957L165.738 15.9809L165.743 15.9787Z" fill="#222B33"/>
<path d="M172.195 6.79194C170.67 6.79194 169.374 7.30291 168.345 8.3142C167.317 9.32549 166.795 10.6625 166.795 12.2912C166.795 13.9199 167.317 15.2463 168.348 16.2299C169.376 17.2114 170.67 17.7075 172.195 17.7075C173.72 17.7075 175.014 17.2093 176.043 16.2299C177.074 15.2463 177.596 13.9221 177.596 12.2912C177.596 10.6604 177.074 9.32336 176.045 8.3142C175.016 7.30504 173.722 6.79194 172.195 6.79194ZM175.07 15.2293C174.308 15.9617 173.342 16.3321 172.195 16.3321C171.049 16.3321 170.082 15.9617 169.321 15.2293C168.561 14.499 168.177 13.5112 168.177 12.2891C168.177 11.067 168.566 10.0387 169.334 9.2744C170.101 8.51007 171.064 8.12259 172.195 8.12259C173.327 8.12259 174.289 8.51007 175.057 9.2744C175.825 10.0387 176.214 11.0521 176.214 12.2891C176.214 13.5261 175.829 14.499 175.07 15.2293Z" fill="#222B33"/>
<path d="M186.589 7.48177C185.868 7.0368 185.09 6.82816 184.288 6.85371C183.541 6.85371 182.835 7.01977 182.187 7.34977C181.734 7.57971 181.358 7.89693 181.062 8.29506L181.032 6.95803H179.698V17.5436H181.099V11.4034C181.099 10.5242 181.409 9.76196 182.018 9.14241C182.628 8.52287 183.394 8.20138 184.288 8.18861C184.899 8.18861 185.451 8.33977 185.928 8.63571L186.101 8.74216L186.743 7.57971L186.587 7.4839L186.589 7.48177Z" fill="#222B33"/>
</svg>
