<svg width="186" height="24" viewBox="0 0 186 24" fill="none" xmlns="http://www.w3.org/2000/svg">
<g clip-path="url(#clip0_12158_7114)">
<path d="M9.92003 7.79013L12.6908 10.5609C14.8226 12.6927 17.0768 10.7937 17.9414 9.41434C18.4502 8.60254 18.9086 7.82614 19.2446 7.07134C20.0312 5.30374 20.1518 3.89914 19.5668 3.31414C18.9818 2.72914 17.5778 2.84974 15.8096 3.63634C13.9418 4.46794 11.8706 5.93193 9.92003 7.79013Z" fill="#4E56EA"/>
<path d="M17.492 1.59078C13.5494 -0.745023 8.44099 -0.356227 4.88599 2.75657L8.89279 6.76338C11.9564 3.83477 15.107 1.99458 17.492 1.59078Z" fill="#4E56EA"/>
<path d="M3.86009 3.7821C0.747291 7.3371 0.358491 12.4455 2.69429 16.3881C3.09749 14.0031 4.93769 10.8525 7.86689 7.78889L3.86009 3.7821Z" fill="#4E56EA"/>
<path d="M12.0056 17.5858L12.0074 17.584C9.99861 19.0168 8.07681 19.9192 6.49341 20.1868C10.436 22.5226 15.5444 22.1338 19.0994 19.021L17.5262 17.4478C15.1994 15.121 13.5692 16.5412 12.0056 17.5858Z" fill="#4E56EA"/>
<path d="M8.63483 17.9254C10.9196 16.6708 14.3228 14.2444 11.2184 11.1406L8.89403 8.81616C7.03583 10.7674 5.57183 12.8386 4.74083 14.7064C3.95423 16.474 3.83363 17.8786 4.41863 18.4636C5.00363 19.0486 6.40763 18.928 8.17583 18.1414C8.32763 18.0736 8.48063 18.001 8.63483 17.9254Z" fill="#4E56EA"/>
<path d="M21.2908 5.38892C21.0154 7.01792 20.0674 9.00392 18.5626 11.0751C18.439 11.2347 18.313 11.4015 18.19 11.5749C17.2948 12.8361 16.5784 14.4483 18.4726 16.3431L20.125 17.9955C23.2372 14.4405 23.6266 9.33152 21.2908 5.38892Z" fill="#4E56EA"/>
<path d="M41.4121 12.2507C44.5255 11.6219 45.0043 9.16734 45.0043 7.79034C45.0043 4.55694 42.3397 3.09055 39.8551 3.06055H32.9995V17.5799H35.3347V12.5507H38.4181L38.4481 12.6107L42.7891 17.5799H45.6331L40.9927 12.3413L41.4121 12.2507ZM35.3053 10.5143V5.18574H39.8557C41.8015 5.18574 42.6697 6.53274 42.6697 7.85034C42.6697 9.16794 41.8015 10.5149 39.8557 10.5149L35.3053 10.5143Z" fill="#222B33"/>
<path d="M51.8598 7.19165C48.6564 7.19165 46.5012 9.31685 46.5012 12.4603C46.5012 15.7831 48.627 17.8489 52.0692 17.8489C53.6856 17.8489 55.2726 17.2801 56.2602 16.3819L54.9432 15.0948C54.195 15.6936 52.9674 15.993 52.1292 15.993C50.2434 15.993 48.9258 15.0349 48.7164 13.5085L48.6864 13.2091H57.009C57.099 11.2633 56.6796 9.67625 55.7514 8.65865C54.8832 7.70045 53.5362 7.19165 51.8598 7.19165ZM48.627 11.5621L48.717 11.2327C49.1064 9.82566 50.3034 8.98746 51.9204 8.98746C53.6568 8.98746 54.7344 9.82566 54.9138 11.2627L54.9438 11.5621H48.627Z" fill="#222B33"/>
<path d="M86.1373 7.46094H84.0415V17.5793H86.1373V7.46094Z" fill="#222B33"/>
<path d="M93.8609 15.8432C92.8427 15.8432 92.2439 15.1844 92.2439 14.0768V9.25705H95.1779V7.52063H92.2739V4.55664L90.1787 4.76604V7.52003H88.2029V9.25645H90.1787V14.0762C90.1787 15.3038 90.5075 16.2314 91.1363 16.8602C91.7351 17.429 92.6333 17.7284 93.6809 17.6984C94.3697 17.6684 94.9085 17.5784 95.5373 17.339L94.9685 15.6026C94.6091 15.7526 94.1897 15.842 93.8609 15.842V15.8432Z" fill="#222B33"/>
<path d="M67.1574 8.38865L66.918 8.20925C65.9898 7.55045 64.9122 7.19165 63.7746 7.19165C60.8112 7.19165 58.416 9.58685 58.416 12.5503C58.416 15.5137 60.8112 17.9089 63.7746 17.9089C64.9122 17.9089 65.9898 17.5495 66.918 16.8913L67.1574 16.7119V17.5501H69.1932V7.49165H67.1574V8.38985V8.38865ZM63.7746 15.873C61.9488 15.873 60.4818 14.3761 60.4818 12.5803C60.4818 10.7845 61.9782 9.28746 63.7746 9.28746C65.571 9.28746 67.0674 10.7845 67.0674 12.5803C67.0674 14.3761 65.601 15.873 63.7746 15.873Z" fill="#222B33"/>
<path d="M76.827 7.13157C75.6894 7.13157 74.6119 7.49097 73.6837 8.14917L73.4442 8.32857V7.49037H71.4084V21.8298H73.4442V16.6506L73.6837 16.83C74.6119 17.4888 75.6894 17.8476 76.827 17.8476C79.7904 17.8476 82.1856 15.4524 82.1856 12.489C82.1856 9.52557 79.7904 7.13037 76.827 7.13037V7.13157ZM76.827 15.783C75.0306 15.783 73.5342 14.286 73.5342 12.4902C73.5342 10.6944 75.0006 9.19738 76.827 9.19738C78.6534 9.19738 80.1198 10.6944 80.1198 12.4902C80.1198 14.286 78.6234 15.783 76.827 15.783Z" fill="#222B33"/>
<path d="M85.0896 3C84.4608 3 83.802 3.3894 83.802 4.287C83.802 5.1846 84.4608 5.57399 85.0896 5.57399C85.7184 5.57399 86.3766 5.1846 86.3766 4.287C86.3766 3.3894 85.7178 3 85.0896 3Z" fill="#222B33"/>
<path d="M117.998 3.08215L113.753 15.6006L109.568 3.08215H108.704L104.498 15.6006L100.274 3.08215H98.7419L103.765 17.4738L103.807 17.595H105.233L107.533 10.8168L109.135 5.81035L110.739 10.86L113.018 17.595H114.445L119.551 3.08215H117.998Z" fill="#222B33"/>
<path d="M124.719 7.07397C123.265 7.07397 122.015 7.58337 121.004 8.58777C119.992 9.59277 119.479 10.8738 119.479 12.3948C119.479 13.9158 119.986 15.282 120.985 16.2534C121.983 17.2236 123.239 17.7156 124.719 17.7156C125.573 17.7156 126.41 17.5446 127.208 17.2074C128.014 16.8672 128.669 16.3698 129.157 15.7296L129.263 15.5898L128.277 14.8014L128.165 14.9466C127.824 15.3888 127.327 15.7428 126.689 15.9984C126.041 16.2576 125.379 16.3884 124.72 16.3884C123.707 16.3884 122.821 16.0644 122.086 15.4248C121.398 14.8266 120.988 14.025 120.866 13.0392H129.802L129.817 12.8766C129.997 11.001 129.582 9.54837 128.585 8.55837C127.594 7.57377 126.293 7.07397 124.719 7.07397ZM122.098 9.32337C122.826 8.67177 123.708 8.34118 124.72 8.34118C125.89 8.34118 126.832 8.66398 127.52 9.30118C128.168 9.90118 128.52 10.7454 128.567 11.8116H120.868C121 10.7724 121.412 9.93597 122.098 9.32337Z" fill="#222B33"/>
<path d="M137.077 7.07397C136.151 7.07397 135.299 7.27797 134.543 7.67997C133.973 7.98357 133.498 8.40537 133.124 8.93817V3.08276H131.797V17.5548H133.124V15.7938C133.51 16.3146 134.001 16.7418 134.591 17.0688C135.367 17.4984 136.21 17.7162 137.097 17.7162C138.577 17.7162 139.82 17.238 140.791 16.2942C141.763 15.3492 142.256 14.0376 142.256 12.3954C142.256 10.7532 141.76 9.44096 140.78 8.49596C139.802 7.55276 138.557 7.07397 137.077 7.07397ZM140.929 12.3948C140.929 13.6674 140.558 14.661 139.827 15.348C139.092 16.038 138.154 16.3878 137.037 16.3878C135.92 16.3878 134.969 16.0128 134.242 15.2724C133.514 14.5314 133.145 13.5564 133.145 12.3744C133.145 11.1924 133.517 10.2384 134.252 9.49737C134.986 8.75697 135.923 8.38137 137.037 8.38137C138.151 8.38137 139.108 8.73117 139.837 9.42057C140.562 10.1076 140.929 11.1084 140.929 12.3948Z" fill="#222B33"/>
<path d="M151.011 12.3972C150.505 12.1302 149.578 11.8872 148.174 11.6532C147.844 11.6004 147.621 11.5608 147.511 11.535C147.397 11.508 147.185 11.4576 146.877 11.3838C146.584 11.3136 146.371 11.2441 146.243 11.1775C146.109 11.1067 145.948 11.0088 145.767 10.8852C145.604 10.7748 145.486 10.6482 145.412 10.5078C145.339 10.3668 145.301 10.2012 145.301 10.0122C145.289 9.47584 145.539 9.07744 146.064 8.79364C146.618 8.49424 147.311 8.34844 148.126 8.36164C149.351 8.36164 150.356 8.69944 151.111 9.36484L151.242 9.48005L152.089 8.57645L151.958 8.45344C150.988 7.53784 149.698 7.07404 148.128 7.07404C146.996 7.06024 146.018 7.30325 145.219 7.79644C144.392 8.30704 143.98 9.06125 143.994 10.0363C143.994 10.455 144.083 10.827 144.259 11.142C144.43 11.4486 144.63 11.6994 144.854 11.8878C145.079 12.0762 145.4 12.243 145.808 12.384C146.203 12.5202 146.549 12.6204 146.837 12.6822C147.122 12.7434 147.518 12.8148 148.016 12.8958C148.441 12.9624 148.771 13.0194 148.996 13.0656C149.218 13.1112 149.501 13.1844 149.838 13.2834C150.158 13.3776 150.396 13.4832 150.546 13.5966C150.697 13.7106 150.835 13.8648 150.957 14.055C151.072 14.2326 151.121 14.4384 151.11 14.688C151.098 15.1212 150.932 15.4632 150.601 15.7332C150.256 16.0158 149.885 16.2 149.499 16.281C149.096 16.3656 148.655 16.4082 148.185 16.4082C147.5 16.4082 146.829 16.2708 146.189 15.999C145.559 15.7314 145.052 15.3259 144.684 14.7925L144.568 14.625L143.575 15.5076L143.659 15.6372C144.094 16.3098 144.727 16.8306 145.543 17.1864C146.348 17.5374 147.23 17.7156 148.165 17.7156C148.835 17.7156 149.471 17.6388 150.055 17.4882C150.653 17.3334 151.199 17.0232 151.676 16.5672C152.167 16.098 152.423 15.4891 152.437 14.7613C152.48 13.6807 151.999 12.8844 151.011 12.3972Z" fill="#222B33"/>
<path d="M155.891 3.45717C155.691 3.28857 155.469 3.20337 155.231 3.20337C154.994 3.20337 154.772 3.28857 154.571 3.45717C154.361 3.63357 154.255 3.87297 154.255 4.16937C154.255 4.46578 154.361 4.70577 154.571 4.88157C154.772 5.05017 154.994 5.13537 155.231 5.13537C155.469 5.13537 155.691 5.05017 155.891 4.88157C156.101 4.70517 156.208 4.46578 156.208 4.16937C156.208 3.87297 156.101 3.63297 155.891 3.45717Z" fill="#222B33"/>
<path d="M155.885 7.19519H154.537V17.5548H155.885V7.19519Z" fill="#222B33"/>
<path d="M164.337 16.0428C163.799 16.299 163.31 16.4286 162.882 16.4286C162.224 16.4286 161.783 16.263 161.571 15.936C161.343 15.5844 161.227 15.0372 161.227 14.3106V8.42223H164.614V7.23543H161.227V4.21204L159.9 4.35004V7.23543H157.783V8.42223H159.9V14.3106C159.9 15.3816 160.129 16.2192 160.583 16.8C161.047 17.3946 161.82 17.6958 162.882 17.6958C163.458 17.6958 164.115 17.52 164.835 17.1738L164.99 17.0994L164.506 15.9618L164.337 16.0428Z" fill="#222B33"/>
<path d="M170.663 7.07397C169.21 7.07397 167.96 7.58337 166.948 8.58777C165.937 9.59277 165.424 10.8738 165.424 12.3948C165.424 13.9158 165.931 15.282 166.93 16.2534C167.927 17.2236 169.184 17.7156 170.664 17.7156C171.518 17.7156 172.355 17.5446 173.153 17.2074C173.959 16.8672 174.614 16.3698 175.102 15.7296L175.208 15.5898L174.222 14.8014L174.11 14.9466C173.768 15.3888 173.272 15.7428 172.633 15.9984C171.986 16.2576 171.323 16.3884 170.664 16.3884C169.652 16.3884 168.766 16.0644 168.03 15.4248C167.342 14.8266 166.933 14.025 166.811 13.0392H175.746L175.762 12.8766C175.941 11.001 175.526 9.54837 174.53 8.55837C173.539 7.57377 172.237 7.07397 170.663 7.07397ZM168.041 9.32337C168.77 8.67177 169.652 8.34118 170.663 8.34118C171.834 8.34118 172.776 8.66398 173.464 9.30118C174.112 9.90118 174.464 10.7454 174.511 11.8116H166.812C166.944 10.7724 167.356 9.93597 168.041 9.32337Z" fill="#222B33"/>
<path d="M184.274 12.3972C183.769 12.1302 182.841 11.8872 181.437 11.6532C181.108 11.6004 180.884 11.5608 180.775 11.535C180.661 11.508 180.449 11.4576 180.14 11.3838C179.847 11.3136 179.634 11.2441 179.507 11.1775C179.372 11.1067 179.212 11.0088 179.03 10.8852C178.868 10.7748 178.749 10.6482 178.676 10.5078C178.603 10.3668 178.565 10.2012 178.565 10.0122C178.553 9.47584 178.802 9.07744 179.327 8.79364C179.882 8.49424 180.574 8.34844 181.389 8.36164C182.615 8.36164 183.619 8.69944 184.375 9.36484L184.505 9.48005L185.353 8.57645L185.222 8.45344C184.251 7.53784 182.962 7.07404 181.391 7.07404C180.259 7.06024 179.281 7.30325 178.482 7.79644C177.655 8.30704 177.243 9.06125 177.257 10.0363C177.257 10.455 177.346 10.827 177.522 11.142C177.693 11.4486 177.893 11.6994 178.118 11.8878C178.342 12.0762 178.663 12.243 179.072 12.384C179.467 12.5202 179.813 12.6204 180.101 12.6822C180.385 12.7434 180.782 12.8148 181.28 12.8958C181.705 12.9624 182.035 13.0194 182.259 13.0656C182.481 13.1112 182.764 13.1844 183.101 13.2834C183.421 13.3776 183.659 13.4832 183.809 13.5966C183.96 13.7106 184.098 13.8648 184.22 14.055C184.335 14.2326 184.385 14.4384 184.373 14.688C184.361 15.1212 184.195 15.4632 183.865 15.7332C183.519 16.0158 183.148 16.2 182.762 16.281C182.36 16.3656 181.918 16.4082 181.448 16.4082C180.764 16.4082 180.092 16.2708 179.452 15.999C178.822 15.7314 178.316 15.3259 177.947 14.7925L177.832 14.625L176.839 15.5076L176.923 15.6372C177.357 16.3098 177.991 16.8306 178.806 17.1864C179.611 17.5374 180.493 17.7156 181.428 17.7156C182.098 17.7156 182.734 17.6388 183.318 17.4882C183.917 17.3334 184.462 17.0232 184.939 16.5672C185.43 16.098 185.686 15.4891 185.701 14.7613C185.744 13.6807 185.263 12.8844 184.274 12.3972Z" fill="#222B33"/>
</g>
<defs>
<clipPath id="clip0_12158_7114">
<rect width="186" height="24" fill="white"/>
</clipPath>
</defs>
</svg>
