<svg width="160" height="24" viewBox="0 0 160 24" fill="none" xmlns="http://www.w3.org/2000/svg">
<path d="M22.9201 0.171499L0.120117 10.7309L7.99692 12.7487L17.9041 5.26731L11.2855 14.3723L19.8625 21.8465L22.9195 0.170898L22.9201 0.171499Z" fill="#4E56EA"/>
<path d="M41.4121 12.2507C44.5255 11.6219 45.0043 9.16734 45.0043 7.79034C45.0043 4.55694 42.3397 3.09055 39.8551 3.06055H32.9995V17.5799H35.3347V12.5507H38.4181L38.4481 12.6107L42.7891 17.5799H45.6331L40.9927 12.3413L41.4121 12.2507ZM35.3053 10.5143V5.18574H39.8557C41.8015 5.18574 42.6697 6.53274 42.6697 7.85034C42.6697 9.16794 41.8015 10.5149 39.8557 10.5149L35.3053 10.5143Z" fill="#222B33"/>
<path d="M51.8598 7.19165C48.6564 7.19165 46.5012 9.31685 46.5012 12.4603C46.5012 15.7831 48.627 17.8489 52.0692 17.8489C53.6856 17.8489 55.2726 17.2801 56.2602 16.3819L54.9432 15.0948C54.195 15.6936 52.9674 15.993 52.1292 15.993C50.2434 15.993 48.9258 15.0349 48.7164 13.5085L48.6864 13.2091H57.009C57.099 11.2633 56.6796 9.67625 55.7514 8.65865C54.8832 7.70045 53.5362 7.19165 51.8598 7.19165ZM48.627 11.5621L48.717 11.2327C49.1064 9.82566 50.3034 8.98746 51.9204 8.98746C53.6568 8.98746 54.7344 9.82566 54.9138 11.2627L54.9438 11.5621H48.627Z" fill="#222B33"/>
<path d="M86.1373 7.46094H84.0415V17.5793H86.1373V7.46094Z" fill="#222B33"/>
<path d="M93.8611 15.8432C92.8429 15.8432 92.2441 15.1844 92.2441 14.0768V9.25705H95.1781V7.52063H92.2741V4.55664L90.1789 4.76604V7.52003H88.2031V9.25645H90.1789V14.0762C90.1789 15.3038 90.5077 16.2314 91.1365 16.8602C91.7353 17.429 92.6335 17.7284 93.6811 17.6984C94.3699 17.6684 94.9087 17.5784 95.5375 17.339L94.9687 15.6026C94.6093 15.7526 94.1899 15.842 93.8611 15.842V15.8432Z" fill="#222B33"/>
<path d="M67.1574 8.38865L66.918 8.20925C65.9898 7.55045 64.9122 7.19165 63.7746 7.19165C60.8112 7.19165 58.416 9.58685 58.416 12.5503C58.416 15.5137 60.8112 17.9089 63.7746 17.9089C64.9122 17.9089 65.9898 17.5495 66.918 16.8913L67.1574 16.7119V17.5501H69.1932V7.49165H67.1574V8.38985V8.38865ZM63.7746 15.873C61.9488 15.873 60.4818 14.3761 60.4818 12.5803C60.4818 10.7845 61.9782 9.28746 63.7746 9.28746C65.571 9.28746 67.0674 10.7845 67.0674 12.5803C67.0674 14.3761 65.601 15.873 63.7746 15.873Z" fill="#222B33"/>
<path d="M76.827 7.13157C75.6894 7.13157 74.6119 7.49097 73.6837 8.14917L73.4442 8.32857V7.49037H71.4084V21.8298H73.4442V16.6506L73.6837 16.83C74.6119 17.4888 75.6894 17.8476 76.827 17.8476C79.7904 17.8476 82.1856 15.4524 82.1856 12.489C82.1856 9.52557 79.7904 7.13037 76.827 7.13037V7.13157ZM76.827 15.783C75.0306 15.783 73.5342 14.286 73.5342 12.4902C73.5342 10.6944 75.0006 9.19738 76.827 9.19738C78.6534 9.19738 80.1198 10.6944 80.1198 12.4902C80.1198 14.286 78.6234 15.783 76.827 15.783Z" fill="#222B33"/>
<path d="M85.0896 3C84.4608 3 83.802 3.3894 83.802 4.287C83.802 5.1846 84.4608 5.57399 85.0896 5.57399C85.7184 5.57399 86.3766 5.1846 86.3766 4.287C86.3766 3.3894 85.7178 3 85.0896 3Z" fill="#222B33"/>
<path d="M100.085 17.5746H101.534V11.184H109.658V9.79556H101.534V4.53116H109.94V3.08215H100.085V17.5746Z" fill="#222B33"/>
<path d="M116.312 7.07397C114.832 7.07397 113.575 7.57317 112.577 8.55717C111.578 9.54177 111.073 10.8468 111.073 12.435C111.073 14.0232 111.58 15.3162 112.58 16.2744C113.578 17.2308 114.833 17.7156 116.313 17.7156C117.793 17.7156 119.048 17.2308 120.046 16.2744C121.046 15.3162 121.553 14.0244 121.553 12.435C121.553 10.8456 121.047 9.54177 120.048 8.55717C119.05 7.57317 117.793 7.07397 116.312 7.07397ZM116.312 16.3878C115.197 16.3878 114.256 16.0248 113.514 15.3096C112.775 14.5956 112.4 13.6284 112.4 12.435C112.4 11.2416 112.779 10.2354 113.527 9.48777C114.274 8.74017 115.211 8.36097 116.312 8.36097C117.413 8.36097 118.351 8.74017 119.098 9.48777C119.846 10.2354 120.225 11.2272 120.225 12.435C120.225 13.6428 119.85 14.5956 119.111 15.3096C118.37 16.0254 117.428 16.3878 116.312 16.3878Z" fill="#222B33"/>
<path d="M127.962 7.13456C127.239 7.13456 126.554 7.29776 125.928 7.61816C125.482 7.84616 125.113 8.15995 124.825 8.55475L124.795 7.23535H123.511V17.5542H124.859V11.568C124.859 10.707 125.161 9.96236 125.755 9.35516C126.35 8.74796 127.094 8.43415 127.965 8.42155C128.56 8.42155 129.097 8.56856 129.563 8.85836L129.725 8.95855L130.342 7.83595L130.197 7.74595C129.498 7.31275 128.746 7.10756 127.962 7.13456Z" fill="#222B33"/>
<path d="M143.367 7.0338C142.529 7.0338 141.748 7.26 141.043 7.707C140.458 8.0778 140.004 8.5788 139.69 9.1998C139.394 8.5332 138.944 8.0172 138.349 7.6638C137.645 7.2456 136.851 7.0338 135.989 7.0338C134.64 7.0338 133.609 7.5096 132.916 8.4504L132.901 7.2354H131.615V17.5542H132.963V11.4672C132.963 10.5522 133.244 9.79319 133.8 9.21299C134.361 8.62619 135.07 8.34121 135.968 8.34121C136.867 8.34121 137.579 8.62679 138.148 9.21359C138.709 9.79439 138.994 10.5522 138.994 11.4672V17.5542H140.342V11.4672C140.342 10.5522 140.627 9.7902 141.189 9.2028C141.757 8.6094 142.469 8.3208 143.367 8.3208C144.265 8.3208 144.982 8.61119 145.536 9.18299C146.091 9.75659 146.372 10.5048 146.372 11.4066V17.5542H147.72V11.4066C147.72 10.1262 147.309 9.066 146.498 8.2554C145.687 7.4448 144.634 7.0338 143.367 7.0338Z" fill="#222B33"/>
<path d="M156.857 12.3972C156.352 12.1302 155.424 11.8872 154.02 11.6532C153.691 11.6004 153.467 11.5608 153.358 11.535C153.244 11.508 153.032 11.4576 152.723 11.3838C152.43 11.3136 152.217 11.244 152.09 11.1774C151.955 11.1066 151.795 11.0088 151.613 10.8852C151.451 10.7748 151.332 10.6482 151.259 10.5078C151.186 10.3668 151.148 10.2012 151.148 10.0122C151.136 9.47575 151.385 9.07735 151.91 8.79355C152.465 8.49415 153.157 8.34895 153.972 8.36155C155.198 8.36155 156.202 8.69935 156.958 9.36475L157.088 9.47996L157.936 8.57636L157.805 8.45335C156.834 7.53775 155.545 7.07395 153.974 7.07395C152.843 7.06135 151.864 7.30316 151.065 7.79636C150.238 8.30696 149.826 9.06116 149.84 10.0362C149.84 10.455 149.929 10.827 150.105 11.142C150.276 11.4486 150.476 11.6994 150.701 11.8878C150.925 12.0762 151.246 12.243 151.655 12.384C152.05 12.5202 152.396 12.6204 152.684 12.6822C152.968 12.7434 153.365 12.8148 153.863 12.8958C154.288 12.9624 154.618 13.0194 154.842 13.0656C155.064 13.1112 155.347 13.1844 155.684 13.2834C156.004 13.3776 156.242 13.4832 156.392 13.5966C156.543 13.7106 156.681 13.8648 156.803 14.055C156.918 14.2326 156.968 14.4383 156.956 14.6879C156.944 15.1211 156.778 15.4632 156.448 15.7332C156.102 16.0158 155.731 16.2 155.345 16.281C154.943 16.3656 154.501 16.4082 154.031 16.4082C153.347 16.4082 152.675 16.2708 152.035 15.999C151.405 15.7314 150.899 15.3258 150.53 14.7924L150.415 14.625L149.422 15.5076L149.506 15.6372C149.94 16.3098 150.574 16.8306 151.389 17.1864C152.194 17.5374 153.076 17.7156 154.011 17.7156C154.681 17.7156 155.317 17.6388 155.901 17.4882C156.5 17.3334 157.045 17.0232 157.522 16.5672C158.013 16.098 158.269 15.489 158.284 14.7612C158.327 13.6806 157.846 12.8844 156.857 12.3972Z" fill="#222B33"/>
</svg>
