<svg xmlns="http://www.w3.org/2000/svg" width="24" height="24" viewBox="0 0 24 24" fill="none"><path fill="currentColor" fill-rule="evenodd" d="M18.66 2H11.4C9.37 2 7.71 3.62 7.62 5.63H5.8C3.71 5.63 2 7.34 2 9.43v10.6c0 .88.32 1.72 1.08 2.16.75.44 1.65.32 2.41-.11l3.67-2.04s.13-.05.28-.05c.15 0 .24.03.28.05l3.66 2.04c.77.42 1.66.55 2.41.11.76-.44 1.08-1.29 1.08-2.16v-2.75l2.11 1.18c.77.42 1.66.55 2.41.11.76-.44 1.08-1.29 1.08-2.16V5.8c0-2.09-1.71-3.8-3.8-3.8h-.01Zm-3.59 18.03c0 .48-.16.6-.19.61-.03.02-.21.1-.63-.13l-3.66-2.04c-.36-.2-.78-.27-1.14-.27-.36 0-.78.07-1.14.27l-3.67 2.05c-.42.23-.6.15-.63.13-.03-.02-.19-.13-.19-.61V9.43c0-1.1.9-2 2-2h7.26c1.1 0 2 .9 2 2v10.6h-.01Zm5.6-3.62c0 .48-.16.6-.19.61-.03.02-.21.1-.63-.13l-2.98-1.66v-5.8c0-2.09-1.71-3.8-3.8-3.8H9.41c.09-1.02.96-1.82 1.99-1.82h7.26c1.1 0 2 .9 2 2v10.6h.01Z" clip-rule="evenodd"/></svg>