<svg xmlns="http://www.w3.org/2000/svg" width="24" height="20" fill="none"><path fill="currentColor" d="M16.44 0H7.56C5.04 0 3 2.01 3 4.47v12.68c0 1.12.45 2.04 1.24 2.51.81.48 1.85.44 2.88-.11l4.5-2.44c.18-.1.59-.1.77 0l4.49 2.44c.55.3 1.11.45 1.63.45.45 0 .87-.11 1.24-.33.79-.47 1.25-1.39 1.25-2.52V4.47C20.99 2.01 18.94 0 16.44 0ZM19 17.15c0 .39-.1.7-.27.8-.18.11-.52.05-.9-.16l-4.49-2.43c-.39-.22-.87-.32-1.34-.32-.47 0-.95.11-1.34.32L6.17 17.8c-.37.2-.72.26-.9.15-.17-.1-.27-.4-.27-.79V4.47C5 3.11 6.15 2 7.56 2h8.88C17.85 2 19 3.11 19 4.47v12.68Z"/></svg>