<svg xmlns="http://www.w3.org/2000/svg" width="24" height="24" viewBox="0 0 24 24" fill="none"><path fill="currentColor" d="M9.5 13a1.5 1.5 0 1 1-3 0 1.5 1.5 0 0 1 3 0ZM12 14.5a1.5 1.5 0 1 0 0-3 1.5 1.5 0 0 0 0 3ZM17.5 13a1.5 1.5 0 1 1-3 0 1.5 1.5 0 0 1 3 0ZM8 18.5a1.5 1.5 0 1 0 0-3 1.5 1.5 0 0 0 0 3ZM13.5 17a1.5 1.5 0 1 1-3 0 1.5 1.5 0 0 1 3 0ZM16 18.5a1.5 1.5 0 1 0 0-3 1.5 1.5 0 0 0 0 3ZM7.5 6h9a.5.5 0 0 1 .5.5v3a.5.5 0 0 1-.5.5h-9a.5.5 0 0 1-.5-.5v-3a.5.5 0 0 1 .5-.5Z"/><path fill="currentColor" fill-rule="evenodd" d="M5 2h14a2 2 0 0 1 2 2v16a2 2 0 0 1-2 2H5a2 2 0 0 1-2-2V4a2 2 0 0 1 2-2Zm0 2v16h14V4H5Z" clip-rule="evenodd"/></svg>