<svg xmlns="http://www.w3.org/2000/svg" width="24" height="24" viewBox="0 0 24 24" fill="none"><path fill="currentColor" d="M21.153 16.304a3.858 3.858 0 0 0-2.122-1.358V11.02h-6.05V9.07a3.93 3.93 0 0 0 2.122-1.374c.564-.697.846-1.507.846-2.432 0-1.103-.382-2.04-1.146-2.809C14.04 1.684 13.104 1.3 12 1.3c-1.104 0-2.039.384-2.803 1.153-.764.77-1.146 1.708-1.146 2.816 0 .922.282 1.732.846 2.428a3.935 3.935 0 0 0 2.123 1.372v1.951H4.97v3.926c-.851.21-1.559.662-2.123 1.358C2.282 17 2 17.816 2 18.751c0 1.1.383 2.033 1.15 2.8.767.766 1.7 1.15 2.8 1.15 1.103 0 2.04-.384 2.809-1.15.77-.767 1.154-1.7 1.154-2.8 0-.935-.282-1.75-.847-2.447a3.857 3.857 0 0 0-2.122-1.358V12.98h10.112v1.966c-.85.21-1.558.662-2.122 1.358-.565.696-.847 1.512-.847 2.447 0 1.1.383 2.033 1.15 2.8.767.766 1.7 1.15 2.8 1.15 1.103 0 2.04-.384 2.809-1.15.77-.767 1.154-1.7 1.154-2.8 0-.935-.282-1.75-.847-2.447Zm-13.79 1.039c.384.387.576.857.576 1.409 0 .551-.194 1.018-.581 1.4a1.93 1.93 0 0 1-1.409.575 1.898 1.898 0 0 1-1.401-.58 1.923 1.923 0 0 1-.574-1.405c0-.552.193-1.02.579-1.404a1.919 1.919 0 0 1 1.406-.576c.552 0 1.02.194 1.404.581Zm4.632-10.104a1.912 1.912 0 0 1-1.407-.58 1.916 1.916 0 0 1-.577-1.405 1.9 1.9 0 0 1 .582-1.404 1.934 1.934 0 0 1 1.412-.576c.553 0 1.022.194 1.407.581.385.388.577.857.577 1.409 0 .551-.194 1.018-.582 1.4a1.937 1.937 0 0 1-1.412.575Zm7.45 12.914a1.93 1.93 0 0 1-1.409.574 1.898 1.898 0 0 1-1.4-.58 1.923 1.923 0 0 1-.575-1.405c0-.552.193-1.02.58-1.404a1.919 1.919 0 0 1 1.405-.576c.552 0 1.02.194 1.404.581.384.387.576.857.576 1.409 0 .551-.194 1.018-.581 1.4Z"/></svg>