<svg xmlns="http://www.w3.org/2000/svg" width="24" height="24" fill="none" viewBox="0 0 24 24"><path fill="currentColor" d="M20.264 3.739a5.94 5.94 0 0 0-8.398 0L6.176 9.42a4.001 4.001 0 0 0-1.172 2.819v5.373l-2.718 2.719a.977.977 0 1 0 1.382 1.382l2.726-2.728h5.354a3.99 3.99 0 0 0 2.817-1.164l5.69-5.682a5.928 5.928 0 0 0 0-8.401h.009Zm-1.39 7.028-5.69 5.682c-.382.382-.9.591-1.436.591h-3.4l8.353-8.355a.977.977 0 0 0-1.381-1.382l-8.362 8.364V12.25c0-.537.218-1.055.59-1.437l5.69-5.682a3.987 3.987 0 0 1 5.635 0 3.99 3.99 0 0 1 0 5.637Z"/></svg>