<svg xmlns="http://www.w3.org/2000/svg" width="24" height="24" viewBox="0 0 24 24" fill="none"><path fill="currentColor" d="m12 10.85 7.425-5.875c.333-.233.68-.263 1.037-.088.359.175.538.471.538.888 0 .167-.038.325-.113.475a.851.851 0 0 1-.312.35L12 13.3 3.425 6.6a.851.851 0 0 1-.313-.35A1.048 1.048 0 0 1 3 5.775c0-.4.18-.692.538-.875.358-.183.704-.158 1.037.075L12 10.85Zm0 5.95 7.425-5.875c.333-.233.68-.263 1.037-.088.359.175.538.471.538.888 0 .167-.038.325-.113.475a.851.851 0 0 1-.312.35L12 19.25l-8.575-6.7a.85.85 0 0 1-.313-.35A1.048 1.048 0 0 1 3 11.725c0-.4.18-.692.538-.875.358-.183.704-.158 1.037.075L12 16.8Z"/></svg>