<svg xmlns="http://www.w3.org/2000/svg" width="24" height="24" fill="none" viewBox="0 0 24 24"><g fill="currentColor" clip-path="url(#a)"><path d="m23.5.5-2.65 1.452L18.197.5l1.455 2.645-1.455 2.645 2.651-1.452L23.5 5.79l-1.445-2.645L23.5.5Zm-2.65 14.389-2.652-1.452 1.455 2.645-1.455 2.645 2.651-1.442 2.651 1.442-1.445-2.645 1.445-2.645-2.65 1.452ZM8.034 4.338l2.65 1.452L9.23 3.145 10.685.5 8.034 1.952 5.383.5l1.445 2.645L5.383 5.79l2.65-1.452Zm7.683 1.939a2.128 2.128 0 0 0-1.515-.626c-.578 0-1.116.219-1.514.626L1.128 17.812a2.145 2.145 0 0 0 0 3.033l2.033 2.029c.408.407.946.626 1.514.626.578 0 1.117-.219 1.515-.627L17.75 11.34a2.145 2.145 0 0 0 0-3.033l-2.033-2.029Zm.618 3.65-2.78 2.774-2.243-2.237 2.78-2.785s.08-.05.11-.05.07 0 .11.05l2.033 2.029c.06.06.06.16 0 .219h-.01Z"/></g><defs><clipPath id="a"><path fill="#fff" d="M0 0h24v24H0z"/></clipPath></defs></svg>